<?xml version="1.0" encoding="iso-8859-1"?>
<!-- Uploaded to: SVG Repo, www.svgrepo.com, Generator: SVG Repo Mixer Tools -->
<svg height="800px" width="800px" version="1.1" id="Layer_1" xmlns="http://www.w3.org/2000/svg" xmlns:xlink="http://www.w3.org/1999/xlink" 
	 viewBox="0 0 512 512" xml:space="preserve">
<path style="fill:#3D83CC;" d="M446.61,159.043H270.201c-36.114,0-65.391,29.276-65.391,65.391v142.765
	c0,36.114,29.276,65.391,65.391,65.391H446.61c36.114,0,65.391-29.276,65.391-65.391V224.434
	C512,188.319,482.724,159.043,446.61,159.043z"/>
<path style="fill:#D9576D;" d="M328.219,159.043H65.431c-36.114,0-65.391,29.276-65.391,65.391v142.765
	c0,36.114,29.276,65.391,65.391,65.391h262.788V159.043z"/>
<path style="fill:#4DA3FF;" d="M446.61,79.411H270.201c-36.114,0-65.391,29.276-65.391,65.391v142.765
	c0,36.114,29.276,65.391,65.391,65.391H446.61c36.114,0,65.391-29.276,65.391-65.391V144.801
	C512,108.687,482.724,79.411,446.61,79.411z"/>
<path style="fill:#FF8095;" d="M328.219,79.411H65.432c-36.114,0-65.391,29.276-65.391,65.391v142.765
	c0,36.114,29.276,65.391,65.391,65.391H328.22V79.411H328.219z"/>
<path style="fill:#FFF7E6;" d="M0.04,327.951v37.266c12.403,23.465,37.053,39.501,65.391,39.501h381.178
	c28.338,0,53.996-14.196,65.391-41.777v-40.678c-5.67,29.291-10.637,36.69-10.637,36.69c-14.789,29.388-54.755,28.701-54.755,28.701
	H65.431c0,0-26.552,1.73-42.336-14.765C23.096,372.889-1.116,351.981,0.04,327.951z"/>
</svg>