<?xml version="1.0" encoding="iso-8859-1"?>
<!-- Uploaded to: SVG Repo, www.svgrepo.com, Generator: SVG Repo Mixer Tools -->
<svg height="800px" width="800px" version="1.1" id="Layer_1" xmlns="http://www.w3.org/2000/svg" xmlns:xlink="http://www.w3.org/1999/xlink" 
	 viewBox="0 0 512 512" xml:space="preserve">
<path style="fill:#1EB415;" d="M351.345,457.924c0-27.522-22.314-49.836-49.836-49.836c-0.796,0-1.585,0.029-2.372,0.066
	c-10.037-39.633-45.934-68.96-88.689-68.96c-40.544,0-74.906,26.381-86.914,62.906c-29.979,0.999-53.981,25.601-53.981,55.824
	H351.345z"/>
<path style="fill:#90DE3F;" d="M449.429,405.803c-9.607,0-18.6,2.61-26.328,7.145c-9.819-41.258-46.91-71.946-91.173-71.946
	c-22.887,0-43.855,8.208-60.13,21.836c13.156,11.906,22.845,27.572,27.339,45.317c0.787-0.037,1.576-0.066,2.372-0.066
	c27.522,0,49.836,22.314,49.836,49.836h150.206C501.551,429.139,478.215,405.803,449.429,405.803z"/>
<path style="fill:#FFD21D;" d="M437.987,136.704c1.659-0.167,3.328-0.26,4.999-0.26c14.695,0,27.877,6.611,36.788,17.021
	c13.234-10.119,21.777-26.063,21.777-44.01c0-30.585-24.794-55.379-55.379-55.379c-27.391,0-50.12,19.888-54.574,46.01
	C412.565,102.761,430.431,116.834,437.987,136.704z"/>
<path style="fill:#FFFFFF;" d="M491.542,185.295c0-26.938-21.781-48.853-48.556-48.853c-1.672,0-3.339,0.093-4.999,0.26
	c-8.42-22.137-29.63-37.088-53.674-37.088c-24.046,0-45.253,14.952-53.673,37.088c-1.66-0.167-3.327-0.26-5.002-0.26
	c-26.771,0-48.552,21.914-48.552,48.853H491.542z"/>
<path d="M215.704,366.279c-1.676-0.117-3.383-0.178-5.076-0.178c-23.743,0-45.843,11.777-59.121,31.502
	c-3.222,4.788-1.953,11.281,2.834,14.503c1.791,1.205,3.818,1.782,5.825,1.782c3.36,0,6.66-1.619,8.678-4.615
	c9.387-13.948,25.008-22.274,41.784-22.274c1.205,0,2.419,0.043,3.609,0.126c5.753,0.396,10.752-3.933,11.157-9.689
	C225.799,371.68,221.461,366.685,215.704,366.279z"/>
<path d="M254.582,381.274c-4.539-3.564-11.108-2.77-14.671,1.767c-3.563,4.539-2.772,11.107,1.767,14.67
	c3.545,2.784,6.705,6.029,9.39,9.643c2.051,2.761,5.204,4.218,8.396,4.218c2.166,0,4.351-0.672,6.223-2.063
	c4.633-3.442,5.597-9.987,2.157-14.619C264.049,389.787,259.588,385.205,254.582,381.274z"/>
<path d="M449.429,395.354c-6.754,0-13.44,1.096-19.795,3.215c-6.547-17.621-17.872-33.381-32.674-45.225
	c-18.367-14.697-41.463-22.792-65.031-22.792c-21.455,0-42.388,6.666-59.836,18.91c-17.267-13.096-38.718-20.717-61.643-20.717
	c-41.799,0-78.913,25.257-94.437,63.538c-14.505,2.056-27.871,8.833-38.21,19.498c-9.598,9.899-15.749,22.308-17.864,35.695H10.449
	C4.678,447.476,0,452.155,0,457.925c0,5.771,4.678,10.449,10.449,10.449h491.097h0.005c5.77,0,10.449-4.678,10.449-10.449
	C512,423.423,483.931,395.354,449.429,395.354z M123.884,412.543c4.383-0.146,8.208-3.013,9.578-7.179
	c10.957-33.328,41.896-55.721,76.987-55.721c20.414,0,39.356,7.597,53.799,20.399c0.398,0.417,0.82,0.798,1.268,1.136
	c11.202,10.357,19.536,23.925,23.491,39.542c1.219,4.814,5.67,8.08,10.617,7.872c0.625-0.029,1.251-0.055,1.884-0.055
	c18.101,0,33.378,12.277,37.97,28.938H81.207C85.762,427.882,102.874,413.244,123.884,412.543z M360.872,447.475
	c-4.655-26.515-26.681-47.125-53.879-49.589c-4.27-12.62-10.88-24.004-19.255-33.73c13.173-8.245,28.506-12.706,44.19-12.706
	c38.74,0,72.052,26.283,81.007,63.917c0.767,3.222,3.018,5.891,6.065,7.192c3.047,1.298,6.529,1.078,9.388-0.599
	c6.364-3.734,13.64-5.708,21.041-5.708c19.371,0,35.699,13.287,40.346,31.224H360.872V447.475z"/>
<path d="M10.449,151.076c11.618,0,21.071,9.453,21.071,21.071c0,5.77,4.679,10.449,10.449,10.449s10.449-4.679,10.449-10.449
	c0-11.618,9.453-21.071,21.071-21.071c5.77,0,10.449-4.679,10.449-10.449c0-5.771-4.679-10.449-10.449-10.449
	c-12.55,0-23.822,5.544-31.52,14.303c-7.698-8.76-18.97-14.303-31.52-14.303C4.678,130.178,0,134.857,0,140.627
	C0,146.398,4.678,151.076,10.449,151.076z"/>
<path d="M104.88,182.596c11.618,0,21.071,9.453,21.071,21.071c0,5.77,4.679,10.449,10.449,10.449
	c5.771,0,10.449-4.679,10.449-10.449c0-11.618,9.453-21.071,21.071-21.071c5.77,0,10.449-4.679,10.449-10.449
	c0-5.771-4.679-10.449-10.449-10.449c-12.55,0-23.822,5.544-31.52,14.303c-7.698-8.76-18.97-14.303-31.52-14.303
	c-5.77,0-10.449,4.678-10.449,10.449C94.431,177.918,99.11,182.596,104.88,182.596z"/>
<path d="M277.087,195.744h214.455c5.77,0,10.449-4.678,10.449-10.449c0-11.066-3.032-21.434-8.304-30.308
	C505.415,142.813,512,126.699,512,109.454c0-36.297-29.531-65.828-65.828-65.828c-28.996,0-54.006,18.676-62.631,45.553
	c-25.114,0.292-48.129,14.749-59.55,36.838c-31.773,0.882-57.353,27.135-57.353,59.279
	C266.639,191.066,271.316,195.744,277.087,195.744z M446.172,64.524c24.774,0,44.93,20.156,44.93,44.93
	c0,11.103-4.006,21.519-11.182,29.645c-9.72-7.864-21.95-12.712-35.283-13.083c-8.365-16.177-22.949-28.26-40.021-33.686
	C411.39,75.767,427.58,64.524,446.172,64.524z M325.638,146.892c1.258,0,2.588,0.069,3.954,0.207
	c4.702,0.476,9.134-2.265,10.815-6.681c6.906-18.156,24.551-30.355,43.907-30.355s37.003,12.198,43.907,30.354
	c1.678,4.417,6.117,7.159,10.816,6.682c1.365-0.138,2.694-0.207,3.95-0.207c17.42,0,32.147,11.84,36.673,27.955H288.969
	C293.495,158.732,308.22,146.892,325.638,146.892z"/>
</svg>