<?xml version="1.0" encoding="iso-8859-1"?>
<!-- Uploaded to: SVG Repo, www.svgrepo.com, Generator: SVG Repo Mixer Tools -->
<svg height="800px" width="800px" version="1.1" id="Layer_1" xmlns="http://www.w3.org/2000/svg" xmlns:xlink="http://www.w3.org/1999/xlink" 
	 viewBox="0 0 512 512" xml:space="preserve">
<path style="fill:#FF3F62;" d="M492.569,251.221h-2.359h-20.207H352.892h-0.149h-20.057h-19.888H256h-56.798h-19.888h-20.057h-0.149
	H41.997H21.79h-2.359C8.7,251.221,0,259.921,0,270.652v103.632c0,10.731,8.7,19.431,19.431,19.431h61.691h38.862H256h136.017h38.862
	h61.691c10.731,0,19.431-8.7,19.431-19.431V270.652C512,259.921,503.3,251.221,492.569,251.221z"/>
<g>
	<path style="fill:#830018;" d="M81.122,477.916c0,10.731,8.7,19.431,19.431,19.431s19.431-8.7,19.431-19.431v-84.201H81.122
		V477.916z"/>
	<path style="fill:#830018;" d="M392.017,477.916c0,10.731,8.7,19.431,19.431,19.431c10.731,0,19.431-8.7,19.431-19.431v-84.201
		h-38.862V477.916z"/>
</g>
<path style="fill:#D8143A;" d="M199.202,251.221h-19.887h-20.057h-0.149H41.997H21.79h-2.359C8.7,251.221,0,259.921,0,270.652
	v103.632c0,10.731,8.7,19.431,19.431,19.431h61.691h38.862H256V251.221L199.202,251.221L199.202,251.221z"/>
<path style="fill:#EFC27B;" d="M100.553,14.654c-32.143,0-58.293,26.15-58.293,58.293s26.15,58.293,58.293,58.293
	s58.293-26.15,58.293-58.293S132.696,14.654,100.553,14.654z"/>
<path style="fill:#5286FA;" d="M198.35,247.353c-1.953-8.205-4.911-16.021-8.744-23.315c-3.206-6.099-7.002-11.839-11.342-17.121
	c-18.457-22.462-46.437-36.816-77.711-36.816C45.107,170.101,0,215.208,0,270.652c0-10.731,8.7-19.431,19.431-19.431h2.359h20.207
	h58.556h58.556h0.149h20.057h19.888C198.947,249.922,198.655,248.636,198.35,247.353z"/>
<path style="fill:#ECB45C;" d="M42.26,72.946c0,32.143,26.15,58.293,58.293,58.293V14.654C68.41,14.654,42.26,40.804,42.26,72.946z"
	/>
<path style="fill:#3D6DEB;" d="M0,270.652c0-10.731,8.7-19.431,19.431-19.431h2.359h20.207h58.556v-81.12
	C45.107,170.101,0,215.208,0,270.652z"/>
<path style="fill:#EFC27B;" d="M411.447,14.654c-32.143,0-58.293,26.15-58.293,58.293s26.15,58.293,58.293,58.293
	s58.293-26.15,58.293-58.293S443.591,14.654,411.447,14.654z"/>
<path style="fill:#5286FA;" d="M411.447,170.101c-31.275,0-59.255,14.356-77.711,36.818c-4.342,5.283-8.136,11.023-11.342,17.121
	c-3.833,7.293-6.79,15.109-8.745,23.315c-0.304,1.281-0.596,2.566-0.851,3.867h19.888h20.057h0.149h58.556h58.556h20.207h2.359
	c10.731,0,19.431,8.7,19.431,19.431C512,215.208,466.893,170.101,411.447,170.101z"/>
<path style="fill:#ECB45C;" d="M353.155,72.946c0,32.143,26.15,58.293,58.293,58.293V14.654
	C379.305,14.654,353.155,40.804,353.155,72.946z"/>
<path style="fill:#3D6DEB;" d="M333.737,206.919c-4.342,5.283-8.136,11.023-11.342,17.121c-3.833,7.293-6.79,15.109-8.745,23.315
	c-0.304,1.281-0.596,2.566-0.851,3.867h19.888h20.057h0.149h58.556v-81.12C380.173,170.101,352.192,184.457,333.737,206.919z"/>
<path style="fill:#EFC27B;" d="M256,14.654c-32.143,0-58.293,26.15-58.293,58.293s26.15,58.293,58.293,58.293
	s58.293-26.15,58.293-58.293S288.144,14.654,256,14.654z"/>
<path style="fill:#00E7F0;" d="M316.59,190.401c-17.567-13.28-38.517-20.3-60.59-20.3h-0.001c-22.07,0-43.023,7.02-60.588,20.299
	c-6.357,4.805-12.115,10.371-17.146,16.518c4.341,5.283,8.136,11.023,11.342,17.121c3.833,7.293,6.79,15.109,8.744,23.315
	c0.306,1.281,0.597,2.567,0.852,3.868h56.798h56.798c0.255-1.299,0.547-2.586,0.851-3.867c1.955-8.205,4.912-16.021,8.745-23.315
	c3.206-6.099,7-11.84,11.342-17.121C328.703,200.772,322.947,195.207,316.59,190.401z"/>
<path style="fill:#00D7DF;" d="M255.999,170.101c-22.07,0-43.023,7.02-60.588,20.299c-6.357,4.805-12.115,10.371-17.146,16.518
	c4.341,5.283,8.136,11.023,11.342,17.121c3.833,7.293,6.79,15.109,8.744,23.315c0.306,1.281,0.597,2.567,0.852,3.868h56.798
	L255.999,170.101L255.999,170.101z"/>
<path style="fill:#ECB45C;" d="M197.707,72.946c0,32.143,26.15,58.293,58.293,58.293V14.654
	C223.857,14.654,197.707,40.804,197.707,72.946z"/>
</svg>