<?xml version="1.0" encoding="UTF-8"?>
<svg xmlns="http://www.w3.org/2000/svg" xmlns:xlink="http://www.w3.org/1999/xlink" width="30px" height="30px" viewBox="0 0 30 30" version="1.1">
<g id="surface1">
<path style="fill:none;stroke-width:1.5;stroke-linecap:round;stroke-linejoin:miter;stroke:rgb(10.980392%,15.294118%,29.803922%);stroke-opacity:1;stroke-miterlimit:4;" d="M 8 5.06875 C 9.178125 4.390625 10.54375 4 12 4 C 16.41875 4 20 7.58125 20 12 C 20 16.41875 16.41875 20 12 20 C 7.58125 20 4 16.41875 4 12 C 4 10.54375 4.390625 9.178125 5.06875 8 " transform="matrix(1.25,0,0,1.25,0,0)"/>
<path style="fill:none;stroke-width:1.5;stroke-linecap:round;stroke-linejoin:round;stroke:rgb(10.980392%,15.294118%,29.803922%);stroke-opacity:1;stroke-miterlimit:4;" d="M 13.83125 14.925 C 8.403125 17.81875 3.18125 18.853125 2.171875 17.2375 C 1.6375 16.384375 2.38125 14.965625 4 13.390625 M 17.85 6.190625 C 19.859375 5.81875 21.340625 5.98125 21.828125 6.7625 C 22.628125 8.0375 20.56875 10.58125 17 13.015625 " transform="matrix(1.25,0,0,1.25,0,0)"/>
</g>
</svg>
