<?xml version="1.0" encoding="UTF-8"?>
<svg xmlns="http://www.w3.org/2000/svg" xmlns:xlink="http://www.w3.org/1999/xlink" width="40px" height="40px" viewBox="0 0 40 40" version="1.1">
<g id="surface1">
<path style="fill:none;stroke-width:1.5;stroke-linecap:round;stroke-linejoin:miter;stroke:rgb(10.980392%,15.294118%,29.803922%);stroke-opacity:1;stroke-miterlimit:4;" d="M 7.999219 5.069531 C 9.175781 4.389844 10.542187 4.000781 12 4.000781 C 16.417969 4.000781 19.999219 7.582031 19.999219 12 C 19.999219 16.417969 16.417969 19.999219 12 19.999219 C 7.582031 19.999219 4.000781 16.417969 4.000781 12 C 4.000781 10.542187 4.389844 9.175781 5.069531 7.999219 " transform="matrix(1.666667,0,0,1.666667,0,0)"/>
<path style="fill:none;stroke-width:1.5;stroke-linecap:round;stroke-linejoin:round;stroke:rgb(10.980392%,15.294118%,29.803922%);stroke-opacity:1;stroke-miterlimit:4;" d="M 13.830469 14.927344 C 8.402344 17.819531 3.182812 18.853125 2.170312 17.235937 C 1.638281 16.385156 2.38125 14.964844 4.000781 13.389844 M 17.847656 6.189844 C 19.860937 5.819531 21.339844 5.978906 21.829687 6.764062 C 22.626562 8.036719 20.56875 10.579687 16.999219 13.017187 " transform="matrix(1.666667,0,0,1.666667,0,0)"/>
</g>
</svg>
