<?xml version="1.0" encoding="utf-8"?>
<!-- Generator: Adobe Illustrator 27.5.0, SVG Export Plug-In . SVG Version: 6.00 Build 0)  -->
<svg version="1.1" id="Layer_1" xmlns="http://www.w3.org/2000/svg" xmlns:xlink="http://www.w3.org/1999/xlink" x="0px" y="0px"
	 viewBox="0 0 269.284 296.894" style="enable-background:new 0 0 269.284 296.894;" xml:space="preserve">
<g>
	<g>
		<path style="fill:#FFFFFF;" d="M104.141,261.215c-0.898,0.78-1.713,1.584-2.438,2.405c-0.213-0.253-0.43-0.504-0.652-0.754
			c-0.096-2.28-0.147-4.575-0.155-6.876C101.899,257.847,102.982,259.613,104.141,261.215z M11.479,93.632
			c0.012,0.276,0.027,0.552,0.049,0.816l0.019,0.212c0.028,0.305,0.062,0.604,0.102,0.897c0.001,0.01,0.015,0.099,0.017,0.108
			c1.063,7.405,6.238,12.005,13.507,12.006h0.002c2.285,0,4.736-0.461,7.29-1.361c-1.463,15.731,2.453,30.491,11.238,41.543
			c6.463,8.132,18.33,17.684,38.952,19.343c-4.691,15.715-12.066,50.679-4.098,97.894c-5.297,5.948-7.644,13.956-5.487,19.534
			c1.333,3.446,4.261,5.504,7.832,5.504c1.445,0,2.924-0.328,4.456-0.993c1.651,2.102,3.869,3.307,6.363,3.307
			c2.182,0,4.271-0.973,5.875-2.732c0.022-0.023,0.105-0.118,0.127-0.143c0.301-0.341,0.566-0.683,0.813-1.043
			c0.011-0.018,0.022-0.033,0.032-0.05c0.845,0.257,1.621,0.347,2.295,0.347c2.128,0,4.084-0.899,5.505-2.533
			c0.097-0.112,0.191-0.225,0.283-0.344c0.735,0.208,1.486,0.333,2.252,0.375c0.087,0.007,0.176,0.012,0.265,0.014
			c0.084,0.001,0.184,0.002,0.296-0.001h0.01c0.91,0,1.813-0.118,2.681-0.353c0.042-0.011,0.087-0.022,0.115-0.031
			c0.982-0.275,1.859-0.671,2.62-1.106c0.552,0.254,1.152,0.488,1.791,0.676c0.983,1.746,2.458,3.148,4.339,4.089
			c1.759,0.881,3.543,1.326,5.304,1.326c3.156,0,5.7-1.398,7.654-3.298c2.389,2.137,4.803,2.65,6.57,2.65
			c0.824,0,1.657-0.112,2.476-0.336c2.255-0.617,4.124-2.009,5.459-4.023c1.71-0.028,3.452-0.648,5.109-1.974
			c3.799-3.043,4.107-8.308,0.932-15.686c2.634,1.05,5.545,1.984,8.521,2.539c-0.889,2.892-0.515,5.181,0.188,6.839
			c1.271,3.006,4.084,5.009,7.623,5.516c1.823,3.12,5.064,4.938,9.115,4.938c3.295,0,6.695-1.18,9.246-2.732
			c2.198,0.818,5.431,1.613,9.693,1.613c5.371,0,11.24-1.241,17.443-3.69c11.309-4.463,16.85-9.536,16.938-15.509
			c0.022-1.523-0.316-3.337-1.481-5.193c0.07-0.039,0.138-0.077,0.2-0.113c0.438-0.252,0.869-0.52,1.28-0.795
			c0.163-0.109,0.323-0.225,0.482-0.341l0.09-0.066c0.246-0.177,0.492-0.355,0.702-0.521c0.229-0.175,0.45-0.357,0.673-0.544
			c0.189-0.157,0.372-0.318,0.568-0.493c0.232-0.207,0.463-0.416,0.686-0.634c0.113-0.11,0.225-0.225,0.335-0.339l0.053-0.056
			c0.489-0.496,0.96-1.021,1.423-1.583c0.074-0.087,0.146-0.175,0.214-0.259c0.246-0.308,0.482-0.628,0.709-0.944
			c0.09-0.125,0.179-0.25,0.249-0.353c0.237-0.341,0.47-0.69,0.665-1.005l0.122-0.201c0.751-1.229,1.417-2.56,1.98-3.956
			c0.007-0.016,0.013-0.029,0.019-0.045c0.007-0.017,0.014-0.035,0.021-0.054c1.145-2.871,1.865-6.048,2.148-9.464
			c3.803-4.052,10.703-12.902,15.508-27.709c6.775-20.885,7.065-45.855,0.863-74.21l-0.15-0.675
			c-0.172-0.777-0.345-1.553-0.527-2.34c-0.251-1.077-0.511-2.164-0.782-3.261c-0.014-0.053-0.026-0.105-0.042-0.157
			c-5.736-20.236-19.124-42.869-28.454-42.869c-2.157,0-4.066,1.031-5.239,2.83c-0.925,1.419-1.599,3.45-0.986,7.394
			c-2.152-0.158-4.165,0.763-5.416,2.483c-1.456,2.003-2.023,4.741-0.675,11.143c-0.771-0.234-1.506-0.353-2.186-0.353
			c-1.754,0-3.362,0.734-4.413,2.016c-1.042,1.27-1.447,2.966-1.111,4.65c0.095,0.471,0.281,0.963,0.514,1.396
			c0.038,0.07,0.078,0.141,0.119,0.21c0.471,0.785,11.56,19.517,15.224,44.976c0.016,0.105,0.034,0.209,0.057,0.313
			c1.197,8.485,1.429,16.769,0.698,24.757c-18.927-26.668-53.11-51.161-68.428-61.38c-0.062-0.044-0.123-0.087-0.185-0.128
			c-0.04-0.027-0.081-0.054-0.121-0.08c8.157-11.871,13.953-25.822,17.029-40.951c6.607,5.597,16.462,12.652,24.168,12.652
			c2.584,0,4.848-0.726,6.728-2.159c2.201-1.677,4.911-5.094,5.323-11.854c0.819-13.441-8.049-38.723-35.804-65.797
			c-0.477-0.449-0.959-0.883-1.435-1.295c-0.176-0.152-0.354-0.297-0.53-0.441l-0.316-0.262c-0.205-0.172-0.409-0.343-0.623-0.512
			c-0.231-0.182-0.463-0.354-0.693-0.526l-0.382-0.286c-0.136-0.103-0.273-0.207-0.407-0.303c-0.362-0.26-0.726-0.502-1.064-0.726
			l-0.093-0.065c-0.11-0.075-0.221-0.15-0.342-0.228c-0.425-0.274-0.851-0.53-1.261-0.77c-0.092-0.057-0.185-0.113-0.261-0.156
			c-0.46-0.264-0.921-0.511-1.4-0.754c-0.048-0.025-0.102-0.055-0.139-0.072c-3.682-1.85-7.39-2.788-11.02-2.788
			c-6.013,0-16.453,2.672-23.206,19.27c-4.752-2.477-10.584-3.762-17.222-3.762c-7.975,0-16.337,1.878-23.544,5.226
			c-3.064-3.378-8.7-7.673-17.549-7.673c-12.073,0-26.13,8.175-41.778,24.298c-0.088,0.091-0.174,0.186-0.255,0.283
			c-0.531,0.644-1.053,1.281-1.556,1.906l-0.223,0.279c-0.434,0.54-0.861,1.078-1.271,1.603l-0.271,0.35
			c-0.393,0.507-0.784,1.012-1.156,1.503l-0.268,0.356c-0.374,0.497-0.745,0.99-1.115,1.494l-0.229,0.316
			c-0.361,0.492-0.716,0.983-1.059,1.464l-0.239,0.34c-0.341,0.483-0.679,0.963-0.989,1.415l-0.247,0.363
			c-0.321,0.471-0.638,0.938-0.926,1.372l-0.237,0.361c-0.303,0.46-0.602,0.918-0.892,1.371l-0.211,0.334
			c-0.288,0.451-0.569,0.901-0.858,1.37l-0.19,0.313c-0.27,0.443-0.537,0.887-0.786,1.311l-0.195,0.334
			c-0.255,0.436-0.505,0.87-0.743,1.294l-0.183,0.326c-0.237,0.425-0.471,0.849-0.699,1.274l-0.173,0.326
			c-0.219,0.412-0.434,0.821-0.654,1.252l-0.161,0.319c-0.201,0.4-0.397,0.796-0.592,1.196l-0.16,0.336
			c-0.184,0.389-0.367,0.773-0.552,1.18l-0.148,0.33c-0.17,0.379-0.336,0.753-0.505,1.148l-0.134,0.318
			c-0.155,0.368-0.305,0.732-0.451,1.098l-0.143,0.364c-0.138,0.352-0.269,0.699-0.397,1.042l-0.14,0.385
			c-0.119,0.335-0.236,0.664-0.35,1.001l-0.132,0.396c-0.104,0.32-0.206,0.638-0.295,0.931l-0.129,0.428
			c-0.091,0.302-0.176,0.604-0.256,0.899l-0.124,0.46c-0.072,0.279-0.142,0.555-0.214,0.852l-0.102,0.443
			c-0.064,0.275-0.122,0.548-0.168,0.776c-0.037,0.18-0.072,0.357-0.1,0.501c-0.049,0.256-0.094,0.509-0.139,0.785l-0.079,0.489
			c-0.034,0.225-0.064,0.447-0.091,0.652c-0.026,0.2-0.051,0.398-0.072,0.594l-0.059,0.603c-0.018,0.207-0.036,0.412-0.048,0.607
			l-0.029,0.521c-0.01,0.227-0.018,0.45-0.022,0.652c-0.004,0.154-0.005,0.306-0.005,0.435c-0.001,0.255,0.001,0.509,0.009,0.774
			L11.479,93.632z"/>
		<path style="fill:#F1F1F1;" d="M103.466,260.479c-0.897,0.78-1.712,1.584-2.438,2.405c-0.214-0.252-0.431-0.503-0.653-0.753
			c-0.096-2.281-0.147-4.575-0.155-6.877C101.225,257.112,102.308,258.879,103.466,260.479z M10.804,92.896
			c0.013,0.277,0.027,0.552,0.049,0.816l0.021,0.213c0.027,0.304,0.061,0.604,0.102,0.896c0.001,0.01,0.014,0.099,0.016,0.108
			c1.063,7.405,6.239,12.006,13.507,12.007h0.002c2.285,0,4.735-0.462,7.29-1.361c-1.462,15.731,2.454,30.49,11.238,41.542
			c6.463,8.133,18.33,17.685,38.952,19.344c-4.691,15.714-12.066,50.679-4.097,97.893c-5.298,5.948-7.644,13.957-5.489,19.535
			c1.333,3.445,4.262,5.503,7.833,5.503c1.446,0,2.925-0.327,4.456-0.992c1.651,2.1,3.87,3.306,6.363,3.306
			c2.183,0,4.271-0.973,5.876-2.73c0.021-0.024,0.104-0.119,0.126-0.143c0.297-0.344,0.557-0.689,0.813-1.043
			c0.013-0.016,0.023-0.033,0.034-0.049c0.844,0.256,1.621,0.347,2.294,0.347c2.129,0,4.084-0.9,5.506-2.534
			c0.097-0.112,0.191-0.226,0.282-0.343c0.736,0.208,1.488,0.324,2.253,0.375c0.087,0.006,0.175,0.012,0.264,0.013
			c0.085,0.001,0.183,0.002,0.297-0.001h0.011c0.909,0,1.811-0.118,2.68-0.352c0.041-0.012,0.086-0.023,0.113-0.031
			c0.98-0.289,1.86-0.671,2.621-1.106c0.552,0.254,1.152,0.487,1.791,0.675c0.983,1.746,2.458,3.149,4.34,4.09
			c1.758,0.881,3.543,1.326,5.304,1.326c3.155,0,5.699-1.399,7.653-3.299c2.39,2.138,4.803,2.65,6.57,2.65
			c0.824,0,1.656-0.112,2.476-0.336c2.256-0.617,4.124-2.008,5.459-4.023c1.71-0.028,3.453-0.647,5.109-1.974
			c3.799-3.043,4.107-8.308,0.933-15.686c2.633,1.049,5.544,1.983,8.52,2.538c-0.888,2.893-0.514,5.181,0.188,6.84
			c1.271,3.005,4.085,5.008,7.625,5.515c1.823,3.12,5.063,4.939,9.115,4.939c3.294,0,6.695-1.181,9.245-2.733
			c2.198,0.818,5.431,1.613,9.692,1.613c5.372,0,11.241-1.241,17.445-3.689c11.309-4.463,16.85-9.536,16.938-15.509
			c0.022-1.523-0.316-3.336-1.481-5.192c0.071-0.039,0.139-0.078,0.201-0.114c0.438-0.252,0.868-0.519,1.279-0.795
			c0.163-0.108,0.323-0.225,0.482-0.341l0.09-0.065c0.246-0.176,0.492-0.357,0.703-0.52c0.228-0.177,0.45-0.358,0.673-0.544
			c0.189-0.157,0.372-0.319,0.568-0.494c0.231-0.207,0.463-0.414,0.686-0.633c0.112-0.111,0.225-0.225,0.334-0.34l0.053-0.055
			c0.489-0.497,0.956-1.025,1.423-1.584c0.073-0.088,0.147-0.174,0.215-0.259c0.245-0.308,0.481-0.628,0.708-0.944
			c0.09-0.125,0.179-0.251,0.248-0.353c0.236-0.343,0.471-0.69,0.666-1.005l0.122-0.2c0.752-1.229,1.396-2.568,1.98-3.957
			c0.006-0.016,0.012-0.029,0.018-0.045c0.007-0.017,0.015-0.035,0.021-0.054c1.146-2.871,1.865-6.047,2.148-9.464
			c3.803-4.052,10.703-12.902,15.508-27.709c6.776-20.884,7.065-45.854,0.863-74.209l-0.149-0.676
			c-0.173-0.776-0.345-1.553-0.528-2.34c-0.251-1.077-0.51-2.163-0.782-3.261c-0.013-0.053-0.027-0.105-0.042-0.157
			c-5.636-20.265-19.124-42.869-28.453-42.869c-2.158,0-4.067,1.032-5.239,2.83c-0.926,1.419-1.6,3.45-0.986,7.394
			c-2.153-0.158-4.165,0.763-5.417,2.484c-1.456,2.002-2.023,4.74-0.674,11.143c-0.772-0.235-1.507-0.353-2.188-0.353
			c-1.753,0-3.361,0.734-4.411,2.015c-1.042,1.271-1.447,2.966-1.111,4.651c0.093,0.471,0.28,0.962,0.514,1.396
			c0.037,0.07,0.077,0.141,0.119,0.21c0.47,0.785,11.559,19.519,15.224,44.977c0.015,0.105,0.033,0.21,0.056,0.313
			c1.197,8.484,1.43,16.768,0.699,24.756c-18.928-26.668-53.11-51.16-68.429-61.38c-0.061-0.043-0.122-0.087-0.184-0.128
			c-0.041-0.027-0.082-0.054-0.121-0.08c8.156-11.871,13.953-25.821,17.027-40.951c6.607,5.598,16.463,12.652,24.17,12.652
			c2.583,0,4.847-0.726,6.729-2.158c2.2-1.677,4.91-5.095,5.321-11.854c0.82-13.44-7.816-38.962-35.803-65.796
			c-0.474-0.454-0.959-0.883-1.435-1.295c-0.177-0.152-0.354-0.298-0.531-0.441l-0.317-0.263c-0.203-0.172-0.408-0.343-0.622-0.512
			c-0.232-0.182-0.462-0.354-0.693-0.526l-0.382-0.286c-0.137-0.104-0.271-0.206-0.407-0.302c-0.362-0.259-0.726-0.503-1.063-0.726
			l-0.093-0.065c-0.111-0.076-0.221-0.151-0.342-0.229c-0.426-0.274-0.855-0.524-1.263-0.77c-0.092-0.056-0.184-0.112-0.259-0.155
			c-0.462-0.263-0.924-0.508-1.401-0.755c-0.048-0.025-0.102-0.054-0.139-0.072c-3.693-1.827-7.39-2.787-11.02-2.787
			c-6.012,0-16.452,2.671-23.206,19.268c-4.751-2.476-10.584-3.762-17.221-3.762c-7.976,0-16.339,1.878-23.545,5.226
			c-3.064-3.378-8.7-7.673-17.549-7.673c-12.072,0-26.129,8.175-41.778,24.298c-0.088,0.092-0.173,0.187-0.255,0.283
			c-0.533,0.643-1.052,1.281-1.555,1.906l-0.223,0.279c-0.436,0.54-0.863,1.078-1.273,1.604l-0.27,0.35
			c-0.394,0.507-0.785,1.012-1.157,1.503l-0.268,0.357c-0.373,0.496-0.745,0.989-1.115,1.493l-0.229,0.316
			c-0.36,0.493-0.716,0.983-1.058,1.464l-0.24,0.34c-0.341,0.484-0.679,0.964-0.988,1.415l-0.247,0.364
			c-0.321,0.47-0.638,0.937-0.926,1.371l-0.238,0.361c-0.304,0.46-0.603,0.919-0.891,1.371l-0.212,0.334
			c-0.288,0.452-0.569,0.901-0.858,1.37l-0.19,0.314c-0.27,0.442-0.537,0.886-0.786,1.31l-0.194,0.334
			c-0.256,0.438-0.506,0.87-0.744,1.294l-0.182,0.326c-0.238,0.426-0.471,0.849-0.7,1.274l-0.174,0.326
			c-0.219,0.412-0.433,0.821-0.653,1.252l-0.161,0.32c-0.2,0.399-0.398,0.795-0.592,1.196l-0.16,0.335
			c-0.185,0.389-0.366,0.774-0.551,1.18l-0.149,0.331c-0.17,0.378-0.337,0.752-0.505,1.147l-0.133,0.318
			c-0.156,0.368-0.306,0.733-0.451,1.098l-0.145,0.365c-0.136,0.351-0.268,0.698-0.396,1.042l-0.139,0.385
			c-0.119,0.334-0.236,0.663-0.35,1.001l-0.131,0.396c-0.105,0.319-0.207,0.637-0.297,0.931l-0.128,0.427
			c-0.09,0.303-0.175,0.604-0.256,0.899l-0.124,0.459c-0.072,0.279-0.142,0.557-0.213,0.852l-0.103,0.443
			c-0.063,0.275-0.12,0.549-0.167,0.777c-0.036,0.179-0.071,0.356-0.1,0.501c-0.048,0.256-0.094,0.509-0.14,0.784l-0.078,0.489
			c-0.034,0.225-0.064,0.447-0.091,0.653c-0.026,0.199-0.05,0.397-0.071,0.593L10.887,89.6c-0.018,0.206-0.035,0.412-0.048,0.607
			l-0.028,0.521c-0.011,0.227-0.02,0.451-0.023,0.652c-0.003,0.154-0.005,0.307-0.005,0.437c-0.001,0.254,0.001,0.507,0.007,0.772
			L10.804,92.896z"/>
		<path style="fill:#E2E2E2;" d="M102.792,259.745c-0.897,0.78-1.713,1.584-2.438,2.404c-0.213-0.251-0.43-0.502-0.651-0.752
			c-0.097-2.281-0.148-4.575-0.156-6.876C100.552,256.377,101.634,258.143,102.792,259.745z M10.129,92.163
			c0.014,0.276,0.028,0.551,0.051,0.816l0.02,0.211c0.026,0.305,0.059,0.604,0.101,0.897c0.001,0.009,0.015,0.098,0.016,0.107
			c1.063,7.407,6.24,12.006,13.509,12.008h0.001c2.285,0,4.736-0.462,7.29-1.362c-1.462,15.732,2.453,30.491,11.239,41.542
			c6.462,8.134,18.329,17.685,38.951,19.345c-4.69,15.714-12.066,50.678-4.098,97.893c-5.296,5.947-7.644,13.956-5.487,19.535
			c1.333,3.445,4.261,5.503,7.833,5.503c1.444,0,2.924-0.328,4.456-0.992c1.65,2.101,3.868,3.305,6.362,3.305
			c2.182,0,4.287-0.957,5.876-2.73c0.021-0.023,0.104-0.118,0.126-0.143c0.305-0.339,0.566-0.682,0.813-1.043
			c0.013-0.017,0.024-0.034,0.033-0.049c0.845,0.256,1.622,0.347,2.295,0.347c2.129,0,4.084-0.9,5.506-2.535
			c0.096-0.11,0.19-0.225,0.282-0.343c0.735,0.207,1.487,0.316,2.252,0.374c0.087,0.007,0.176,0.018,0.265,0.016
			c0.084-0.001,0.184-0.002,0.297-0.001c0.005,0,0.01,0,0.01,0c0.91,0,1.81-0.127,2.68-0.353c0.042-0.011,0.087-0.022,0.114-0.031
			c0.975-0.304,1.859-0.672,2.62-1.105c0.553,0.253,1.153,0.487,1.792,0.675c0.983,1.745,2.459,3.149,4.34,4.089
			c1.758,0.88,3.543,1.327,5.304,1.327c3.155,0,5.7-1.4,7.653-3.299c2.389,2.138,4.804,2.65,6.57,2.65
			c0.824,0,1.656-0.112,2.475-0.336c2.256-0.617,4.126-2.008,5.459-4.022c1.71-0.029,3.454-0.65,5.111-1.975
			c3.798-3.043,4.106-8.309,0.931-15.686c2.634,1.051,5.545,1.984,8.521,2.539c-0.888,2.892-0.514,5.181,0.188,6.839
			c1.271,3.007,4.085,5.008,7.624,5.516c1.823,3.12,5.064,4.938,9.115,4.938c3.295,0,6.695-1.18,9.245-2.732
			c2.2,0.818,5.432,1.612,9.693,1.612c5.371,0,11.241-1.24,17.444-3.69c11.31-4.462,16.85-9.535,16.939-15.508
			c0.023-1.523-0.315-3.337-1.482-5.192c0.071-0.04,0.14-0.078,0.202-0.115c0.436-0.254,0.867-0.52,1.279-0.794
			c0.162-0.109,0.322-0.224,0.482-0.342l0.089-0.065c0.247-0.176,0.493-0.355,0.704-0.52c0.229-0.177,0.448-0.359,0.672-0.546
			c0.188-0.157,0.373-0.318,0.568-0.491c0.232-0.208,0.464-0.415,0.688-0.634c0.113-0.11,0.224-0.225,0.334-0.339l0.053-0.058
			c0.488-0.495,0.955-1.025,1.423-1.583c0.072-0.087,0.148-0.173,0.214-0.257c0.245-0.31,0.481-0.63,0.709-0.945
			c0.09-0.125,0.179-0.251,0.249-0.352c0.236-0.343,0.471-0.691,0.666-1.005l0.121-0.202c0.752-1.229,1.361-2.583,1.98-3.956
			c0.007-0.015,0.014-0.03,0.019-0.045c0.006-0.018,0.014-0.034,0.021-0.054c1.146-2.871,1.865-6.048,2.149-9.464
			c3.802-4.052,10.704-12.902,15.509-27.709c6.774-20.884,7.064-45.854,0.861-74.21l-0.148-0.675
			c-0.173-0.777-0.346-1.553-0.527-2.341c-0.252-1.076-0.522-2.16-0.783-3.259c-0.014-0.055-0.027-0.105-0.042-0.158
			c-5.736-20.237-19.124-42.87-28.453-42.87c-2.158,0-4.067,1.032-5.24,2.831c-0.925,1.42-1.599,3.45-0.986,7.394
			c-2.152-0.159-4.165,0.763-5.416,2.483c-1.455,2.003-2.023,4.741-0.674,11.144c-0.773-0.235-1.506-0.354-2.188-0.354
			c-1.752,0-3.361,0.735-4.412,2.016c-1.042,1.271-1.446,2.966-1.111,4.652c0.094,0.47,0.276,0.965,0.514,1.396
			c0.038,0.069,0.077,0.14,0.119,0.209c0.471,0.785,11.559,19.518,15.225,44.978c0.016,0.104,0.033,0.208,0.055,0.313
			c1.197,8.483,1.431,16.767,0.699,24.757c-18.926-26.669-53.109-51.161-68.429-61.381c-0.061-0.044-0.121-0.086-0.184-0.127
			c-0.041-0.027-0.081-0.055-0.12-0.082c8.156-11.87,13.953-25.821,17.028-40.951c6.605,5.599,16.462,12.653,24.168,12.653
			c2.583,0,4.848-0.726,6.729-2.159c2.2-1.676,4.911-5.094,5.323-11.854c0.819-13.44-7.803-38.976-35.805-65.796
			c-0.474-0.454-0.958-0.882-1.434-1.294c-0.177-0.153-0.354-0.298-0.53-0.441l-0.317-0.263c-0.204-0.171-0.407-0.344-0.623-0.512
			c-0.23-0.183-0.462-0.354-0.694-0.527l-0.381-0.286c-0.136-0.103-0.271-0.205-0.407-0.302c-0.362-0.259-0.727-0.502-1.063-0.726
			l-0.093-0.064c-0.111-0.077-0.222-0.15-0.343-0.229c-0.425-0.274-0.854-0.525-1.261-0.771c-0.093-0.056-0.184-0.111-0.261-0.156
			c-0.458-0.264-0.925-0.505-1.401-0.754c-0.047-0.024-0.1-0.053-0.137-0.07c-3.714-1.79-7.391-2.789-11.02-2.789
			c-6.013,0-16.453,2.671-23.207,19.27c-4.752-2.476-10.584-3.762-17.222-3.762c-7.975,0-16.337,1.877-23.544,5.226
			c-3.063-3.378-8.701-7.674-17.548-7.674c-12.074,0-26.131,8.175-41.778,24.299c-0.089,0.091-0.175,0.187-0.255,0.283
			c-0.533,0.643-1.053,1.28-1.557,1.905l-0.222,0.281c-0.434,0.538-0.863,1.077-1.273,1.602l-0.271,0.352
			c-0.393,0.506-0.783,1.012-1.156,1.501l-0.267,0.358c-0.374,0.496-0.745,0.989-1.115,1.492l-0.228,0.316
			c-0.361,0.494-0.718,0.984-1.059,1.464l-0.239,0.34c-0.342,0.484-0.681,0.964-0.99,1.416L22.649,60.1
			c-0.32,0.47-0.638,0.937-0.925,1.371l-0.238,0.36c-0.304,0.462-0.602,0.92-0.892,1.373l-0.21,0.333
			c-0.289,0.451-0.57,0.902-0.858,1.371l-0.19,0.313c-0.27,0.443-0.537,0.886-0.785,1.309l-0.196,0.336
			c-0.255,0.435-0.505,0.868-0.744,1.294l-0.181,0.324c-0.237,0.426-0.472,0.85-0.701,1.275l-0.172,0.327
			c-0.219,0.412-0.433,0.82-0.654,1.251l-0.16,0.319c-0.202,0.399-0.399,0.796-0.593,1.197l-0.161,0.334
			c-0.184,0.39-0.365,0.775-0.551,1.181L14.29,74.7c-0.171,0.38-0.338,0.754-0.505,1.148l-0.135,0.318
			c-0.155,0.368-0.305,0.732-0.45,1.097l-0.144,0.365c-0.137,0.353-0.271,0.7-0.398,1.042l-0.139,0.385
			c-0.12,0.334-0.236,0.665-0.35,1.001l-0.132,0.395c-0.104,0.321-0.207,0.638-0.296,0.933l-0.128,0.427
			c-0.091,0.303-0.175,0.604-0.257,0.898l-0.123,0.46c-0.071,0.279-0.141,0.555-0.213,0.851l-0.104,0.443
			c-0.063,0.276-0.12,0.549-0.166,0.777c-0.036,0.18-0.072,0.357-0.1,0.501c-0.05,0.257-0.094,0.509-0.141,0.785l-0.078,0.49
			c-0.034,0.223-0.063,0.446-0.09,0.651c-0.027,0.201-0.051,0.398-0.072,0.593l-0.06,0.604c-0.019,0.205-0.035,0.412-0.049,0.606
			l-0.027,0.521c-0.011,0.228-0.02,0.452-0.023,0.654c-0.003,0.153-0.005,0.305-0.005,0.434c-0.001,0.255,0.002,0.51,0.009,0.774
			L10.129,92.163z"/>
		<path style="fill:#D4D4D4;" d="M102.118,259.01c-0.898,0.78-1.714,1.584-2.438,2.404c-0.214-0.252-0.431-0.503-0.653-0.753
			c-0.096-2.28-0.147-4.574-0.155-6.876C99.876,255.642,100.959,257.409,102.118,259.01z M9.455,91.427
			c0.012,0.277,0.027,0.552,0.05,0.817l0.02,0.212c0.027,0.304,0.061,0.604,0.101,0.896c0.001,0.01,0.015,0.1,0.015,0.1
			c1.064,7.414,6.24,12.014,13.509,12.016h0.002c2.285,0,4.736-0.462,7.29-1.362c-1.463,15.732,2.453,30.491,11.238,41.543
			c6.464,8.133,18.33,17.685,38.953,19.343c-4.692,15.715-12.066,50.679-4.099,97.894c-5.297,5.947-7.644,13.957-5.487,19.534
			c1.333,3.447,4.261,5.504,7.832,5.504c1.445,0,2.924-0.327,4.456-0.993c1.651,2.103,3.869,3.307,6.363,3.307
			c2.182,0,4.268-0.977,5.876-2.732c0.022-0.023,0.104-0.117,0.126-0.142c0.294-0.347,0.564-0.685,0.813-1.043
			c0.011-0.017,0.023-0.033,0.033-0.049c0.845,0.256,1.62,0.347,2.294,0.347c2.129,0,4.084-0.899,5.506-2.535
			c0.096-0.111,0.19-0.225,0.282-0.342c0.735,0.208,1.487,0.32,2.252,0.374c0.088,0.007,0.177,0.012,0.265,0.014
			c0.084,0.001,0.184,0.002,0.297-0.001h0.012c0.907,0,1.808-0.126,2.678-0.352c0.042-0.01,0.087-0.023,0.115-0.031
			c0.98-0.284,1.859-0.671,2.62-1.106c0.552,0.254,1.152,0.489,1.791,0.677c0.983,1.745,2.458,3.148,4.341,4.088
			c1.758,0.881,3.542,1.326,5.303,1.326c3.155,0,5.7-1.398,7.653-3.298c2.39,2.137,4.803,2.65,6.571,2.65
			c0.823,0,1.657-0.112,2.475-0.336c2.256-0.617,4.124-2.009,5.459-4.023c1.71-0.028,3.452-0.648,5.109-1.975
			c3.799-3.042,4.108-8.307,0.932-15.686c2.635,1.051,5.545,1.984,8.523,2.54c-0.89,2.891-0.516,5.18,0.188,6.838
			c1.27,3.007,4.084,5.01,7.623,5.517c1.822,3.12,5.063,4.937,9.115,4.937c3.294,0,6.695-1.18,9.245-2.732
			c2.198,0.818,5.432,1.612,9.693,1.612c5.371,0,11.24-1.24,17.443-3.689c11.31-4.463,16.851-9.536,16.94-15.508
			c0.021-1.523-0.316-3.337-1.482-5.193c0.071-0.04,0.138-0.077,0.2-0.114c0.437-0.255,0.868-0.52,1.28-0.795
			c0.163-0.108,0.323-0.225,0.482-0.341l0.09-0.065c0.246-0.178,0.491-0.356,0.703-0.521c0.227-0.177,0.449-0.357,0.672-0.544
			c0.188-0.157,0.373-0.318,0.568-0.492c0.234-0.207,0.465-0.415,0.688-0.634c0.113-0.11,0.224-0.225,0.334-0.34l0.053-0.055
			c0.489-0.497,0.958-1.023,1.423-1.583c0.074-0.088,0.147-0.176,0.214-0.26c0.246-0.308,0.482-0.628,0.709-0.944
			c0.09-0.125,0.178-0.25,0.249-0.353c0.236-0.341,0.47-0.689,0.666-1.004l0.121-0.201c0.751-1.23,1.344-2.593,1.979-3.957
			c0.007-0.015,0.013-0.029,0.019-0.044c0.007-0.019,0.014-0.036,0.021-0.054c1.173-2.86,1.865-6.049,2.148-9.466
			c3.803-4.051,10.703-12.901,15.509-27.708c6.774-20.884,7.064-45.855,0.862-74.209l-0.15-0.676
			c-0.172-0.777-0.345-1.552-0.527-2.34c-0.251-1.077-0.502-2.166-0.781-3.26c-0.015-0.054-0.027-0.105-0.042-0.158
			c-5.59-20.277-19.125-42.869-28.454-42.869c-2.158,0-4.067,1.032-5.24,2.83c-0.924,1.419-1.599,3.45-0.985,7.395
			c-2.153-0.159-4.166,0.762-5.416,2.483c-1.457,2.003-2.024,4.74-0.675,11.143c-0.772-0.235-1.507-0.354-2.186-0.354
			c-1.754,0-3.362,0.735-4.412,2.016c-1.042,1.27-1.448,2.967-1.111,4.65c0.094,0.471,0.28,0.964,0.513,1.396
			c0.038,0.071,0.078,0.142,0.12,0.21c0.47,0.785,11.559,19.518,15.223,44.977c0.016,0.105,0.034,0.208,0.057,0.313
			c1.197,8.483,1.43,16.768,0.698,24.757c-18.927-26.668-53.109-51.161-68.428-61.381c-0.061-0.044-0.122-0.087-0.185-0.128
			c-0.04-0.026-0.081-0.053-0.121-0.08c8.158-11.871,13.953-25.822,17.029-40.952c6.606,5.599,16.463,12.653,24.169,12.653
			c2.583,0,4.847-0.725,6.728-2.159c2.201-1.677,4.911-5.095,5.323-11.854c0.819-13.44-7.818-38.962-35.803-65.796
			c-0.475-0.454-0.959-0.884-1.436-1.295c-0.177-0.153-0.355-0.298-0.531-0.441l-0.315-0.262c-0.205-0.172-0.41-0.345-0.624-0.513
			c-0.23-0.181-0.463-0.354-0.692-0.526l-0.382-0.286c-0.136-0.104-0.273-0.206-0.408-0.303c-0.363-0.258-0.726-0.502-1.064-0.726
			l-0.092-0.064c-0.111-0.075-0.222-0.15-0.343-0.229c-0.423-0.275-0.854-0.524-1.261-0.769c-0.093-0.056-0.184-0.112-0.261-0.155
			c-0.46-0.264-0.922-0.508-1.399-0.755c-0.049-0.026-0.103-0.054-0.14-0.071c-3.711-1.79-7.39-2.789-11.02-2.789
			c-6.012,0-16.453,2.672-23.206,19.27c-4.751-2.476-10.583-3.762-17.221-3.762c-7.975,0-16.338,1.878-23.545,5.227
			c-3.064-3.379-8.7-7.673-17.549-7.673c-12.073,0-26.13,8.175-41.778,24.297c-0.088,0.091-0.174,0.187-0.255,0.283
			c-0.534,0.641-1.053,1.281-1.556,1.907l-0.223,0.278c-0.434,0.54-0.861,1.078-1.271,1.603l-0.272,0.351
			c-0.392,0.507-0.784,1.013-1.156,1.502l-0.267,0.358c-0.374,0.496-0.745,0.99-1.114,1.493l-0.229,0.316
			c-0.362,0.493-0.717,0.983-1.06,1.463l-0.239,0.342c-0.341,0.483-0.679,0.963-0.989,1.415l-0.247,0.362
			c-0.32,0.471-0.638,0.938-0.924,1.372l-0.239,0.361c-0.303,0.461-0.603,0.919-0.892,1.372l-0.211,0.333
			c-0.288,0.452-0.569,0.902-0.857,1.371l-0.19,0.313c-0.27,0.443-0.537,0.886-0.786,1.311l-0.195,0.334
			c-0.255,0.436-0.505,0.868-0.743,1.294l-0.182,0.325c-0.238,0.425-0.472,0.85-0.7,1.274l-0.173,0.327
			c-0.219,0.411-0.434,0.821-0.654,1.25l-0.161,0.321c-0.201,0.399-0.398,0.795-0.592,1.196l-0.16,0.336
			c-0.185,0.388-0.367,0.772-0.552,1.179l-0.148,0.331c-0.17,0.379-0.336,0.753-0.504,1.148l-0.135,0.317
			c-0.155,0.369-0.305,0.733-0.45,1.099l-0.144,0.364c-0.138,0.351-0.27,0.699-0.396,1.042l-0.14,0.385
			c-0.119,0.334-0.236,0.663-0.35,1.001l-0.132,0.396c-0.104,0.32-0.206,0.637-0.295,0.93l-0.129,0.429
			c-0.09,0.301-0.176,0.604-0.256,0.897l-0.124,0.461c-0.072,0.278-0.142,0.555-0.214,0.851l-0.101,0.443
			c-0.064,0.275-0.121,0.548-0.168,0.776c-0.036,0.18-0.072,0.357-0.1,0.501c-0.049,0.257-0.094,0.509-0.139,0.785l-0.079,0.49
			c-0.034,0.224-0.064,0.446-0.091,0.652c-0.025,0.199-0.05,0.398-0.072,0.592l-0.059,0.604c-0.017,0.207-0.036,0.413-0.048,0.607
			l-0.028,0.521c-0.011,0.226-0.019,0.451-0.023,0.653c-0.004,0.154-0.005,0.305-0.005,0.435C9.433,90.6,9.435,90.854,9.442,91.12
			L9.455,91.427z"/>
		<path style="fill:#C5C5C5;" d="M101.443,258.275c-0.898,0.78-1.712,1.584-2.438,2.405c-0.214-0.252-0.431-0.503-0.653-0.754
			c-0.097-2.28-0.147-4.575-0.155-6.876C99.201,254.907,100.285,256.674,101.443,258.275z M8.781,90.692
			c0.013,0.276,0.026,0.552,0.05,0.816l0.019,0.213c0.028,0.304,0.061,0.604,0.102,0.896c0.001,0.01,0.013,0.099,0.016,0.108
			c1.063,7.405,6.239,12.005,13.507,12.006h0.002c2.285,0,4.736-0.461,7.29-1.36c-1.462,15.73,2.454,30.49,11.239,41.542
			c6.463,8.132,18.329,17.685,38.951,19.343c-4.691,15.715-12.066,50.679-4.097,97.894c-5.298,5.948-7.644,13.956-5.488,19.534
			c1.333,3.446,4.262,5.504,7.832,5.504c1.446,0,2.925-0.328,4.456-0.992c1.651,2.101,3.87,3.306,6.364,3.306
			c2.181,0,4.271-0.973,5.875-2.731c0.021-0.023,0.104-0.118,0.127-0.143c0.299-0.341,0.568-0.682,0.813-1.043
			c0.012-0.018,0.022-0.033,0.033-0.05c0.844,0.257,1.621,0.347,2.293,0.347c2.13,0,4.085-0.899,5.506-2.533
			c0.097-0.112,0.191-0.226,0.282-0.343c0.737,0.207,1.489,0.319,2.253,0.374c0.087,0.007,0.176,0.012,0.265,0.014
			c0.084,0.001,0.184-0.003,0.296-0.001c0.006,0,0.01,0,0.01,0c0.911,0,1.813-0.118,2.681-0.352
			c0.041-0.011,0.087-0.023,0.115-0.031c0.98-0.284,1.858-0.671,2.62-1.106c0.552,0.254,1.152,0.488,1.79,0.676
			c0.983,1.746,2.459,3.148,4.341,4.09c1.758,0.88,3.543,1.326,5.303,1.326c3.156,0,5.7-1.399,7.654-3.299
			c2.39,2.137,4.803,2.65,6.57,2.65c0.823,0,1.657-0.112,2.476-0.336c2.256-0.617,4.124-2.009,5.458-4.023
			c1.711-0.028,3.454-0.648,5.109-1.974c3.8-3.043,4.108-8.308,0.934-15.687c2.633,1.05,5.544,1.984,8.521,2.539
			c-0.889,2.892-0.515,5.181,0.188,6.839c1.271,3.006,4.085,5.009,7.624,5.516c1.823,3.12,5.062,4.938,9.114,4.938
			c3.296,0,6.696-1.18,9.246-2.732c2.198,0.818,5.431,1.613,9.693,1.613c5.371,0,11.24-1.241,17.443-3.689
			c11.31-4.463,16.85-9.536,16.939-15.509c0.022-1.523-0.316-3.336-1.482-5.193c0.071-0.038,0.139-0.077,0.201-0.113
			c0.438-0.252,0.867-0.52,1.278-0.795c0.163-0.108,0.324-0.225,0.483-0.341l0.089-0.065c0.246-0.176,0.493-0.357,0.703-0.521
			c0.229-0.177,0.45-0.358,0.673-0.544c0.188-0.158,0.373-0.318,0.569-0.493c0.231-0.207,0.463-0.415,0.687-0.634
			c0.112-0.11,0.224-0.225,0.334-0.339l0.053-0.056c0.489-0.496,0.956-1.024,1.423-1.583c0.073-0.088,0.147-0.174,0.214-0.259
			c0.245-0.309,0.48-0.629,0.708-0.944c0.09-0.125,0.181-0.25,0.25-0.352c0.236-0.342,0.47-0.69,0.665-1.005l0.122-0.201
			c0.752-1.229,1.396-2.567,1.98-3.956c0.007-0.016,0.012-0.029,0.018-0.045c0.007-0.017,0.015-0.035,0.021-0.054
			c1.083-2.895,1.865-6.048,2.148-9.464c3.802-4.052,10.703-12.902,15.508-27.709c6.775-20.884,7.066-45.854,0.863-74.21
			l-0.149-0.675c-0.174-0.777-0.345-1.553-0.528-2.34c-0.251-1.077-0.51-2.164-0.782-3.261c-0.013-0.053-0.026-0.105-0.041-0.157
			c-5.807-20.217-19.125-42.869-28.454-42.869c-2.158,0-4.067,1.031-5.24,2.83c-0.925,1.419-1.599,3.45-0.985,7.394
			c-2.154-0.158-4.165,0.763-5.417,2.483c-1.456,2.003-2.023,4.741-0.674,11.143c-0.773-0.234-1.507-0.353-2.187-0.353
			c-1.754,0-3.363,0.734-4.412,2.016c-1.042,1.271-1.447,2.966-1.111,4.65c0.094,0.472,0.281,0.962,0.514,1.396
			c0.036,0.07,0.077,0.141,0.119,0.21c0.471,0.784,11.56,19.518,15.224,44.977c0.015,0.105,0.034,0.21,0.055,0.313
			c1.198,8.485,1.431,16.768,0.699,24.757c-18.927-26.668-53.109-51.16-68.429-61.38c-0.06-0.043-0.122-0.086-0.184-0.128
			c-0.04-0.026-0.081-0.054-0.121-0.08c8.157-11.871,13.953-25.821,17.029-40.951c6.607,5.597,16.462,12.652,24.169,12.652
			c2.582,0,4.847-0.726,6.729-2.159c2.2-1.677,4.909-5.094,5.322-11.854c0.819-13.441-7.804-38.977-35.804-65.796
			c-0.475-0.455-0.958-0.883-1.435-1.295c-0.177-0.153-0.354-0.298-0.531-0.441l-0.316-0.263c-0.204-0.172-0.409-0.343-0.623-0.512
			c-0.232-0.182-0.462-0.354-0.693-0.526l-0.382-0.286c-0.136-0.104-0.273-0.206-0.408-0.303c-0.362-0.257-0.725-0.502-1.063-0.726
			l-0.093-0.064c-0.111-0.075-0.221-0.15-0.343-0.229c-0.425-0.274-0.854-0.525-1.261-0.77c-0.093-0.056-0.185-0.112-0.261-0.156
			c-0.461-0.264-0.924-0.505-1.4-0.754c-0.047-0.024-0.103-0.054-0.139-0.072c-3.682-1.85-7.39-2.788-11.019-2.788
			c-6.012,0-16.452,2.672-23.206,19.27c-4.751-2.476-10.583-3.762-17.221-3.762c-7.976,0-16.338,1.878-23.545,5.226
			c-3.063-3.378-8.7-7.673-17.549-7.673c-12.072,0-26.129,8.175-41.778,24.298c-0.088,0.091-0.174,0.186-0.255,0.283
			c-0.531,0.644-1.052,1.281-1.555,1.906l-0.223,0.279c-0.435,0.54-0.862,1.078-1.272,1.603l-0.271,0.351
			c-0.393,0.507-0.785,1.012-1.157,1.503l-0.267,0.357c-0.374,0.497-0.746,0.99-1.116,1.494l-0.23,0.316
			c-0.36,0.492-0.716,0.983-1.058,1.464l-0.24,0.34c-0.341,0.484-0.68,0.963-0.988,1.415l-0.247,0.364
			c-0.321,0.47-0.638,0.937-0.926,1.371l-0.238,0.361c-0.303,0.46-0.602,0.919-0.891,1.371l-0.212,0.334
			c-0.288,0.451-0.569,0.901-0.857,1.37l-0.19,0.313c-0.27,0.443-0.536,0.887-0.786,1.311l-0.195,0.334
			c-0.254,0.436-0.504,0.87-0.743,1.294l-0.182,0.326c-0.239,0.425-0.472,0.849-0.701,1.274l-0.171,0.326
			c-0.22,0.412-0.434,0.821-0.655,1.252l-0.161,0.319c-0.2,0.4-0.397,0.796-0.593,1.197l-0.159,0.335
			c-0.185,0.389-0.366,0.773-0.551,1.18l-0.149,0.33c-0.169,0.379-0.336,0.753-0.505,1.148l-0.133,0.318
			c-0.156,0.368-0.306,0.732-0.451,1.098l-0.143,0.364c-0.138,0.352-0.271,0.699-0.397,1.042l-0.14,0.385
			c-0.119,0.335-0.235,0.664-0.35,1.001l-0.131,0.396c-0.105,0.32-0.207,0.638-0.296,0.931l-0.129,0.428
			c-0.09,0.302-0.176,0.604-0.256,0.898l-0.124,0.46c-0.072,0.279-0.141,0.555-0.213,0.851l-0.103,0.443
			c-0.064,0.275-0.122,0.549-0.169,0.776c-0.035,0.18-0.07,0.357-0.098,0.501c-0.05,0.256-0.095,0.509-0.14,0.785l-0.079,0.489
			c-0.034,0.225-0.065,0.447-0.091,0.652c-0.026,0.2-0.051,0.398-0.071,0.594l-0.06,0.604c-0.018,0.206-0.035,0.412-0.049,0.606
			l-0.028,0.521c-0.01,0.227-0.018,0.451-0.021,0.652c-0.004,0.154-0.005,0.306-0.005,0.435c-0.001,0.255,0.001,0.509,0.008,0.774
			L8.781,90.692z"/>
		<path style="fill:#B7B7B7;" d="M100.77,257.54c-0.898,0.78-1.713,1.584-2.438,2.406c-0.213-0.252-0.43-0.503-0.652-0.753
			c-0.095-2.281-0.149-4.575-0.155-6.877C98.528,254.174,99.61,255.94,100.77,257.54z M8.106,89.957
			c0.014,0.277,0.028,0.552,0.05,0.818l0.02,0.211c0.027,0.305,0.061,0.604,0.102,0.897c0.001,0.01,0.015,0.099,0.017,0.108
			c1.064,7.405,6.238,12.006,13.507,12.007h0.002c2.284,0,4.736-0.462,7.29-1.361c-1.463,15.73,2.453,30.49,11.238,41.541
			c6.463,8.134,18.329,17.686,38.951,19.344c-4.691,15.715-12.066,50.679-4.097,97.894c-5.296,5.947-7.644,13.956-5.487,19.535
			c1.333,3.445,4.261,5.503,7.832,5.503c1.445,0,2.925-0.327,4.456-0.992c1.65,2.101,3.869,3.306,6.363,3.306
			c2.183,0,4.249-0.992,5.875-2.731c0.021-0.023,0.105-0.118,0.127-0.143c0.301-0.341,0.563-0.684,0.813-1.044
			c0.012-0.016,0.023-0.032,0.034-0.049c0.844,0.258,1.62,0.348,2.295,0.348c2.127,0,4.082-0.901,5.504-2.534
			c0.098-0.112,0.192-0.226,0.282-0.343c0.736,0.207,1.488,0.324,2.254,0.374c0.087,0.006,0.174,0.015,0.264,0.015
			c0.085-0.001,0.184,0.001,0.296-0.001h0.012c0.908,0,1.809-0.127,2.68-0.353c0.042-0.011,0.085-0.022,0.113-0.03
			c0.98-0.284,1.86-0.672,2.62-1.106c0.554,0.254,1.154,0.487,1.793,0.675c0.982,1.746,2.457,3.149,4.338,4.09
			c1.759,0.88,3.543,1.326,5.304,1.326c3.155,0,5.7-1.4,7.655-3.299c2.388,2.138,4.803,2.65,6.569,2.65
			c0.825,0,1.656-0.113,2.475-0.336c2.256-0.616,4.125-2.009,5.46-4.023c1.709-0.028,3.452-0.648,5.109-1.974
			c3.799-3.043,4.107-8.308,0.933-15.686c2.633,1.05,5.544,1.983,8.52,2.539c-0.889,2.893-0.514,5.181,0.188,6.839
			c1.271,3.007,4.085,5.009,7.624,5.515c1.823,3.121,5.064,4.939,9.116,4.939c3.294,0,6.694-1.181,9.244-2.733
			c2.199,0.817,5.431,1.613,9.693,1.613c5.371,0,11.24-1.241,17.445-3.69c11.309-4.463,16.85-9.536,16.938-15.51
			c0.023-1.523-0.316-3.336-1.482-5.191c0.072-0.039,0.139-0.079,0.201-0.115c0.438-0.251,0.871-0.518,1.281-0.794
			c0.162-0.109,0.321-0.226,0.48-0.341l0.091-0.065c0.247-0.176,0.491-0.355,0.702-0.52c0.228-0.178,0.451-0.357,0.674-0.545
			c0.188-0.157,0.371-0.319,0.567-0.493c0.232-0.207,0.464-0.414,0.687-0.633c0.113-0.111,0.226-0.225,0.335-0.34l0.054-0.056
			c0.487-0.496,0.955-1.023,1.422-1.583c0.073-0.088,0.146-0.174,0.215-0.259c0.245-0.307,0.482-0.627,0.709-0.944
			c0.089-0.125,0.178-0.25,0.248-0.352c0.236-0.343,0.47-0.692,0.665-1.006l0.122-0.2c0.751-1.228,1.396-2.569,1.979-3.957
			c0.007-0.016,0.013-0.03,0.019-0.045c0.006-0.018,0.014-0.034,0.023-0.054c1.207-2.846,1.864-6.047,2.147-9.465
			c3.803-4.051,10.703-12.902,15.508-27.708c6.776-20.884,7.065-45.855,0.862-74.21l-0.148-0.675
			c-0.173-0.776-0.345-1.554-0.528-2.34c-0.251-1.078-0.511-2.163-0.782-3.261c-0.014-0.053-0.027-0.105-0.042-0.157
			c-5.806-20.216-19.123-42.869-28.454-42.869c-2.158,0-4.066,1.031-5.238,2.83c-0.927,1.419-1.6,3.45-0.987,7.394
			c-2.153-0.158-4.165,0.763-5.416,2.483c-1.456,2.002-2.023,4.741-0.675,11.144c-0.771-0.235-1.506-0.354-2.187-0.354
			c-1.753,0-3.36,0.734-4.412,2.015c-1.042,1.271-1.447,2.967-1.111,4.651c0.094,0.472,0.282,0.962,0.515,1.396
			c0.037,0.069,0.077,0.141,0.118,0.21c0.47,0.785,11.56,19.519,15.224,44.976c0.016,0.106,0.034,0.211,0.057,0.313
			c1.196,8.485,1.429,16.769,0.699,24.758c-18.928-26.67-53.111-51.162-68.429-61.382c-0.061-0.043-0.123-0.086-0.184-0.127
			c-0.042-0.028-0.082-0.054-0.122-0.081c8.157-11.871,13.953-25.82,17.029-40.95c6.605,5.597,16.461,12.651,24.168,12.651
			c2.584,0,4.848-0.725,6.73-2.157c2.199-1.677,4.911-5.095,5.322-11.854c0.819-13.44-7.816-38.963-35.804-65.797
			c-0.474-0.453-0.96-0.882-1.436-1.294c-0.176-0.153-0.353-0.298-0.53-0.441l-0.316-0.264c-0.205-0.17-0.409-0.343-0.623-0.512
			c-0.232-0.181-0.463-0.354-0.694-0.525l-0.381-0.287c-0.136-0.102-0.274-0.205-0.408-0.301c-0.362-0.257-0.725-0.502-1.064-0.726
			l-0.093-0.064c-0.109-0.076-0.221-0.152-0.341-0.229c-0.427-0.274-0.855-0.524-1.262-0.77c-0.092-0.056-0.184-0.112-0.26-0.156
			c-0.461-0.264-0.924-0.509-1.402-0.755c-0.047-0.024-0.101-0.053-0.138-0.072c-3.675-1.864-7.389-2.786-11.02-2.786
			c-6.013,0-16.453,2.671-23.206,19.269c-4.752-2.476-10.584-3.762-17.222-3.762c-7.975,0-16.337,1.877-23.544,5.225
			c-3.063-3.378-8.7-7.673-17.549-7.673c-12.073,0-26.181,8.127-41.778,24.3c-0.088,0.091-0.174,0.186-0.254,0.282
			c-0.535,0.641-1.054,1.28-1.556,1.905l-0.224,0.28c-0.434,0.54-0.862,1.078-1.273,1.604l-0.27,0.35
			c-0.394,0.506-0.783,1.012-1.156,1.503l-0.268,0.357c-0.373,0.495-0.744,0.989-1.116,1.493l-0.229,0.316
			c-0.36,0.493-0.717,0.983-1.058,1.463l-0.24,0.341c-0.341,0.483-0.679,0.963-0.989,1.415l-0.247,0.364
			c-0.321,0.47-0.638,0.936-0.926,1.371l-0.236,0.361c-0.305,0.46-0.603,0.919-0.893,1.371l-0.21,0.333
			c-0.289,0.453-0.57,0.902-0.858,1.372l-0.191,0.313c-0.271,0.443-0.537,0.887-0.785,1.311l-0.196,0.334
			c-0.255,0.437-0.505,0.869-0.744,1.294l-0.182,0.325c-0.237,0.427-0.471,0.85-0.7,1.275l-0.172,0.326
			c-0.219,0.412-0.433,0.821-0.654,1.252l-0.161,0.32c-0.201,0.399-0.398,0.796-0.593,1.195l-0.159,0.336
			c-0.186,0.388-0.366,0.774-0.552,1.18l-0.148,0.33c-0.171,0.378-0.338,0.754-0.506,1.148l-0.133,0.317
			c-0.155,0.369-0.306,0.734-0.452,1.099l-0.143,0.365c-0.138,0.352-0.269,0.698-0.397,1.042l-0.139,0.384
			c-0.12,0.335-0.236,0.664-0.349,1.002l-0.133,0.395c-0.104,0.319-0.207,0.638-0.296,0.932l-0.129,0.426
			c-0.089,0.304-0.175,0.604-0.256,0.9l-0.123,0.458c-0.071,0.28-0.142,0.557-0.214,0.853L8.896,82.26
			c-0.063,0.274-0.12,0.548-0.167,0.777c-0.037,0.178-0.072,0.355-0.1,0.5c-0.05,0.257-0.093,0.51-0.14,0.784l-0.078,0.49
			c-0.034,0.224-0.064,0.447-0.091,0.652c-0.027,0.2-0.051,0.397-0.072,0.593l-0.059,0.604c-0.018,0.206-0.036,0.411-0.049,0.606
			l-0.028,0.521c-0.01,0.228-0.019,0.451-0.022,0.653c-0.003,0.155-0.005,0.306-0.005,0.436c0,0.255,0.002,0.509,0.009,0.773
			L8.106,89.957z"/>
		<path style="fill:#A8A8A8;" d="M100.095,256.805c-0.897,0.781-1.713,1.584-2.438,2.406c-0.213-0.252-0.43-0.503-0.652-0.753
			c-0.095-2.281-0.147-4.575-0.155-6.876C97.854,253.438,98.937,255.204,100.095,256.805z M7.433,89.223
			C7.444,89.5,7.46,89.773,7.482,90.04l0.02,0.211c0.027,0.305,0.061,0.604,0.101,0.898c0.001,0.009,0.015,0.099,0.017,0.107
			c1.062,7.406,6.238,12.006,13.507,12.007h0.002c2.285,0,4.736-0.461,7.29-1.361c-1.463,15.731,2.453,30.49,11.238,41.541
			c6.464,8.134,18.33,17.686,38.952,19.344c-4.691,15.715-12.066,50.679-4.098,97.895c-5.297,5.946-7.644,13.955-5.487,19.534
			c1.333,3.446,4.261,5.504,7.832,5.504c1.445,0,2.925-0.328,4.456-0.993c1.651,2.102,3.869,3.306,6.363,3.306
			c2.182,0,4.249-0.992,5.875-2.732c0.023-0.022,0.105-0.117,0.127-0.142c0.301-0.341,0.568-0.681,0.813-1.044
			c0.011-0.017,0.022-0.032,0.034-0.049c0.843,0.258,1.619,0.348,2.293,0.348c2.129,0,4.084-0.9,5.506-2.534
			c0.097-0.111,0.192-0.226,0.282-0.343c0.735,0.207,1.488,0.319,2.252,0.373c0.088,0.007,0.176,0.017,0.265,0.016
			c0.084-0.001,0.184-0.003,0.297-0.001c0.004,0,0.009,0,0.009,0c0.91,0,1.81-0.127,2.681-0.353c0.042-0.011,0.087-0.022,0.115-0.03
			c0.98-0.285,1.859-0.673,2.62-1.106c0.552,0.254,1.153,0.487,1.791,0.675c0.983,1.746,2.458,3.149,4.34,4.09
			c1.758,0.879,3.542,1.326,5.304,1.326c3.155,0,5.699-1.4,7.653-3.298c2.39,2.137,4.803,2.65,6.57,2.65
			c0.824,0,1.657-0.114,2.476-0.337c2.255-0.616,4.124-2.009,5.459-4.023c1.71-0.028,3.453-0.65,5.109-1.975
			c3.799-3.042,4.107-8.308,0.933-15.686c2.633,1.051,5.544,1.983,8.52,2.539c-0.889,2.892-0.515,5.182,0.188,6.839
			c1.271,3.007,4.084,5.009,7.623,5.515c1.824,3.122,5.063,4.939,9.116,4.939c3.294,0,6.695-1.181,9.245-2.733
			c2.198,0.818,5.431,1.613,9.693,1.613c5.371,0,11.24-1.24,17.443-3.69c11.31-4.461,16.852-9.535,16.938-15.509
			c0.023-1.523-0.316-3.336-1.481-5.191c0.071-0.039,0.138-0.079,0.2-0.115c0.438-0.251,0.87-0.519,1.28-0.793
			c0.164-0.11,0.323-0.226,0.482-0.342l0.09-0.065c0.247-0.177,0.491-0.356,0.703-0.52c0.227-0.177,0.449-0.359,0.672-0.546
			c0.189-0.157,0.372-0.318,0.568-0.492c0.232-0.207,0.464-0.414,0.688-0.633c0.112-0.111,0.224-0.225,0.334-0.339l0.054-0.058
			c0.488-0.495,0.955-1.023,1.422-1.581c0.073-0.088,0.147-0.175,0.215-0.259c0.246-0.308,0.482-0.627,0.709-0.944
			c0.089-0.125,0.178-0.25,0.248-0.353c0.237-0.342,0.47-0.691,0.665-1.005l0.122-0.202c0.751-1.227,1.396-2.568,1.98-3.956
			c0.007-0.015,0.013-0.03,0.019-0.045c0.007-0.018,0.014-0.034,0.021-0.054c1.145-2.871,1.865-6.047,2.148-9.465
			c3.803-4.051,10.703-12.901,15.508-27.707c6.776-20.885,7.066-45.855,0.863-74.211l-0.15-0.675
			c-0.172-0.776-0.345-1.554-0.527-2.34c-0.251-1.077-0.511-2.163-0.782-3.26c-0.014-0.054-0.026-0.105-0.042-0.157
			c-5.806-20.218-19.124-42.87-28.454-42.87c-2.157,0-4.066,1.031-5.239,2.831c-0.925,1.419-1.599,3.449-0.985,7.394
			c-2.153-0.158-4.166,0.762-5.417,2.482c-1.456,2.002-2.023,4.742-0.675,11.144c-0.771-0.235-1.506-0.354-2.186-0.354
			c-1.754,0-3.362,0.735-4.413,2.016c-1.042,1.271-1.447,2.967-1.11,4.651c0.094,0.472,0.282,0.963,0.514,1.396
			c0.037,0.07,0.077,0.141,0.119,0.21c0.47,0.785,11.559,19.518,15.223,44.978c0.016,0.104,0.034,0.209,0.057,0.313
			c1.197,8.484,1.429,16.768,0.7,24.757c-18.929-26.67-53.111-51.161-68.43-61.381c-0.06-0.044-0.123-0.086-0.184-0.127
			c-0.041-0.027-0.082-0.055-0.122-0.082c8.157-11.87,13.953-25.82,17.029-40.95c6.607,5.597,16.462,12.652,24.169,12.652
			c2.583,0,4.847-0.726,6.729-2.158c2.2-1.677,4.91-5.095,5.322-11.854c0.819-13.441-7.816-38.963-35.804-65.797
			c-0.473-0.453-0.96-0.882-1.436-1.294c-0.176-0.153-0.353-0.297-0.53-0.441l-0.316-0.264c-0.204-0.17-0.409-0.343-0.623-0.511
			c-0.231-0.182-0.462-0.354-0.693-0.527l-0.382-0.286c-0.136-0.102-0.273-0.205-0.407-0.301c-0.363-0.257-0.725-0.502-1.063-0.726
			l-0.094-0.064c-0.109-0.076-0.221-0.15-0.342-0.229c-0.425-0.274-0.855-0.523-1.261-0.769c-0.092-0.056-0.185-0.113-0.261-0.157
			c-0.458-0.267-0.922-0.508-1.4-0.755c-0.048-0.024-0.102-0.053-0.139-0.071c-3.674-1.864-7.389-2.787-11.02-2.787
			c-6.012,0-16.453,2.671-23.206,19.27c-4.751-2.477-10.584-3.763-17.221-3.763c-7.976,0-16.338,1.877-23.545,5.225
			c-3.064-3.378-8.7-7.673-17.549-7.673c-12.073,0-26.13,8.175-41.778,24.3c-0.088,0.091-0.173,0.184-0.255,0.282
			c-0.537,0.64-1.053,1.28-1.556,1.905l-0.223,0.281c-0.434,0.54-0.861,1.077-1.271,1.603l-0.271,0.35
			c-0.393,0.506-0.784,1.012-1.156,1.502l-0.268,0.357c-0.374,0.495-0.745,0.99-1.115,1.494l-0.229,0.316
			c-0.36,0.492-0.716,0.982-1.058,1.462l-0.24,0.341c-0.341,0.483-0.678,0.963-0.989,1.416l-0.247,0.363
			c-0.321,0.47-0.638,0.936-0.925,1.372l-0.238,0.359c-0.303,0.462-0.602,0.92-0.892,1.372l-0.21,0.333
			c-0.289,0.453-0.57,0.903-0.858,1.372l-0.19,0.313c-0.27,0.442-0.537,0.886-0.785,1.31l-0.196,0.335
			c-0.255,0.435-0.505,0.868-0.743,1.294l-0.182,0.325c-0.238,0.426-0.471,0.849-0.7,1.274l-0.173,0.327
			c-0.219,0.412-0.434,0.821-0.654,1.251l-0.161,0.32c-0.201,0.399-0.398,0.796-0.592,1.195l-0.16,0.336
			c-0.184,0.389-0.367,0.774-0.552,1.18l-0.149,0.33c-0.17,0.38-0.336,0.754-0.505,1.148l-0.134,0.317
			c-0.154,0.37-0.305,0.733-0.45,1.099l-0.144,0.364c-0.138,0.353-0.268,0.7-0.396,1.042l-0.14,0.385
			c-0.119,0.335-0.235,0.665-0.35,1.002l-0.132,0.395c-0.104,0.319-0.206,0.638-0.295,0.932l-0.129,0.427
			c-0.09,0.303-0.176,0.604-0.256,0.899l-0.123,0.459c-0.073,0.28-0.143,0.555-0.214,0.853l-0.102,0.442
			c-0.064,0.275-0.12,0.548-0.168,0.777c-0.037,0.178-0.072,0.357-0.1,0.5c-0.049,0.257-0.094,0.51-0.139,0.784l-0.079,0.491
			c-0.034,0.224-0.064,0.446-0.091,0.651c-0.026,0.201-0.05,0.397-0.072,0.593l-0.059,0.604c-0.018,0.207-0.036,0.411-0.048,0.607
			l-0.028,0.52c-0.011,0.228-0.019,0.451-0.023,0.654c-0.003,0.153-0.005,0.305-0.005,0.434c-0.001,0.256,0.002,0.51,0.009,0.774
			L7.433,89.223z"/>
		<path style="fill:#9A9A9A;" d="M99.421,256.071c-0.898,0.78-1.712,1.583-2.438,2.404c-0.215-0.252-0.432-0.503-0.654-0.753
			c-0.095-2.28-0.147-4.575-0.155-6.876C97.18,252.703,98.262,254.47,99.421,256.071z M6.758,88.488
			c0.013,0.276,0.027,0.551,0.05,0.816l0.019,0.212c0.027,0.305,0.061,0.604,0.102,0.897c0.001,0.01,0.015,0.099,0.016,0.108
			c1.064,7.405,6.239,12.005,13.507,12.006h0.002c2.285,0,4.736-0.461,7.291-1.361c-1.463,15.731,2.453,30.491,11.238,41.543
			c6.463,8.132,18.329,17.685,38.951,19.343c-4.69,15.714-12.066,50.679-4.097,97.893c-5.297,5.947-7.644,13.956-5.487,19.534
			c1.332,3.446,4.261,5.504,7.832,5.504c1.445,0,2.924-0.328,4.455-0.993c1.651,2.102,3.87,3.307,6.364,3.307
			c2.182,0,4.248-0.993,5.875-2.731c0.022-0.023,0.105-0.118,0.127-0.143c0.297-0.344,0.568-0.682,0.813-1.043
			c0.012-0.018,0.022-0.033,0.034-0.05c0.843,0.257,1.62,0.347,2.293,0.347c2.129,0,4.084-0.899,5.506-2.533
			c0.097-0.112,0.192-0.226,0.283-0.344c0.735,0.208,1.488,0.32,2.252,0.375c0.087,0.006,0.175,0.012,0.264,0.014
			c0.086,0.001,0.184,0.002,0.298-0.001h0.012c0.907,0,1.809-0.118,2.678-0.352c0.041-0.011,0.086-0.023,0.114-0.031
			c0.98-0.284,1.86-0.671,2.62-1.106c0.554,0.254,1.154,0.488,1.791,0.676c0.983,1.746,2.459,3.148,4.34,4.089
			c1.758,0.881,3.543,1.326,5.305,1.326c3.154,0,5.698-1.398,7.653-3.298c2.389,2.137,4.802,2.65,6.57,2.65
			c0.823,0,1.656-0.113,2.475-0.336c2.257-0.617,4.124-2.009,5.459-4.023c1.71-0.028,3.453-0.648,5.109-1.975
			c3.799-3.042,4.108-8.307,0.934-15.686c2.633,1.05,5.543,1.983,8.52,2.539c-0.889,2.892-0.514,5.181,0.188,6.839
			c1.271,3.006,4.085,5.009,7.624,5.516c1.824,3.12,5.063,4.938,9.115,4.938c3.296,0,6.696-1.18,9.245-2.732
			c2.199,0.818,5.431,1.613,9.693,1.613c5.371,0,11.24-1.241,17.444-3.689c11.31-4.463,16.851-9.536,16.938-15.509
			c0.023-1.523-0.316-3.337-1.481-5.193c0.072-0.039,0.139-0.077,0.201-0.113c0.438-0.252,0.868-0.52,1.28-0.795
			c0.163-0.109,0.322-0.225,0.481-0.341l0.09-0.065c0.246-0.177,0.492-0.357,0.704-0.52c0.227-0.176,0.449-0.357,0.672-0.544
			c0.189-0.158,0.372-0.318,0.568-0.493c0.231-0.207,0.463-0.415,0.686-0.634c0.112-0.11,0.225-0.225,0.334-0.339l0.054-0.056
			c0.488-0.497,0.957-1.024,1.424-1.583c0.072-0.087,0.145-0.175,0.214-0.259c0.245-0.307,0.481-0.627,0.708-0.944
			c0.089-0.125,0.178-0.25,0.248-0.352c0.237-0.342,0.471-0.69,0.665-1.005l0.123-0.201c0.751-1.229,1.435-2.553,1.98-3.956
			c0.006-0.016,0.011-0.029,0.017-0.045c0.007-0.017,0.015-0.035,0.022-0.054c1.145-2.871,1.864-6.048,2.148-9.465
			c3.803-4.051,10.703-12.901,15.507-27.708c6.777-20.885,7.066-45.854,0.863-74.21l-0.149-0.675
			c-0.172-0.777-0.344-1.553-0.527-2.34c-0.251-1.077-0.511-2.164-0.783-3.261c-0.013-0.053-0.026-0.105-0.041-0.157
			c-5.807-20.217-19.124-42.869-28.454-42.869c-2.158,0-4.065,1.031-5.239,2.83c-0.926,1.419-1.599,3.45-0.986,7.394
			c-2.152-0.158-4.165,0.763-5.417,2.483c-1.454,2.003-2.022,4.741-0.674,11.143c-0.771-0.234-1.506-0.354-2.187-0.354
			c-1.752,0-3.361,0.735-4.412,2.017c-1.042,1.269-1.447,2.966-1.111,4.65c0.094,0.471,0.281,0.963,0.515,1.396
			c0.037,0.07,0.076,0.141,0.118,0.209c0.471,0.786,11.56,19.519,15.224,44.978c0.015,0.105,0.034,0.209,0.056,0.313
			c1.197,8.484,1.43,16.768,0.7,24.757c-18.929-26.668-53.111-51.161-68.43-61.38c-0.06-0.044-0.122-0.087-0.184-0.128
			c-0.041-0.027-0.081-0.054-0.121-0.08c8.156-11.871,13.954-25.822,17.028-40.951c6.606,5.597,16.462,12.652,24.169,12.652
			c2.583,0,4.847-0.726,6.729-2.159c2.199-1.677,4.91-5.094,5.321-11.854c0.819-13.441-7.815-38.962-35.803-65.797
			c-0.474-0.453-0.958-0.883-1.436-1.295c-0.177-0.152-0.354-0.297-0.531-0.441l-0.316-0.262c-0.204-0.172-0.409-0.343-0.623-0.512
			c-0.23-0.182-0.462-0.354-0.693-0.526l-0.381-0.286c-0.136-0.103-0.272-0.207-0.407-0.303c-0.361-0.26-0.726-0.502-1.064-0.726
			l-0.093-0.064c-0.11-0.075-0.221-0.15-0.342-0.229c-0.426-0.274-0.854-0.524-1.261-0.769c-0.093-0.056-0.186-0.113-0.261-0.156
			c-0.46-0.264-0.925-0.505-1.401-0.754c-0.047-0.025-0.101-0.055-0.138-0.072c-3.701-1.81-7.389-2.788-11.02-2.788
			c-6.013,0-16.453,2.672-23.206,19.27c-4.752-2.476-10.584-3.762-17.221-3.762c-7.976,0-16.339,1.878-23.545,5.226
			c-3.064-3.378-8.701-7.673-17.55-7.673c-12.072,0-26.129,8.175-41.778,24.298c-0.088,0.091-0.173,0.186-0.254,0.283
			c-0.536,0.641-1.053,1.281-1.556,1.906l-0.223,0.279c-0.434,0.54-0.862,1.078-1.272,1.603l-0.271,0.351
			c-0.394,0.507-0.784,1.012-1.157,1.502l-0.267,0.357c-0.374,0.496-0.746,0.99-1.116,1.494l-0.229,0.316
			c-0.36,0.492-0.716,0.983-1.058,1.463l-0.24,0.341c-0.341,0.483-0.678,0.963-0.988,1.415l-0.247,0.363
			c-0.321,0.47-0.638,0.938-0.926,1.372l-0.238,0.36c-0.303,0.461-0.602,0.919-0.891,1.372l-0.212,0.333
			c-0.287,0.452-0.569,0.902-0.857,1.371l-0.19,0.313c-0.271,0.443-0.537,0.887-0.787,1.311l-0.193,0.334
			c-0.256,0.436-0.506,0.87-0.745,1.294l-0.182,0.326c-0.237,0.425-0.47,0.849-0.699,1.273l-0.173,0.327
			c-0.219,0.412-0.435,0.821-0.655,1.251l-0.161,0.32c-0.2,0.4-0.398,0.796-0.591,1.196l-0.161,0.336
			c-0.184,0.388-0.366,0.773-0.551,1.179l-0.149,0.331c-0.169,0.379-0.336,0.753-0.505,1.148l-0.133,0.318
			c-0.154,0.368-0.306,0.732-0.451,1.098l-0.144,0.364c-0.136,0.352-0.269,0.699-0.396,1.042l-0.14,0.385
			c-0.119,0.334-0.235,0.664-0.35,1.001l-0.131,0.396c-0.106,0.32-0.207,0.638-0.296,0.931l-0.129,0.428
			c-0.09,0.302-0.174,0.603-0.256,0.898l-0.124,0.46c-0.072,0.279-0.141,0.555-0.213,0.852L7.548,80.79
			c-0.063,0.275-0.12,0.548-0.167,0.776c-0.035,0.179-0.072,0.357-0.1,0.501c-0.05,0.256-0.094,0.509-0.14,0.784l-0.079,0.49
			c-0.033,0.225-0.063,0.447-0.091,0.652c-0.026,0.2-0.049,0.398-0.071,0.593L6.842,85.19c-0.019,0.207-0.036,0.412-0.048,0.607
			l-0.029,0.521c-0.011,0.226-0.018,0.45-0.023,0.652c-0.004,0.154-0.005,0.306-0.005,0.435c-0.001,0.255,0.001,0.509,0.009,0.774
			L6.758,88.488z"/>
		<path style="fill:#8B8B8B;" d="M98.746,255.336c-0.897,0.78-1.713,1.584-2.438,2.405c-0.212-0.252-0.43-0.503-0.652-0.753
			c-0.095-2.281-0.147-4.576-0.155-6.877C96.506,251.969,97.588,253.736,98.746,255.336z M6.084,87.753
			c0.012,0.276,0.028,0.552,0.049,0.816l0.02,0.213c0.026,0.304,0.061,0.603,0.101,0.896c0.002,0.01,0.015,0.099,0.017,0.108
			c1.063,7.405,6.238,12.006,13.506,12.007h0.002c2.284,0,4.736-0.462,7.291-1.361c-1.464,15.73,2.452,30.49,11.237,41.542
			c6.464,8.132,18.329,17.685,38.951,19.343c-4.69,15.715-12.065,50.679-4.097,97.894c-5.297,5.948-7.643,13.956-5.487,19.534
			c1.334,3.446,4.261,5.504,7.832,5.504c1.445,0,2.924-0.327,4.456-0.992c1.651,2.101,3.869,3.306,6.363,3.306
			c2.183,0,4.287-0.959,5.876-2.732c0.021-0.023,0.104-0.118,0.126-0.143c0.302-0.341,0.562-0.684,0.813-1.043
			c0.013-0.017,0.024-0.033,0.034-0.049c0.845,0.256,1.62,0.347,2.295,0.347c2.127,0,4.082-0.9,5.505-2.534
			c0.097-0.112,0.191-0.225,0.282-0.343c0.736,0.207,1.487,0.32,2.253,0.374c0.087,0.007,0.175,0.012,0.264,0.014
			c0.085,0.001,0.184,0.002,0.297-0.001h0.011c0.909,0,1.811-0.118,2.68-0.352c0.042-0.012,0.085-0.023,0.113-0.031
			c0.98-0.284,1.861-0.672,2.621-1.107c0.553,0.254,1.153,0.488,1.792,0.676c0.983,1.745,2.457,3.148,4.339,4.089
			c1.758,0.88,3.543,1.326,5.304,1.326c3.154,0,5.7-1.399,7.654-3.299c2.388,2.137,4.802,2.65,6.569,2.65
			c0.825,0,1.656-0.112,2.476-0.336c2.255-0.617,4.124-2.009,5.46-4.023c1.709-0.028,3.451-0.648,5.109-1.974
			c3.797-3.043,4.106-8.308,0.932-15.686c2.633,1.049,5.544,1.983,8.52,2.539c-0.888,2.892-0.514,5.18,0.188,6.839
			c1.271,3.005,4.085,5.008,7.624,5.515c1.823,3.12,5.064,4.938,9.116,4.938c3.294,0,6.694-1.18,9.245-2.732
			c2.198,0.818,5.432,1.613,9.693,1.613c5.37,0,11.24-1.241,17.444-3.689c11.309-4.464,16.85-9.537,16.938-15.51
			c0.022-1.523-0.315-3.336-1.481-5.193c0.071-0.038,0.138-0.077,0.2-0.113c0.438-0.252,0.87-0.52,1.281-0.795
			c0.162-0.108,0.322-0.225,0.48-0.341l0.092-0.065c0.246-0.176,0.49-0.356,0.702-0.52c0.227-0.177,0.449-0.358,0.673-0.545
			c0.188-0.157,0.372-0.318,0.567-0.493c0.233-0.207,0.463-0.414,0.688-0.634c0.113-0.109,0.225-0.224,0.334-0.339l0.054-0.056
			c0.488-0.496,0.956-1.025,1.422-1.583c0.073-0.088,0.146-0.174,0.215-0.259c0.245-0.307,0.482-0.627,0.709-0.944
			c0.089-0.125,0.177-0.25,0.248-0.353c0.236-0.342,0.471-0.69,0.666-1.005l0.121-0.199c0.751-1.23,1.361-2.585,1.98-3.958
			c0.007-0.016,0.013-0.029,0.019-0.044c0.006-0.018,0.014-0.036,0.022-0.055c1.207-2.846,1.864-6.048,2.147-9.464
			c3.803-4.052,10.703-12.902,15.509-27.709c6.775-20.884,7.064-45.854,0.861-74.21l-0.149-0.675
			c-0.171-0.777-0.344-1.553-0.527-2.34c-0.251-1.077-0.511-2.164-0.782-3.261c-0.014-0.053-0.027-0.104-0.042-0.157
			c-5.806-20.216-19.123-42.869-28.453-42.869c-2.159,0-4.067,1.031-5.239,2.83c-0.926,1.419-1.6,3.45-0.987,7.394
			c-2.152-0.158-4.165,0.763-5.416,2.483c-1.455,2.003-2.023,4.741-0.674,11.144c-0.771-0.235-1.507-0.353-2.188-0.353
			c-1.752,0-3.36,0.734-4.412,2.016c-1.042,1.271-1.447,2.966-1.111,4.651c0.094,0.471,0.281,0.962,0.515,1.396
			c0.038,0.07,0.077,0.141,0.118,0.21c0.471,0.785,11.445,19.536,15.224,44.977c0.016,0.105,0.034,0.21,0.057,0.313
			c1.196,8.485,1.43,16.769,0.699,24.757c-18.928-26.668-53.11-51.16-68.429-61.38c-0.061-0.043-0.123-0.087-0.184-0.128
			c-0.041-0.027-0.082-0.054-0.121-0.08c8.156-11.871,13.953-25.821,17.028-40.951c6.606,5.598,16.462,12.652,24.169,12.652
			c2.583,0,4.847-0.726,6.729-2.159c2.2-1.676,4.911-5.094,5.322-11.854c0.819-13.439-7.83-38.948-35.804-65.796
			c-0.473-0.454-0.959-0.883-1.435-1.295c-0.177-0.153-0.355-0.298-0.531-0.441l-0.316-0.263c-0.205-0.172-0.409-0.344-0.622-0.512
			c-0.232-0.183-0.464-0.354-0.694-0.525l-0.382-0.287c-0.136-0.103-0.271-0.206-0.406-0.303c-0.363-0.258-0.727-0.502-1.066-0.726
			l-0.092-0.065c-0.11-0.075-0.222-0.15-0.342-0.228c-0.425-0.276-0.854-0.523-1.262-0.769c-0.092-0.056-0.184-0.112-0.26-0.156
			c-0.459-0.266-0.926-0.505-1.401-0.754c-0.048-0.024-0.101-0.054-0.139-0.072c-3.702-1.81-7.389-2.788-11.018-2.788
			c-6.014,0-16.454,2.672-23.207,19.27c-4.752-2.476-10.584-3.762-17.222-3.762c-7.975,0-16.337,1.878-23.544,5.226
			c-3.064-3.378-8.7-7.673-17.549-7.673c-12.072,0-26.13,8.176-41.778,24.298c-0.088,0.091-0.174,0.185-0.255,0.283
			c-0.535,0.641-1.053,1.281-1.555,1.906l-0.224,0.279c-0.434,0.54-0.862,1.078-1.272,1.603l-0.27,0.351
			c-0.394,0.507-0.785,1.012-1.157,1.503l-0.267,0.356c-0.373,0.497-0.744,0.99-1.116,1.494l-0.229,0.316
			c-0.36,0.492-0.716,0.983-1.059,1.464l-0.239,0.34c-0.341,0.484-0.679,0.963-0.989,1.415l-0.247,0.364
			c-0.321,0.47-0.638,0.937-0.926,1.371l-0.236,0.362c-0.304,0.459-0.603,0.918-0.893,1.37l-0.21,0.334
			c-0.288,0.451-0.57,0.901-0.858,1.37l-0.19,0.313c-0.271,0.443-0.536,0.887-0.785,1.311l-0.196,0.334
			c-0.255,0.437-0.505,0.87-0.742,1.294l-0.184,0.326c-0.237,0.426-0.471,0.85-0.7,1.274l-0.171,0.326
			c-0.22,0.412-0.435,0.821-0.654,1.252l-0.162,0.32c-0.201,0.399-0.399,0.795-0.592,1.196l-0.16,0.336
			c-0.185,0.388-0.367,0.773-0.552,1.179l-0.148,0.33c-0.17,0.379-0.337,0.753-0.505,1.148l-0.133,0.318
			c-0.155,0.368-0.305,0.734-0.451,1.098l-0.143,0.365c-0.138,0.35-0.27,0.698-0.397,1.042l-0.14,0.384
			c-0.118,0.335-0.235,0.664-0.349,1.002l-0.133,0.395c-0.105,0.32-0.206,0.638-0.296,0.932l-0.129,0.427
			c-0.089,0.302-0.175,0.604-0.254,0.899L7.189,78.76c-0.072,0.279-0.142,0.555-0.214,0.852l-0.102,0.443
			c-0.063,0.275-0.121,0.549-0.167,0.776c-0.037,0.18-0.071,0.357-0.1,0.502c-0.05,0.255-0.094,0.508-0.139,0.784l-0.079,0.489
			c-0.033,0.225-0.064,0.447-0.091,0.653c-0.025,0.199-0.051,0.398-0.072,0.593l-0.058,0.604c-0.019,0.206-0.037,0.412-0.05,0.606
			l-0.027,0.521c-0.011,0.227-0.018,0.451-0.023,0.652c-0.004,0.155-0.005,0.307-0.005,0.435c-0.001,0.255,0.001,0.509,0.009,0.774
			L6.084,87.753z"/>
		<path style="fill:#7D7D7D;" d="M98.072,254.6c-0.898,0.78-1.714,1.584-2.439,2.405c-0.213-0.251-0.43-0.502-0.652-0.752
			c-0.097-2.281-0.148-4.576-0.155-6.876C95.831,251.233,96.913,253,98.072,254.6z M5.409,87.019
			c0.013,0.277,0.028,0.551,0.05,0.816l0.02,0.212c0.027,0.304,0.06,0.604,0.101,0.897c0,0.009,0.015,0.098,0.016,0.107
			c1.063,7.406,6.239,12.006,13.508,12.008h0.002c2.285,0,4.735-0.463,7.289-1.362c-1.461,15.732,2.454,30.491,11.238,41.543
			c6.465,8.133,18.331,17.684,38.953,19.344c-4.692,15.714-12.066,50.679-4.099,97.892c-5.296,5.949-7.642,13.956-5.487,19.536
			c1.334,3.445,4.262,5.502,7.832,5.502c1.446,0,2.926-0.327,4.457-0.992c1.651,2.102,3.87,3.306,6.363,3.306
			c2.182,0,4.285-0.96,5.875-2.729c0.022-0.025,0.105-0.12,0.126-0.145c0.298-0.344,0.569-0.681,0.813-1.043
			c0.011-0.017,0.023-0.032,0.034-0.048c0.843,0.256,1.619,0.346,2.294,0.346c2.128,0,4.09-0.894,5.506-2.534
			c0.096-0.111,0.191-0.225,0.282-0.343c0.735,0.207,1.487,0.32,2.251,0.374c0.089,0.007,0.177,0.014,0.266,0.016
			c0.084,0.002,0.183,0.001,0.297-0.001h0.011c0.908,0,1.809-0.119,2.678-0.353c0.042-0.012,0.088-0.022,0.115-0.031
			c0.98-0.29,1.86-0.673,2.621-1.107c0.552,0.254,1.151,0.487,1.791,0.675c0.983,1.746,2.458,3.15,4.34,4.09
			c1.757,0.88,3.542,1.327,5.304,1.327c3.154,0,5.699-1.4,7.653-3.3c2.39,2.139,4.803,2.65,6.57,2.65
			c0.823,0,1.657-0.111,2.476-0.335c2.255-0.617,4.124-2.009,5.459-4.023c1.71-0.029,3.452-0.65,5.109-1.974
			c3.799-3.043,4.107-8.309,0.933-15.686c2.633,1.049,5.544,1.983,8.52,2.537c-0.89,2.893-0.516,5.181,0.188,6.841
			c1.271,3.006,4.084,5.007,7.622,5.514c1.824,3.12,5.064,4.939,9.117,4.939c3.293,0,6.695-1.18,9.245-2.733
			c2.197,0.818,5.431,1.612,9.693,1.612c5.371,0,11.239-1.24,17.442-3.689c11.311-4.462,16.851-9.535,16.939-15.509
			c0.022-1.523-0.316-3.336-1.48-5.191c0.071-0.04,0.138-0.078,0.2-0.114c0.438-0.252,0.868-0.52,1.28-0.796
			c0.162-0.108,0.323-0.224,0.481-0.34l0.091-0.066c0.245-0.175,0.491-0.355,0.703-0.52c0.226-0.176,0.447-0.358,0.672-0.545
			c0.188-0.157,0.372-0.317,0.568-0.492c0.232-0.207,0.464-0.414,0.688-0.633c0.112-0.111,0.224-0.225,0.334-0.34l0.052-0.057
			c0.49-0.495,0.954-1.025,1.423-1.583c0.074-0.088,0.147-0.173,0.215-0.257c0.245-0.31,0.481-0.631,0.708-0.946
			c0.09-0.125,0.179-0.25,0.249-0.351c0.237-0.344,0.47-0.691,0.666-1.006l0.121-0.201c0.751-1.229,1.396-2.567,1.98-3.956
			c0.006-0.015,0.012-0.03,0.018-0.045c0.007-0.017,0.014-0.035,0.021-0.054c1.173-2.859,1.865-6.048,2.148-9.465
			c3.804-4.051,10.703-12.9,15.509-27.708c6.775-20.885,7.065-45.854,0.863-74.21l-0.15-0.676c-0.172-0.776-0.345-1.553-0.528-2.34
			c-0.251-1.076-0.518-2.161-0.782-3.261c-0.013-0.053-0.026-0.104-0.042-0.157c-5.806-20.216-19.123-42.869-28.453-42.869
			c-2.158,0-4.067,1.031-5.24,2.831c-0.925,1.42-1.599,3.449-0.984,7.393c-2.153-0.158-4.165,0.764-5.418,2.484
			c-1.455,2.002-2.022,4.741-0.673,11.144c-0.773-0.235-1.507-0.354-2.188-0.354c-1.753,0-3.361,0.735-4.412,2.017
			c-1.042,1.271-1.448,2.965-1.11,4.651c0.094,0.47,0.278,0.962,0.513,1.396c0.038,0.068,0.078,0.14,0.12,0.209
			c0.47,0.785,11.559,19.518,15.223,44.978c0.015,0.104,0.034,0.209,0.056,0.313c1.198,8.483,1.429,16.768,0.699,24.756
			c-18.928-26.668-53.11-51.16-68.429-61.38c-0.059-0.043-0.122-0.086-0.183-0.127c-0.041-0.028-0.083-0.056-0.122-0.082
			c8.156-11.87,13.953-25.821,17.028-40.951c6.606,5.598,16.463,12.653,24.17,12.653c2.583,0,4.847-0.727,6.729-2.159
			c2.2-1.677,4.91-5.095,5.321-11.854c0.82-13.44-7.789-38.99-35.803-65.796c-0.474-0.454-0.959-0.882-1.437-1.295
			c-0.175-0.152-0.352-0.298-0.529-0.441l-0.316-0.264c-0.204-0.171-0.41-0.342-0.624-0.512c-0.23-0.182-0.462-0.353-0.693-0.526
			l-0.381-0.286c-0.136-0.103-0.271-0.205-0.407-0.302c-0.363-0.26-0.726-0.501-1.064-0.726l-0.092-0.063
			c-0.111-0.077-0.222-0.151-0.344-0.229c-0.425-0.274-0.854-0.523-1.261-0.771c-0.092-0.056-0.184-0.112-0.26-0.156
			c-0.46-0.263-0.925-0.505-1.401-0.754c-0.048-0.024-0.101-0.053-0.138-0.072c-3.674-1.864-7.391-2.787-11.02-2.787
			c-6.013,0-16.454,2.671-23.206,19.27c-4.751-2.476-10.584-3.761-17.221-3.761c-7.977,0-16.339,1.876-23.545,5.225
			c-3.065-3.379-8.7-7.674-17.55-7.674c-12.073,0-26.095,8.209-41.777,24.3c-0.088,0.09-0.174,0.185-0.255,0.282
			c-0.531,0.644-1.052,1.28-1.557,1.905l-0.222,0.28c-0.434,0.539-0.861,1.078-1.272,1.603l-0.271,0.352
			c-0.392,0.507-0.783,1.012-1.156,1.501l-0.267,0.358c-0.375,0.496-0.745,0.988-1.115,1.492l-0.229,0.316
			c-0.36,0.493-0.717,0.984-1.058,1.465l-0.24,0.339c-0.342,0.484-0.68,0.964-0.989,1.416l-0.248,0.364
			c-0.32,0.47-0.636,0.936-0.924,1.371l-0.239,0.36c-0.302,0.461-0.602,0.92-0.891,1.372l-0.211,0.333
			c-0.289,0.452-0.57,0.902-0.857,1.371l-0.191,0.315c-0.269,0.443-0.537,0.887-0.785,1.309l-0.195,0.335
			c-0.256,0.436-0.506,0.869-0.744,1.295l-0.182,0.324c-0.237,0.427-0.47,0.849-0.699,1.275l-0.173,0.327
			c-0.219,0.412-0.434,0.82-0.655,1.251l-0.161,0.319c-0.2,0.4-0.397,0.797-0.591,1.197l-0.16,0.334
			c-0.185,0.39-0.366,0.775-0.553,1.18l-0.147,0.331c-0.17,0.379-0.337,0.753-0.505,1.147L8.93,71.022
			c-0.155,0.368-0.304,0.733-0.449,1.098l-0.144,0.365c-0.137,0.353-0.27,0.699-0.396,1.042L7.8,73.912
			c-0.119,0.334-0.234,0.664-0.35,1.001l-0.131,0.395c-0.104,0.32-0.207,0.638-0.296,0.933l-0.129,0.427
			c-0.09,0.303-0.175,0.603-0.256,0.898l-0.123,0.459c-0.072,0.279-0.143,0.556-0.213,0.853L6.2,79.319
			c-0.063,0.277-0.121,0.549-0.168,0.777c-0.036,0.179-0.072,0.357-0.1,0.501c-0.049,0.256-0.094,0.51-0.139,0.785l-0.079,0.489
			c-0.035,0.225-0.065,0.447-0.092,0.652c-0.026,0.199-0.049,0.397-0.071,0.594l-0.06,0.604c-0.017,0.205-0.036,0.412-0.047,0.606
			l-0.028,0.521c-0.011,0.228-0.02,0.452-0.024,0.653c-0.003,0.154-0.004,0.306-0.004,0.435c-0.001,0.256,0.001,0.51,0.009,0.773
			L5.409,87.019z"/>
		<path style="fill:#6E6E6E;" d="M97.398,253.866c-0.898,0.78-1.713,1.584-2.438,2.404c-0.214-0.251-0.431-0.502-0.653-0.752
			c-0.096-2.281-0.147-4.575-0.155-6.876C95.157,250.498,96.239,252.266,97.398,253.866z M4.735,86.284
			c0.013,0.276,0.027,0.551,0.05,0.816l0.019,0.211c0.027,0.306,0.06,0.604,0.101,0.897c0.001,0.009,0.015,0.1,0.017,0.108
			c1.064,7.406,6.239,12.006,13.508,12.007l0,0c2.286,0,4.737-0.461,7.292-1.362c-1.463,15.732,2.452,30.492,11.238,41.543
			c6.463,8.133,18.329,17.685,38.951,19.344c-4.69,15.714-12.066,50.678-4.097,97.893c-5.297,5.947-7.644,13.957-5.487,19.535
			c1.332,3.446,4.261,5.503,7.832,5.503c1.445,0,2.924-0.327,4.455-0.992c1.651,2.102,3.87,3.305,6.364,3.305
			c2.182,0,4.248-0.991,5.875-2.73c0.021-0.022,0.105-0.117,0.127-0.143c0.3-0.341,0.563-0.684,0.813-1.043
			c0.012-0.017,0.022-0.033,0.033-0.049c0.844,0.256,1.621,0.347,2.294,0.347c2.128,0,4.084-0.899,5.506-2.534
			c0.097-0.111,0.191-0.226,0.282-0.343c0.735,0.208,1.488,0.32,2.253,0.374c0.087,0.007,0.175,0.016,0.264,0.015
			c0.084-0.001,0.185,0.001,0.297-0.001h0.012c0.908,0,1.807-0.127,2.679-0.354c0.041-0.011,0.086-0.022,0.114-0.031
			c0.977-0.299,1.858-0.671,2.619-1.105c0.553,0.253,1.154,0.488,1.792,0.676c0.983,1.744,2.459,3.148,4.34,4.088
			c1.757,0.881,3.543,1.327,5.304,1.327c3.154,0,5.7-1.399,7.654-3.298c2.389,2.137,4.803,2.649,6.57,2.649
			c0.823,0,1.656-0.112,2.474-0.336c2.257-0.616,4.126-2.009,5.46-4.022c1.709-0.029,3.453-0.649,5.109-1.975
			c3.799-3.042,4.107-8.309,0.933-15.686c2.634,1.051,5.544,1.984,8.521,2.54c-0.89,2.891-0.515,5.181,0.188,6.838
			c1.271,3.007,4.085,5.009,7.623,5.516c1.824,3.121,5.063,4.938,9.116,4.938c3.295,0,6.695-1.18,9.245-2.731
			c2.198,0.818,5.431,1.612,9.693,1.612c5.371,0,11.239-1.24,17.444-3.69c11.309-4.462,16.85-9.536,16.936-15.509
			c0.024-1.523-0.315-3.337-1.48-5.192c0.071-0.04,0.138-0.078,0.2-0.114c0.436-0.254,0.869-0.519,1.279-0.794
			c0.164-0.109,0.323-0.225,0.483-0.342l0.09-0.064c0.246-0.177,0.492-0.356,0.703-0.52c0.227-0.177,0.45-0.358,0.673-0.545
			c0.188-0.157,0.373-0.318,0.568-0.492c0.232-0.207,0.463-0.415,0.687-0.634c0.112-0.111,0.225-0.225,0.334-0.339l0.054-0.057
			c0.488-0.496,0.955-1.023,1.423-1.582c0.072-0.089,0.146-0.175,0.214-0.259c0.245-0.307,0.481-0.628,0.708-0.945
			c0.091-0.125,0.18-0.25,0.25-0.352c0.237-0.341,0.47-0.691,0.664-1.005l0.123-0.201c0.75-1.229,1.396-2.569,1.979-3.957
			c0.007-0.015,0.012-0.03,0.018-0.044c0.007-0.018,0.015-0.035,0.023-0.054c1.145-2.872,1.865-6.049,2.148-9.466
			c3.801-4.05,10.703-12.901,15.507-27.708c6.776-20.884,7.066-45.854,0.863-74.21l-0.149-0.675
			c-0.173-0.776-0.345-1.552-0.527-2.34c-0.251-1.076-0.52-2.162-0.784-3.26c-0.012-0.054-0.026-0.105-0.041-0.157
			c-5.975-20.168-19.124-42.87-28.453-42.87c-2.158,0-4.066,1.032-5.239,2.83c-0.926,1.42-1.6,3.45-0.986,7.395
			c-2.153-0.158-4.165,0.762-5.417,2.482c-1.455,2.004-2.022,4.741-0.674,11.144c-0.773-0.235-1.506-0.354-2.187-0.354
			c-1.753,0-3.361,0.734-4.413,2.015c-1.042,1.271-1.447,2.967-1.11,4.652c0.094,0.471,0.278,0.964,0.514,1.396
			c0.038,0.069,0.077,0.14,0.119,0.209c0.47,0.785,11.427,19.538,15.223,44.978c0.015,0.105,0.035,0.208,0.057,0.313
			c1.197,8.483,1.43,16.768,0.699,24.757c-18.929-26.669-53.11-51.161-68.429-61.381c-0.061-0.044-0.122-0.086-0.184-0.127
			c-0.042-0.027-0.082-0.054-0.121-0.082c8.155-11.87,13.953-25.821,17.028-40.951c6.607,5.599,16.462,12.654,24.168,12.654
			c2.584,0,4.849-0.726,6.73-2.16c2.2-1.676,4.909-5.094,5.322-11.854c0.819-13.44-7.803-38.977-35.804-65.797
			c-0.474-0.453-0.958-0.882-1.435-1.294c-0.177-0.153-0.354-0.298-0.53-0.441l-0.316-0.263c-0.205-0.171-0.409-0.344-0.624-0.512
			c-0.23-0.183-0.462-0.354-0.694-0.526l-0.381-0.287c-0.135-0.103-0.271-0.205-0.407-0.302c-0.361-0.26-0.726-0.502-1.063-0.725
			l-0.093-0.064c-0.111-0.077-0.221-0.15-0.342-0.229c-0.426-0.274-0.855-0.523-1.261-0.769c-0.093-0.057-0.186-0.113-0.261-0.156
			c-0.461-0.264-0.925-0.507-1.402-0.756c-0.046-0.024-0.101-0.053-0.137-0.07c-3.713-1.789-7.39-2.788-11.02-2.788
			c-6.013,0-16.453,2.67-23.206,19.269c-4.752-2.476-10.584-3.762-17.222-3.762c-7.976,0-16.338,1.877-23.544,5.226
			c-3.064-3.378-8.701-7.674-17.55-7.674c-12.073,0-26.18,8.129-41.778,24.299c-0.088,0.092-0.174,0.187-0.254,0.283
			c-0.535,0.642-1.053,1.28-1.556,1.906l-0.223,0.28c-0.434,0.54-0.862,1.078-1.273,1.602l-0.271,0.351
			c-0.393,0.506-0.783,1.012-1.157,1.502l-0.266,0.358c-0.374,0.496-0.746,0.99-1.116,1.493l-0.229,0.317
			c-0.36,0.492-0.716,0.982-1.058,1.462l-0.239,0.341c-0.343,0.483-0.68,0.963-0.989,1.416l-0.247,0.363
			c-0.321,0.47-0.639,0.937-0.926,1.371l-0.237,0.361c-0.304,0.461-0.602,0.919-0.893,1.372l-0.211,0.333
			c-0.288,0.452-0.569,0.902-0.856,1.371l-0.191,0.313c-0.271,0.443-0.537,0.886-0.786,1.31l-0.196,0.335
			c-0.254,0.436-0.504,0.868-0.743,1.294l-0.182,0.325c-0.237,0.425-0.472,0.85-0.701,1.274l-0.171,0.327
			c-0.219,0.412-0.435,0.821-0.655,1.251l-0.161,0.32c-0.2,0.399-0.398,0.795-0.592,1.196l-0.161,0.336
			C9.41,67.7,9.229,68.086,9.043,68.491l-0.148,0.331c-0.169,0.379-0.336,0.753-0.505,1.148l-0.133,0.318
			c-0.155,0.369-0.306,0.733-0.451,1.099l-0.143,0.364c-0.137,0.352-0.27,0.699-0.397,1.042l-0.14,0.385
			c-0.119,0.334-0.235,0.664-0.349,1.001l-0.132,0.396c-0.105,0.319-0.208,0.637-0.296,0.931l-0.129,0.428
			c-0.09,0.302-0.175,0.603-0.256,0.897l-0.124,0.461c-0.072,0.278-0.141,0.555-0.213,0.851l-0.103,0.444
			c-0.063,0.274-0.121,0.547-0.168,0.775c-0.035,0.18-0.071,0.358-0.099,0.501c-0.051,0.257-0.094,0.509-0.14,0.785l-0.078,0.49
			c-0.034,0.224-0.064,0.447-0.092,0.651c-0.026,0.201-0.05,0.398-0.071,0.593l-0.059,0.604c-0.019,0.207-0.036,0.412-0.05,0.606
			l-0.027,0.521c-0.011,0.228-0.019,0.452-0.023,0.654c-0.003,0.154-0.004,0.305-0.004,0.435c-0.001,0.254,0.001,0.509,0.009,0.773
			L4.735,86.284z"/>
		<path style="fill:#606060;" d="M96.724,253.132c-0.898,0.78-1.713,1.584-2.438,2.405c-0.213-0.253-0.43-0.504-0.652-0.754
			c-0.096-2.28-0.147-4.575-0.155-6.876C94.482,249.764,95.565,251.53,96.724,253.132z M4.062,85.549
			c0.012,0.276,0.027,0.552,0.049,0.816l0.019,0.212c0.027,0.305,0.061,0.604,0.102,0.897c0.001,0.01,0.015,0.099,0.017,0.108
			c1.063,7.405,6.238,12.005,13.507,12.006h0.002c2.284,0,4.736-0.461,7.29-1.361c-1.463,15.731,2.453,30.491,11.238,41.543
			c6.463,8.132,18.33,17.685,38.951,19.343c-4.69,15.715-12.065,50.679-4.097,97.894c-5.297,5.948-7.644,13.956-5.487,19.534
			c1.333,3.446,4.261,5.504,7.832,5.504c1.445,0,2.924-0.328,4.456-0.993c1.651,2.102,3.869,3.307,6.363,3.307
			c2.182,0,4.271-0.973,5.875-2.732c0.022-0.023,0.105-0.118,0.127-0.143c0.301-0.341,0.566-0.683,0.813-1.043
			c0.012-0.018,0.023-0.033,0.033-0.05c0.845,0.257,1.621,0.347,2.295,0.347c2.128,0,4.083-0.899,5.505-2.533
			c0.097-0.112,0.191-0.225,0.282-0.344c0.736,0.208,1.487,0.333,2.253,0.375c0.087,0.007,0.176,0.012,0.265,0.014
			c0.084,0.001,0.184,0.002,0.296-0.001c0.005,0,0.01,0,0.01,0c0.91,0,1.813-0.118,2.681-0.353c0.042-0.011,0.086-0.022,0.115-0.031
			c0.982-0.275,1.859-0.671,2.62-1.107c0.552,0.254,1.152,0.488,1.791,0.676c0.983,1.746,2.458,3.148,4.339,4.089
			c1.759,0.881,3.543,1.326,5.304,1.326c3.155,0,5.7-1.398,7.654-3.298c2.389,2.137,4.803,2.65,6.57,2.65
			c0.824,0,1.656-0.112,2.476-0.336c2.255-0.617,4.124-2.009,5.459-4.023c1.709-0.028,3.452-0.648,5.109-1.974
			c3.799-3.043,4.107-8.308,0.932-15.687c2.634,1.05,5.545,1.984,8.52,2.539c-0.888,2.892-0.514,5.181,0.189,6.839
			c1.27,3.006,4.084,5.009,7.623,5.516c1.823,3.12,5.063,4.938,9.115,4.938c3.295,0,6.695-1.18,9.246-2.732
			c2.198,0.818,5.431,1.613,9.693,1.613c5.37,0,11.24-1.241,17.443-3.69c11.309-4.463,16.85-9.536,16.938-15.509
			c0.023-1.523-0.316-3.337-1.481-5.193c0.07-0.039,0.138-0.077,0.2-0.113c0.438-0.252,0.869-0.52,1.28-0.795
			c0.163-0.109,0.323-0.225,0.481-0.341l0.091-0.066c0.246-0.177,0.492-0.355,0.702-0.521c0.229-0.175,0.45-0.357,0.673-0.544
			c0.188-0.157,0.372-0.318,0.568-0.493c0.232-0.207,0.462-0.416,0.687-0.634c0.113-0.11,0.225-0.225,0.335-0.339l0.053-0.056
			c0.489-0.497,0.96-1.021,1.423-1.583c0.074-0.087,0.146-0.175,0.214-0.259c0.245-0.308,0.482-0.628,0.709-0.944
			c0.09-0.125,0.179-0.25,0.249-0.353c0.237-0.341,0.47-0.69,0.665-1.005l0.122-0.201c0.751-1.229,1.417-2.56,1.979-3.956
			c0.007-0.016,0.013-0.029,0.019-0.045c0.006-0.017,0.014-0.035,0.021-0.054c1.146-2.871,1.865-6.048,2.148-9.464
			c3.803-4.052,10.703-12.902,15.508-27.709c6.775-20.885,7.066-45.854,0.862-74.21l-0.149-0.675
			c-0.172-0.777-0.345-1.553-0.527-2.34c-0.251-1.077-0.511-2.164-0.782-3.261c-0.014-0.053-0.026-0.105-0.042-0.157
			c-5.736-20.236-19.124-42.869-28.454-42.869c-2.157,0-4.066,1.031-5.239,2.83c-0.926,1.419-1.599,3.45-0.986,7.394
			c-2.152-0.158-4.165,0.763-5.416,2.483c-1.456,2.003-2.023,4.741-0.675,11.143c-0.771-0.234-1.506-0.353-2.187-0.353
			c-1.753,0-3.361,0.734-4.412,2.016c-1.042,1.27-1.447,2.966-1.111,4.65c0.094,0.471,0.281,0.963,0.514,1.396
			c0.038,0.07,0.078,0.141,0.119,0.21c0.47,0.785,11.56,19.518,15.224,44.977c0.016,0.105,0.034,0.209,0.056,0.313
			c1.198,8.485,1.43,16.769,0.699,24.757c-18.927-26.668-53.11-51.161-68.429-61.38c-0.061-0.044-0.122-0.087-0.184-0.128
			c-0.04-0.027-0.081-0.054-0.121-0.08c8.157-11.871,13.953-25.822,17.029-40.951c6.607,5.597,16.461,12.652,24.168,12.652
			c2.584,0,4.848-0.726,6.729-2.159c2.201-1.677,4.911-5.094,5.323-11.854c0.819-13.441-8.049-38.723-35.804-65.797
			c-0.478-0.449-0.959-0.883-1.436-1.295c-0.176-0.152-0.354-0.297-0.53-0.441l-0.316-0.262c-0.205-0.172-0.409-0.343-0.623-0.512
			c-0.232-0.182-0.463-0.354-0.693-0.526l-0.382-0.286c-0.136-0.104-0.272-0.207-0.407-0.303c-0.362-0.26-0.726-0.502-1.064-0.726
			l-0.093-0.064c-0.11-0.075-0.221-0.15-0.342-0.229c-0.425-0.274-0.851-0.53-1.261-0.769c-0.092-0.057-0.185-0.113-0.261-0.156
			c-0.46-0.264-0.922-0.511-1.4-0.754c-0.048-0.025-0.102-0.055-0.139-0.072c-3.682-1.85-7.39-2.788-11.02-2.788
			c-6.013,0-16.453,2.672-23.206,19.27c-4.752-2.477-10.584-3.762-17.222-3.762c-7.975,0-16.337,1.878-23.544,5.226
			c-3.064-3.378-8.7-7.673-17.549-7.673c-12.073,0-26.13,8.175-41.778,24.298c-0.088,0.091-0.174,0.186-0.255,0.283
			c-0.531,0.644-1.053,1.281-1.556,1.906l-0.223,0.279c-0.434,0.54-0.861,1.078-1.271,1.603l-0.271,0.351
			c-0.392,0.507-0.784,1.012-1.156,1.503l-0.268,0.356c-0.374,0.497-0.745,0.99-1.115,1.494l-0.23,0.316
			c-0.361,0.492-0.717,0.983-1.059,1.464l-0.239,0.34c-0.341,0.483-0.68,0.963-0.989,1.415l-0.247,0.363
			c-0.321,0.471-0.638,0.938-0.926,1.372l-0.237,0.361c-0.304,0.46-0.602,0.918-0.892,1.371l-0.211,0.334
			c-0.288,0.451-0.569,0.901-0.857,1.37l-0.191,0.313c-0.269,0.443-0.537,0.887-0.786,1.311l-0.195,0.334
			c-0.255,0.436-0.505,0.87-0.743,1.294l-0.183,0.326c-0.237,0.425-0.471,0.849-0.699,1.273l-0.173,0.327
			c-0.219,0.412-0.434,0.821-0.654,1.252l-0.161,0.319c-0.201,0.4-0.398,0.796-0.592,1.196l-0.16,0.336
			c-0.185,0.389-0.367,0.773-0.552,1.18l-0.148,0.33c-0.17,0.379-0.337,0.753-0.505,1.148l-0.134,0.318
			c-0.155,0.368-0.305,0.732-0.451,1.098l-0.143,0.364c-0.138,0.352-0.27,0.699-0.397,1.042l-0.139,0.385
			c-0.119,0.335-0.236,0.664-0.35,1.001l-0.132,0.396c-0.105,0.32-0.206,0.638-0.296,0.931l-0.128,0.428
			c-0.091,0.302-0.176,0.604-0.256,0.899l-0.124,0.46c-0.072,0.279-0.142,0.555-0.214,0.852l-0.102,0.443
			c-0.064,0.275-0.123,0.548-0.168,0.776c-0.037,0.18-0.072,0.357-0.1,0.501c-0.049,0.256-0.094,0.509-0.14,0.785l-0.078,0.489
			c-0.034,0.225-0.065,0.447-0.091,0.652c-0.026,0.2-0.051,0.398-0.072,0.594l-0.059,0.603c-0.019,0.207-0.036,0.412-0.049,0.607
			L4.067,83.38c-0.01,0.227-0.018,0.45-0.022,0.652c-0.004,0.154-0.005,0.306-0.005,0.435c-0.001,0.255,0.001,0.509,0.009,0.774
			L4.062,85.549z"/>
	</g>
	<path style="fill:#FFFFFF;" d="M4.062,85.549c0.012,0.276,0.027,0.552,0.049,0.816l0.019,0.212
		c0.027,0.305,0.061,0.604,0.102,0.897c0.001,0.01,0.015,0.099,0.017,0.108c1.063,7.405,6.238,12.005,13.507,12.006h0.002
		c2.284,0,4.736-0.461,7.29-1.361c-1.463,15.731,2.453,30.491,11.238,41.543c6.463,8.132,18.33,17.685,38.951,19.343
		c-4.69,15.715-12.065,50.679-4.097,97.894c-5.297,5.948-7.644,13.956-5.487,19.534c1.333,3.446,4.261,5.504,7.832,5.504
		c1.445,0,2.924-0.328,4.456-0.993c1.651,2.102,3.869,3.307,6.363,3.307c2.182,0,4.271-0.973,5.875-2.732
		c0.022-0.023,0.105-0.118,0.127-0.143c0.301-0.341,0.566-0.683,0.813-1.043c0.012-0.018,0.023-0.033,0.033-0.05
		c0.845,0.257,1.621,0.347,2.295,0.347c2.128,0,4.083-0.899,5.505-2.533c0.097-0.112,0.191-0.225,0.282-0.344
		c0.736,0.208,1.487,0.333,2.253,0.375c0.087,0.007,0.176,0.012,0.265,0.014c0.084,0.001,0.184,0.002,0.296-0.001
		c0.005,0,0.01,0,0.01,0c0.91,0,1.813-0.118,2.681-0.353c0.042-0.011,0.086-0.022,0.115-0.031c0.982-0.275,1.859-0.671,2.62-1.107
		c0.552,0.254,1.152,0.488,1.791,0.676c0.983,1.746,2.458,3.148,4.339,4.089c1.759,0.881,3.543,1.326,5.304,1.326
		c3.155,0,5.7-1.398,7.654-3.298c2.389,2.137,4.803,2.65,6.57,2.65c0.824,0,1.656-0.112,2.476-0.336
		c2.255-0.617,4.124-2.009,5.459-4.023c1.709-0.028,3.452-0.648,5.109-1.974c3.799-3.043,4.107-8.308,0.932-15.687
		c2.634,1.05,5.545,1.984,8.52,2.539c-0.888,2.892-0.514,5.181,0.189,6.839c1.27,3.006,4.084,5.009,7.623,5.516
		c1.823,3.12,5.063,4.938,9.115,4.938c3.295,0,6.695-1.18,9.246-2.732c2.198,0.818,5.431,1.613,9.693,1.613
		c5.37,0,11.24-1.241,17.443-3.69c11.309-4.463,16.85-9.536,16.938-15.509c0.023-1.523-0.316-3.337-1.481-5.193
		c0.07-0.039,0.138-0.077,0.2-0.113c0.438-0.252,0.869-0.52,1.28-0.795c0.163-0.109,0.323-0.225,0.481-0.341l0.091-0.066
		c0.246-0.177,0.492-0.355,0.702-0.521c0.229-0.175,0.45-0.357,0.673-0.544c0.188-0.157,0.372-0.318,0.568-0.493
		c0.232-0.207,0.462-0.416,0.687-0.634c0.113-0.11,0.225-0.225,0.335-0.339l0.053-0.056c0.489-0.497,0.96-1.021,1.423-1.583
		c0.074-0.087,0.146-0.175,0.214-0.259c0.245-0.308,0.482-0.628,0.709-0.944c0.09-0.125,0.179-0.25,0.249-0.353
		c0.237-0.341,0.47-0.69,0.665-1.005l0.122-0.201c0.751-1.229,1.417-2.56,1.979-3.956c0.007-0.016,0.013-0.029,0.019-0.045
		c0.006-0.017,0.014-0.035,0.021-0.054c1.146-2.871,1.865-6.048,2.148-9.464c3.803-4.052,10.703-12.902,15.508-27.709
		c6.775-20.885,7.066-45.854,0.862-74.21l-0.149-0.675c-0.172-0.777-0.345-1.553-0.527-2.34c-0.251-1.077-0.511-2.164-0.782-3.261
		c-0.014-0.053-0.026-0.105-0.042-0.157c-5.736-20.236-19.124-42.869-28.454-42.869c-2.157,0-4.066,1.031-5.239,2.83
		c-0.926,1.419-1.599,3.45-0.986,7.394c-2.152-0.158-4.165,0.763-5.416,2.483c-1.456,2.003-2.023,4.741-0.675,11.143
		c-0.771-0.234-1.506-0.353-2.187-0.353c-1.753,0-3.361,0.734-4.412,2.016c-1.042,1.27-1.447,2.966-1.111,4.65
		c0.094,0.471,0.281,0.963,0.514,1.396c0.038,0.07,0.078,0.141,0.119,0.21c0.47,0.785,11.56,19.518,15.224,44.977
		c0.016,0.105,0.034,0.209,0.056,0.313c1.198,8.485,1.43,16.769,0.699,24.757c-18.927-26.668-53.11-51.161-68.429-61.38
		c-0.061-0.044-0.122-0.087-0.184-0.128c-0.04-0.027-0.081-0.054-0.121-0.08c8.157-11.871,13.953-25.822,17.029-40.951
		c6.607,5.597,16.461,12.652,24.168,12.652c2.584,0,4.848-0.726,6.729-2.159c2.201-1.677,4.911-5.094,5.323-11.854
		c0.819-13.441-8.049-38.723-35.804-65.797c-0.478-0.449-0.959-0.883-1.436-1.295c-0.176-0.152-0.354-0.297-0.53-0.441l-0.316-0.262
		c-0.205-0.172-0.409-0.343-0.623-0.512c-0.232-0.182-0.463-0.354-0.693-0.526l-0.382-0.286c-0.136-0.104-0.272-0.207-0.407-0.303
		c-0.362-0.26-0.726-0.502-1.064-0.726l-0.093-0.064c-0.11-0.075-0.221-0.15-0.342-0.229c-0.425-0.274-0.851-0.53-1.261-0.769
		c-0.092-0.057-0.185-0.113-0.261-0.156c-0.46-0.264-0.922-0.511-1.4-0.754c-0.048-0.025-0.102-0.055-0.139-0.072
		c-3.682-1.85-7.39-2.788-11.02-2.788c-6.013,0-16.453,2.672-23.206,19.27c-4.752-2.477-10.584-3.762-17.222-3.762
		c-7.975,0-16.337,1.878-23.544,5.226c-3.064-3.378-8.7-7.673-17.549-7.673c-12.073,0-26.13,8.175-41.778,24.298
		c-0.088,0.091-0.174,0.186-0.255,0.283c-0.531,0.644-1.053,1.281-1.556,1.906l-0.223,0.279c-0.434,0.54-0.861,1.078-1.271,1.603
		l-0.271,0.351c-0.392,0.507-0.784,1.012-1.156,1.503l-0.268,0.356c-0.374,0.497-0.745,0.99-1.115,1.494l-0.23,0.316
		c-0.361,0.492-0.717,0.983-1.059,1.464l-0.239,0.34c-0.341,0.483-0.68,0.963-0.989,1.415l-0.247,0.363
		c-0.321,0.471-0.638,0.938-0.926,1.372l-0.237,0.361c-0.304,0.46-0.602,0.918-0.892,1.371l-0.211,0.334
		c-0.288,0.451-0.569,0.901-0.857,1.37l-0.191,0.313c-0.269,0.443-0.537,0.887-0.786,1.311l-0.195,0.334
		c-0.255,0.436-0.505,0.87-0.743,1.294l-0.183,0.326c-0.237,0.425-0.471,0.849-0.699,1.273l-0.173,0.327
		c-0.219,0.412-0.434,0.821-0.654,1.252l-0.161,0.319c-0.201,0.4-0.398,0.796-0.592,1.196l-0.16,0.336
		c-0.185,0.389-0.367,0.773-0.552,1.18l-0.148,0.33c-0.17,0.379-0.337,0.753-0.505,1.148l-0.134,0.318
		c-0.155,0.368-0.305,0.732-0.451,1.098l-0.143,0.364c-0.138,0.352-0.27,0.699-0.397,1.042l-0.139,0.385
		c-0.119,0.335-0.236,0.664-0.35,1.001l-0.132,0.396c-0.105,0.32-0.206,0.638-0.296,0.931l-0.128,0.428
		c-0.091,0.302-0.176,0.604-0.256,0.899l-0.124,0.46c-0.072,0.279-0.142,0.555-0.214,0.852l-0.102,0.443
		c-0.064,0.275-0.123,0.548-0.168,0.776c-0.037,0.18-0.072,0.357-0.1,0.501c-0.049,0.256-0.094,0.509-0.14,0.785l-0.078,0.489
		c-0.034,0.225-0.065,0.447-0.091,0.652c-0.026,0.2-0.051,0.398-0.072,0.594l-0.059,0.603c-0.019,0.207-0.036,0.412-0.049,0.607
		L4.067,83.38c-0.01,0.227-0.018,0.45-0.022,0.652c-0.004,0.154-0.005,0.306-0.005,0.435c-0.001,0.255,0.001,0.509,0.009,0.774
		L4.062,85.549z M96.724,253.132c-0.898,0.78-1.713,1.584-2.438,2.405c-0.213-0.253-0.43-0.504-0.652-0.754
		c-0.096-2.28-0.147-4.575-0.155-6.876C94.482,249.764,95.565,251.53,96.724,253.132z"/>
	<g>
		<path style="fill:#EAE6CC;" d="M208.159,110.733c0,0,26.754,43.872,13.379,90.943c6.419,18.193,9.634,29.966,9.634,29.966
			s35.307-28.357,16.045-105.933c-10.162-35.847-36.377-56.709-20.326-20.326c-12.838-14.984-16.051-12.305-4.818,19.256
			C216.189,111.271,207.625,108.055,208.159,110.733z"/>
		<g>
			<path style="fill:#925F2D;" d="M233.313,168.51c4.276-0.534,1.601-26.741,4.813-18.189c2.773,7.396,7.938,15.16,13.427-1.796
				c-0.923-7.094-2.314-14.662-4.335-22.814c-10.162-35.847-36.377-56.709-20.326-20.326c-12.838-14.984-16.051-12.305-4.818,19.256
				c-5.883-13.368-14.447-16.585-13.913-13.906c0,0,11.994,19.692,15.9,46.841C227.443,163.305,231.248,168.768,233.313,168.51z"/>
		</g>
		<path style="fill:#E5E2D1;" d="M229.103,188.066c-1.385-31.091,2.172-62.652-13.395-90.881
			c-1.449,2.158,0.405,10.703,6.365,27.454c-5.883-13.368-14.447-16.585-13.913-13.906c0,0,26.754,43.872,13.379,90.943
			c6.419,18.193,9.634,29.966,9.634,29.966s5.028-4.05,10.261-13.252C235.4,209.043,229.614,199.52,229.103,188.066z"/>
		<path style="fill:#EAE6CC;" d="M89.203,222.361c0,0,5.564,23.482,14.646,31.558c-8.586,5.307-12.119,12.375-5.807,17.93
			c5.051,4.039,9.094-1.008,9.094-1.008s6.566,5.809,9.594-1.518c3.533,5.305,11.867-2.773,8.332-12.623
			c-3.54-9.848-6.063-28.276-14.141-42.165c-8.078-13.891-16.662-26.51-16.662-26.51S87.184,208.479,89.203,222.361z"/>
		<g>
			<path style="fill:#E5E2D1;" d="M125.063,256.7c-3.54-9.848-6.063-28.276-14.141-42.165c-8.078-13.891-16.662-26.51-16.662-26.51
				s-1.52,4.418-2.948,10.513c5.298,7.322,12.983,20.226,17.432,38.157c4.915,23.657,4.212,35.127-2.812,27.636
				c0,3.803-1.111,8.195-4.05,9.071c3.108,0.101,5.255-2.562,5.255-2.562s6.566,5.809,9.594-1.518
				C120.264,274.628,128.598,266.55,125.063,256.7z"/>
		</g>
		<path style="fill:#F7F5DF;" d="M82.84,151.941c0,0-18.097,41.744-6.495,106.69c-10.205,9.278-8.353,25.516,3.708,15.31
			c1.396,7.423,7.425,7.883,8.819-1.392c6.488,9.275,12.988-2.317,0-15.771c-1.86-35.722,7.415-62.163,7.415-62.163
			s5.573,16.698,15.775,29.229c2.783,26.44,4.642,36.178,4.642,36.178s-8.349,13.453-0.93,17.165
			c7.419,3.713,10.668-6.494,10.668-6.494s2.781,7.889,7.885,6.494c5.107-1.395,4.174-10.204,4.174-10.204s0.004,8.81,4.642,5.1
			c4.634-3.711-4.642-17.624-4.642-17.624v-4.174c0,0,14.387,9.737,25.512,7.883c-7.883,8.815-2.779,12.989,2.787,12.064
			c1.393,8.35,12.061,4.174,14.383,1.387c0,0,8.35,6.03,25.975-0.926c17.624-6.955,16.702-13.914,6.958-18.095
			c14.844-0.929,27.831-19.02,8.348-56.13c-19.48-37.108-79.32-74.216-79.32-74.216S116.704,152.872,82.84,151.941z"/>
		<g>
			<path style="fill:#AF0031;" d="M148.714,125.863c-3.495-2.326-5.571-3.61-5.571-3.61s-26.438,30.619-60.303,29.689
				c0,0-1.322,3.069-3.019,8.787C92.698,164.533,127.368,169.754,148.714,125.863z"/>
			<path style="fill:#F7F5DF;" d="M138.566,268.134c-0.02-0.699-0.064-1.15-0.064-1.15S138.505,267.459,138.566,268.134z"/>
		</g>
		<path style="fill:#AF0031;" d="M93.439,156.639c0,0,15.812,0.386,36.248-15.428C138.941,132.733,129.301,161.647,93.439,156.639z"
			/>
		<path style="fill:#FAF9E8;" d="M83.358,31.383c0,0-14.211-27.618-54.418,13.808C-4.358,85.4,9.038,104.895,31.375,89.462
			c-7.715,33.299,9.751,67.01,54.021,64.977c44.27-2.028,73.917-38.989,79.599-83.259c0,0,22.744,22.744,31.272,16.251
			c8.527-6.498,2.437-37.774-30.867-70.262C151.59,4.17,135.351,6.203,128.035,31.383C117.883,21.636,96.761,23.667,83.358,31.383z"
			/>
		<g>
			<path style="fill:#925F2D;" d="M83.358,31.383c0,0-14.211-27.618-54.418,13.808C-3.593,84.47,8.452,103.959,29.846,90.451
				c1.153-1.683,2.302-3.615,3.418-5.896C42.717,65.232,59.063,40.278,83.358,31.383z"/>
			<path style="fill:#925F2D;" d="M165.4,17.169c-13.54-12.745-29.401-10.984-36.909,12.843
				c8.531,10.388,26.391,31.806,36.436,41.651c0.019-0.161,0.047-0.32,0.068-0.483c0,0,22.744,22.744,31.272,16.251
				C204.794,80.933,198.703,49.656,165.4,17.169z"/>
		</g>
		<g>
			<path style="fill:#925F2D;" d="M137.375,40.724c0,0,1.892,1.758,4.589,4.52c1.326,1.402,2.878,3.03,4.543,4.772
				c1.645,1.766,3.341,3.696,5.113,5.546c3.482,3.751,6.842,7.623,9.325,10.583c2.479,2.965,4.049,5.035,4.049,5.035
				s-1.921-1.693-4.684-4.392c-2.759-2.69-6.387-6.363-9.882-10.15c-3.521-3.767-6.71-7.795-9.138-10.803
				C138.882,42.822,137.375,40.724,137.375,40.724z"/>
			<path style="fill:#925F2D;" d="M31.375,89.462c0,0,1.129-3.857,3.62-9.328c1.241-2.732,2.792-5.879,4.64-9.155
				c1.891-3.251,3.999-6.664,6.324-9.944c2.366-3.247,4.854-6.405,7.405-9.179c1.228-1.423,2.501-2.723,3.779-3.89
				c1.249-1.193,2.404-2.345,3.583-3.283c1.157-0.958,2.219-1.838,3.164-2.616c0.998-0.705,1.864-1.314,2.584-1.818
				c1.441-0.993,2.268-1.558,2.268-1.558s-0.76,0.663-2.078,1.806c-0.661,0.56-1.467,1.244-2.393,2.032
				c-0.876,0.836-1.86,1.787-2.934,2.821c-1.114,0.987-2.189,2.192-3.358,3.436c-1.188,1.219-2.362,2.579-3.571,3.996
				c-2.469,2.77-4.867,5.943-7.145,9.179c-2.351,3.196-4.499,6.532-6.426,9.721c-1.889,3.208-3.684,6.191-5.032,8.848
				C32.979,85.796,31.375,89.462,31.375,89.462z"/>
		</g>
		<g>
			<path style="fill:#673121;" d="M66.229,62.229c-0.923,2.366-0.828,4.604,0.2,5.007c1.037,0.403,2.624-1.183,3.543-3.549
				c0.925-2.358,0.828-4.605-0.208-5.005C68.73,58.28,67.147,59.865,66.229,62.229z"/>
			<path style="fill:#FFFFFF;" d="M69.066,61.275c-0.22,0.731-0.131,1.407,0.186,1.506c0.324,0.097,0.764-0.428,0.989-1.159
				c0.216-0.741,0.13-1.417-0.195-1.514C69.728,60.016,69.288,60.532,69.066,61.275z"/>
		</g>
		<path style="fill:#512B0C;" d="M58.902,86.389c0,0,8.561-4.277,22.467,1.342c2.677,2.133,1.068,13.106-10.698,13.906
			C58.902,102.439,55.43,89.863,58.902,86.389z"/>
		<path style="fill:#ED776F;" d="M56.76,127.05c0,0-1.071,20.597,9.36,22.469c10.436,1.868,13.646-18.189,13.646-18.189
			s-14.175-1.872-14.977-17.388C61.577,120.091,60.773,123.039,56.76,127.05z"/>
		<path style="opacity:0.5;fill:#96172D;" d="M68.534,125.446c0,0-0.228,1.194-0.556,2.946c-0.206,0.862-0.323,1.908-0.559,2.984
			c-0.139,1.095-0.441,2.239-0.568,3.402c-0.169,1.159-0.413,2.313-0.502,3.414c-0.093,1.083-0.391,2.108-0.391,2.993
			c-0.146,1.764-0.367,2.981-0.367,2.981s-0.292-1.171-0.536-2.981c-0.137-0.911-0.117-1.973-0.117-3.11
			c-0.036-1.15,0.188-2.348,0.329-3.555c0.367-2.406,1.131-4.721,1.848-6.395C67.831,126.453,68.534,125.446,68.534,125.446z"/>
		<g style="opacity:0.5;">
			<path style="fill:#925F2D;" d="M116.151,103.779c0,0-0.048,0.341-0.131,0.981c-0.05,0.648-0.203,1.57-0.603,2.731
				c-0.294,1.191-0.939,2.521-1.681,4.043c-0.771,1.51-1.8,3.128-3.05,4.797c-0.661,0.813-1.346,1.652-2.062,2.523
				c-0.774,0.814-1.574,1.656-2.402,2.521c-1.733,1.65-3.648,3.313-5.82,4.784c-2.184,1.449-4.52,2.846-7.101,3.872
				c-2.521,1.143-5.303,1.8-8.107,2.188c-1.411,0.145-2.85,0.091-4.255,0.061l-2.105-0.316l-1.044-0.155
				c-0.504-0.145-0.693-0.242-1.047-0.365c-1.275-0.447-2.545-0.872-3.752-1.702c-1.296-0.646-2.254-1.623-3.26-2.529
				c-1.83-1.962-3.198-4.233-3.924-6.555c-0.86-2.277-1.165-4.551-1.419-6.625c-0.379-4.174,0.099-7.641,0.443-10.021
				c0.383-2.389,0.758-3.713,0.758-3.713s-0.276,1.353-0.489,3.747c-0.21,2.391-0.318,5.837,0.185,9.882
				c0.327,2.009,0.716,4.198,1.613,6.318c0.781,2.175,2.16,4.2,3.825,5.986c0.933,0.81,1.832,1.707,2.954,2.238
				c0.988,0.702,2.277,1.133,3.573,1.561l0.869,0.302l0.978,0.132l1.953,0.268c1.322,0.01,2.658,0.042,3.975-0.111
				c2.638-0.328,5.278-0.906,7.713-1.975c2.479-0.943,4.755-2.268,6.885-3.638c2.11-1.419,4.049-2.938,5.799-4.482
				c0.844-0.813,1.658-1.604,2.446-2.368c0.735-0.824,1.439-1.623,2.116-2.385c1.264-1.603,2.381-3.098,3.249-4.522
				c0.824-1.431,1.564-2.717,1.927-3.838c0.472-1.104,0.695-2.029,0.786-2.666C116.079,104.116,116.151,103.779,116.151,103.779z"/>
			<path style="fill:#925F2D;" d="M64.52,112.067c0,0-0.262,3.368-2.171,8.063c-0.497,1.161-1.116,2.391-1.862,3.65
				c-0.796,1.229-1.702,2.501-2.894,3.613c-1.201,1.083-2.576,2.148-4.217,2.747c-0.788,0.383-1.639,0.593-2.513,0.731
				c-0.863,0.234-1.744,0.184-2.627,0.189l-0.66-0.01c-0.159-0.018-0.107,0.036-0.443-0.044l-0.301-0.077l-1.197-0.314
				c-0.784-0.181-1.703-0.707-2.463-1.137c-1.516-1.027-2.518-2.609-3.049-4.191c-0.48-1.612-0.532-3.213-0.407-4.681
				c0.122-1.469,0.407-2.821,0.713-4.045c0.647-2.454,1.528-4.359,2.145-5.684c0.641-1.315,1.08-2.023,1.08-2.023
				s-0.314,0.776-0.79,2.145c-0.493,1.36-1.06,3.359-1.552,5.761c-0.474,2.39-0.699,5.326,0.129,8.096
				c0.502,1.338,1.324,2.571,2.564,3.376c0.663,0.32,1.183,0.697,2.01,0.885l1.207,0.282l0.305,0.07
				c-0.135-0.008,0.135-0.002,0.176-0.002l0.588-0.006c0.774,0.008,1.568,0.08,2.313-0.117c0.772-0.099,1.521-0.268,2.218-0.593
				c1.453-0.487,2.708-1.417,3.819-2.374c1.098-1.006,2.039-2.12,2.872-3.239c0.788-1.152,1.459-2.291,2.021-3.386
				c1.092-2.203,1.858-4.129,2.302-5.506C64.302,112.873,64.52,112.067,64.52,112.067z"/>
		</g>
		<path style="fill:#FFFFFF;" d="M68.53,87.888c0,0.813-1.565,1.472-3.497,1.472c-1.929,0-3.494-0.659-3.494-1.472
			c0-0.815,1.565-1.474,3.494-1.474C66.965,86.414,68.53,87.073,68.53,87.888z"/>
		<g style="opacity:0.5;">
			<path style="fill:#925F2D;" d="M113.915,166.317c0,0-0.059,0.907-0.158,2.489c-0.191,1.567-0.169,3.841-0.354,6.528
				c-0.129,2.7-0.439,5.81-0.481,9.184c-0.04,3.368-0.175,6.954-0.3,10.541c-0.091,1.792-0.176,3.584-0.265,5.348
				c0.022,1.77,0.04,3.505,0.07,5.186c0.055,3.357-0.03,6.51-0.034,9.206c-0.08,5.406-0.33,9.046-0.33,9.046
				s-0.521-3.571-1.022-8.975c-0.213-2.705-0.533-5.861-0.735-9.254c-0.078-1.694-0.268-3.446-0.273-5.228
				c0.061-1.779,0.124-3.594,0.191-5.401c0.171-3.614,0.344-7.241,0.588-10.619c0.195-3.389,0.913-6.521,1.252-9.211
				C112.849,169.78,113.915,166.317,113.915,166.317z"/>
			<path style="fill:#925F2D;" d="M139.89,169.105c0,0-0.082,5.081-0.21,12.706c-0.12,3.809-0.15,8.257-0.374,12.997
				c-0.153,2.37-0.1,4.837-0.157,7.33c-0.03,2.493-0.063,5.029-0.095,7.561c-0.083,2.533-0.172,5.064-0.25,7.562
				c-0.045,2.495-0.263,4.952-0.153,7.324c0.123,4.745,0.055,9.177,0.083,12.982c-0.018,7.61-0.232,12.72-0.232,12.72
				s-0.563-5.043-1.116-12.663c-0.234-3.811-0.615-8.261-0.828-13.025c-0.16-2.391,0.01-4.854,0-7.355
				c0.029-2.508,0.063-5.055,0.097-7.597c0.088-2.541,0.169-5.083,0.256-7.59c0.11-2.502,0.112-4.967,0.313-7.345
				c0.316-4.761,0.794-9.192,1.112-12.995c0.3-3.798,0.773-6.947,1.054-9.15C139.713,170.36,139.89,169.105,139.89,169.105z"/>
			<path style="fill:#925F2D;" d="M90.836,168.811c0,0,0.565,1.628,1.277,4.057c0.675,2.429,1.489,5.678,2.201,8.921
				c0.354,1.626,0.739,3.241,1.025,4.778c0.367,1.508,0.661,2.936,0.873,4.176c0.588,2.423,0.843,4.146,0.843,4.146
				s-0.939-1.411-2.151-3.702c-0.517-1.172-1.069-2.554-1.61-4.065c-0.491-1.512-0.915-3.158-1.33-4.808
				c-0.703-3.319-1.135-6.686-1.213-9.236C90.662,170.525,90.836,168.811,90.836,168.811z"/>
			<path style="fill:#925F2D;" d="M202.015,184.831c0,0-1.299-1.029-3.848-2.27c-1.274-0.627-2.876-1.275-4.777-1.721
				c-1.886-0.526-4.095-0.646-6.451-0.561c-2.36,0.193-4.839,0.889-7.252,2.086c-2.367,1.296-4.674,3.001-6.747,5.132l-1.554,1.624
				l-0.392,0.413l-0.309,0.405l-0.699,0.949l-1.421,1.904c-0.451,0.651-0.76,1.331-1.146,1.992c-0.36,0.677-0.766,1.321-1.097,2.025
				l-0.872,2.179c-0.67,1.431-0.966,2.997-1.401,4.515c-0.455,1.512-0.58,3.109-0.891,4.657c-0.151,1.57-0.246,3.152-0.32,4.717
				c0.012,3.14,0.235,6.239,0.745,9.206c0.517,2.965,1.155,5.814,1.934,8.476c0.762,2.662,1.699,5.117,2.598,7.378
				c0.993,2.209,1.872,4.261,2.8,6.01c0.838,1.798,1.794,3.245,2.481,4.497c1.524,2.412,2.402,3.791,2.402,3.791
				s-0.256-0.318-0.743-0.921c-0.462-0.599-1.224-1.434-2.054-2.608c-0.79-1.197-1.868-2.58-2.866-4.317
				c-1.091-1.689-2.158-3.682-3.259-5.902c-2.086-4.469-4.234-9.898-5.352-16.046c-0.576-3.062-0.866-6.286-0.935-9.575
				c0.048-1.641,0.121-3.306,0.258-4.968c0.296-1.651,0.398-3.34,0.862-4.962c0.486-1.615,0.847-3.268,1.578-4.797l0.977-2.316
				c0.369-0.758,0.834-1.479,1.244-2.215c0.435-0.713,0.83-1.489,1.296-2.143l1.451-1.882l0.725-0.932l0.399-0.52l0.423-0.424
				l1.674-1.698c2.211-2.256,4.828-3.951,7.448-5.217c2.685-1.175,5.41-1.789,7.947-1.859c2.54,0,4.855,0.34,6.762,1.046
				c1.938,0.631,3.516,1.427,4.753,2.166C200.865,183.643,202.015,184.831,202.015,184.831z"/>
			<path style="fill:#925F2D;" d="M189.176,251.969c0,0-1.777-0.164-4.337-0.015c-1.278,0.055-2.749,0.188-4.3,0.423
				c-1.552,0.234-3.185,0.575-4.778,1.061c-3.206,0.885-6.252,2.33-8.482,3.586c-1.147,0.594-2.072,1.16-2.722,1.569
				c-0.661,0.392-1.065,0.603-1.065,0.603s0.258-0.364,0.756-0.953c0.52-0.572,1.185-1.497,2.229-2.34
				c0.51-0.432,1.024-0.974,1.683-1.376c0.644-0.424,1.298-0.926,2.04-1.333c1.476-0.834,3.148-1.546,4.892-2.065
				c3.507-1.014,7.209-1.085,9.848-0.549C187.602,251.081,189.176,251.969,189.176,251.969z"/>
			<path style="fill:#925F2D;" d="M177.668,258.392c0,0-0.21,0.153-0.585,0.43c-0.377,0.222-0.845,0.671-1.431,1.107
				c-0.57,0.459-1.199,1.016-1.87,1.58c-0.579,0.667-1.367,1.181-1.899,1.942c-0.643,0.667-1.257,1.353-1.735,2.097
				c-0.247,0.358-0.527,0.688-0.786,1.007c-0.298,0.309-0.427,0.68-0.641,0.976c-0.78,1.242-1.487,2.093-1.487,2.093
				s-0.026-1.024,0.214-2.62c0.082-0.388,0.085-0.849,0.304-1.248c0.18-0.423,0.359-0.875,0.589-1.32
				c0.246-0.436,0.413-0.957,0.742-1.362l1.035-1.245c0.674-0.849,1.604-1.443,2.421-2.023c0.401-0.297,0.881-0.452,1.292-0.651
				c0.415-0.193,0.807-0.371,1.201-0.451C176.589,258.261,177.668,258.392,177.668,258.392z"/>
			<path style="fill:#925F2D;" d="M188.636,259.992c0,0-0.693,0.737-1.732,1.709c-1.038,0.963-2.453,2.126-3.713,3.313
				c-0.318,0.288-0.624,0.586-0.908,0.883c-0.218,0.324-0.587,0.58-0.746,0.895c-0.482,0.593-0.714,1.163-0.86,1.731
				c-0.099,0.278-0.021,0.54-0.07,0.813c-0.041,0.281,0.08,0.493,0.122,0.689c0.101,0.397,0.147,0.669,0.147,0.669
				s-0.207-0.124-0.55-0.423c-0.151-0.159-0.413-0.324-0.559-0.623c-0.143-0.282-0.434-0.622-0.47-1.05
				c-0.207-0.841-0.087-1.953,0.396-2.859c0.421-0.964,1.13-1.754,1.848-2.477c1.502-1.383,3.279-2.283,4.678-2.747
				C187.62,260.055,188.636,259.992,188.636,259.992z"/>
		</g>
		<path style="fill:#72451C;" d="M128.984,68.199c0,12.264-8.028,22.2-17.922,22.2c-9.894,0-17.919-9.937-17.919-22.2
			c0-12.259,8.025-22.196,17.919-22.196C120.956,46.003,128.984,55.94,128.984,68.199z"/>
		<path style="fill:#FAF9E8;" d="M120.791,68.199c0,6.66-4.355,12.052-9.729,12.052c-5.373,0-9.727-5.392-9.727-12.052
			c0-6.655,4.354-12.049,9.727-12.049C116.436,56.15,120.791,61.544,120.791,68.199z"/>
		<g>
			<path style="fill:#673121;" d="M108.023,64.24c-0.153,2.538,0.619,4.636,1.726,4.706c1.114,0.067,2.138-1.933,2.285-4.466
				c0.161-2.525-0.621-4.634-1.729-4.7C109.2,59.716,108.177,61.715,108.023,64.24z"/>
			<path style="fill:#FFFFFF;" d="M110.432,62.463c0.015,0.768,0.307,1.381,0.642,1.376c0.34-0.006,0.592-0.639,0.584-1.404
				c-0.021-0.77-0.309-1.385-0.645-1.377C110.678,61.063,110.412,61.695,110.432,62.463z"/>
		</g>
		<g style="opacity:0.5;">
			<path style="fill:#925F2D;" d="M79.164,26.517c-0.413,1.496-2.072,3.173-5.742,5.009C54.09,41.188,39.108,56.967,26.536,83.449
				c-2.967,5.545-5.756,9.027-8.265,11.238c3.28-0.129,7.231-1.493,11.574-4.236c1.153-1.683,2.302-3.615,3.418-5.896
				c9.453-19.322,25.8-44.276,50.095-53.172C83.358,31.383,82.061,28.883,79.164,26.517z"/>
		</g>
		<g style="opacity:0.5;">
			<path style="fill:#925F2D;" d="M148.641,43.856c-10.917-12.909-13.681-21.516-13.664-26.945
				c-2.527,3.247-4.736,7.554-6.486,13.101c8.531,10.388,26.391,31.806,36.436,41.651c0.019-0.161,0.047-0.32,0.068-0.483
				c0,0,22.744,22.744,31.272,16.251c1.114-0.851,1.963-2.143,2.547-3.775C188.98,86.725,166.271,64.71,148.641,43.856z"/>
		</g>
		<g>
			<path style="fill:#F7F5DF;" d="M138.566,268.134c-0.02-0.699-0.064-1.15-0.064-1.15S138.505,267.459,138.566,268.134z"/>
			<path style="fill:#E5E2D1;" d="M175.696,252.518c0,0,0,0-2.302-4.073c-32.816-1.961-36.059-36.407-36.059-36.407
				c-0.612,26.279,0.297,47.728-11.481,47.125c-11.78-0.606-13.288-40.782-13.288-70.689c-9.368,15.71-19.334-3.921-19.334-3.921
				c-10.573,34.436-7.854,72.797-7.854,72.797s9.062,7.854,6.345,12.387c-2.717,4.527-7.853,1.508-7.853,1.508
				c-0.095,2.698-1.106,4.759-2.457,6.328c2.31,3.554,6.351,2.362,7.459-5.022c6.488,9.275,12.988-2.317,0-15.771
				c-1.86-35.722,7.415-62.163,7.415-62.163s5.573,16.698,15.775,29.229c2.783,26.44,4.642,36.178,4.642,36.178
				s-2.33,3.78-3.433,7.888c1.165-2.611,2.971-5.518,5.659-5.802c5.448-0.573,4.9,6.431,3.6,9.424
				c-0.987,2.288-2.395,4.418-3.855,6.441c5.365,0.206,7.768-7.28,7.768-7.28s0.695,1.97,2.023,3.766
				c0.369-4.109,1.768-7.838,6.002-10.225c0.186-0.106,0.291-0.191,0.392,0.03c1.336,2.886,2.259,5.905,3.069,8.969
				c0.585-1.844,0.663-3.868,0.637-5.1c-0.061-0.675-0.064-1.15-0.064-1.15s0.045,0.451,0.064,1.15
				c0.117,1.407,0.484,3.709,1.602,4.543c-1.713-5.313-2.332-10.809,0.316-14.939c-1.089-1.948-1.983-3.279-1.983-3.279v-4.174
				c0,0,14.387,9.737,25.512,7.883c-0.548,0.612-1.018,1.203-1.445,1.77C168.973,254.472,175.696,252.518,175.696,252.518z"/>
		</g>
		<g>
			<path style="fill:#E5E2D1;" d="M231.142,219.235c0.445,11.862-2.886,29.907-27.158,30.627
				c11.363,6.127,0.216,19.679-11.149,20.554c-8.743,0.874-14.477-2.344-5.93-8.715c-10.682,2.592-8.719,10.897-15.271,10.682
				c-6.554-0.22-3.905-5.941,3.398-13.683c-6.481,3.847-10.337,8.061-14.268,9.783c1.189,1.554,3.565,2.158,6.036,1.749
				c1.393,8.35,12.061,4.174,14.383,1.387c0,0,8.35,6.03,25.975-0.926c17.624-6.955,16.702-13.914,6.958-18.095
				C225.515,251.888,235.804,241.034,231.142,219.235z"/>
		</g>
	</g>
</g>
</svg>
