<?xml version="1.0" encoding="iso-8859-1"?>
<!-- Uploaded to: SVG Repo, www.svgrepo.com, Generator: SVG Repo Mixer Tools -->
<svg version="1.1" id="Layer_1" xmlns="http://www.w3.org/2000/svg" xmlns:xlink="http://www.w3.org/1999/xlink" 
	 viewBox="0 0 512 512" xml:space="preserve">
<rect x="452.36" y="115.341" style="fill:#875B51;" width="16.879" height="56.264"/>
<polygon style="fill:#55B9D3;" points="512,163.165 512,222.242 500.747,230.681 512,239.121 512,289.758 500.747,298.198 
	512,306.637 512,512 478.242,512 410.725,298.76 478.242,163.165 "/>
<polygon style="fill:#8CE6FE;" points="478.242,163.165 478.242,512 0,512 0,374.154 11.253,365.714 0,357.275 0,205.363 
	11.253,196.923 0,188.484 0,163.165 256,106.901 398.752,163.165 "/>
<polygon style="fill:#FFD686;" points="377.879,469.24 391.033,512 357.275,512 313.648,435.481 "/>
<polygon style="fill:#FFEDC6;" points="347.406,469.24 357.275,512 120.967,512 134.122,469.24 240.764,446.734 "/>
<polygon style="fill:#FEC14D;" points="364.724,426.479 377.879,469.24 347.406,469.24 303.779,392.721 "/>
<g>
	<polygon style="fill:#FFD686;" points="337.537,426.479 347.406,469.24 134.122,469.24 147.276,426.479 256,403.974 	"/>
	<polygon style="fill:#FFD686;" points="364.724,426.479 337.537,426.479 293.911,349.96 351.558,383.719 	"/>
</g>
<polygon style="fill:#FFEDC6;" points="327.669,383.719 337.537,426.479 147.276,426.479 160.442,383.719 244.055,361.213 "/>
<polygon style="fill:#FEC14D;" points="338.404,340.958 351.558,383.719 327.669,383.719 284.042,307.2 "/>
<g>
	<polygon style="fill:#FFD686;" points="317.8,340.958 327.669,383.719 160.442,383.719 173.596,340.958 245.698,318.453 	"/>
	<polygon style="fill:#FFD686;" points="325.249,298.198 338.404,340.958 317.8,340.958 290.264,319.578 307.931,298.198 	"/>
</g>
<polygon style="fill:#FFEDC6;" points="307.931,298.198 317.8,340.958 173.596,340.958 186.751,298.198 "/>
<path style="fill:#7F9058;" d="M367.267,108.083c-9.205-16.125-31.935-29.313-50.502-29.313h-33.758l81.988,84.384l33.758,0.011
	L367.267,108.083z"/>
<path style="fill:#95AC66;" d="M364.994,163.154l-165.258-0.023V78.769h83.27c18.567,0,41.298,13.188,50.502,29.313L364.994,163.154
	z"/>
<path style="fill:#AAC36D;" d="M247.054,108.128l-19.321-33.803c-9.205-16.125-31.935-29.313-50.502-29.313h-33.758l101.275,118.154
	h33.758L247.054,108.128z"/>
<path style="fill:#BFDB74;" d="M193.975,74.324l50.772,88.84H0V45.011h143.473C162.04,45.011,184.77,58.199,193.975,74.324z"/>
<polygon style="fill:#AAC36D;" points="460.8,0 512,123.78 460.8,123.78 449.547,81.582 "/>
<polygon style="fill:#CAED73;" points="460.8,0 460.8,123.78 409.6,123.78 "/>
<g>
	<path style="fill:#FFFFFF;" d="M421.978,188.484H0v16.879h421.978c4.662,0,8.44-3.779,8.44-8.44
		C430.418,192.262,426.64,188.484,421.978,188.484z"/>
	<path style="fill:#FFFFFF;" d="M225.055,222.242c-4.662,0-8.44,3.779-8.44,8.44c0,4.661,3.778,8.44,8.44,8.44H512v-16.879H225.055z
		"/>
	<path style="fill:#FFFFFF;" d="M191.297,239.121H90.022c-4.662,0-8.44-3.779-8.44-8.44c0-4.661,3.778-8.44,8.44-8.44h101.275
		c4.662,0,8.44,3.779,8.44,8.44C199.736,235.342,195.959,239.121,191.297,239.121z"/>
	<path style="fill:#FFFFFF;" d="M360.567,289.758c-4.662,0-8.44,3.779-8.44,8.44s3.778,8.44,8.44,8.44H512v-16.879H360.567z"/>
	<path style="fill:#FFFFFF;" d="M130.995,357.275H0v16.879h130.995c4.662,0,8.44-3.779,8.44-8.44S135.658,357.275,130.995,357.275z"
		/>
	<path style="fill:#FFFFFF;" d="M120.27,407.912H67.516c-4.662,0-8.44-3.779-8.44-8.44s3.778-8.44,8.44-8.44h52.754
		c4.662,0,8.44,3.779,8.44,8.44S124.931,407.912,120.27,407.912z"/>
</g>
</svg>