<?xml version="1.0" encoding="iso-8859-1"?>
<!-- Uploaded to: SVG Repo, www.svgrepo.com, Generator: SVG Repo Mixer Tools -->
<svg version="1.1" id="Layer_1" xmlns="http://www.w3.org/2000/svg" xmlns:xlink="http://www.w3.org/1999/xlink" 
	 viewBox="0 0 512 512" xml:space="preserve">
<g>
	<path style="fill:#F7B239;" d="M119.545,229.928l-27.658-76.781c-4.665-12.952-2.724-27.409,5.191-38.673
		c7.916-11.266,20.865-17.992,34.637-17.992h70.897v17.867h-70.897c-8.078,0-15.374,3.79-20.018,10.397
		c-4.641,6.605-5.734,14.75-2.999,22.346l27.658,76.78L119.545,229.928z"/>
	<path style="fill:#F7B239;" d="M392.449,229.928l-16.809-6.055l27.658-76.781c2.74-7.597,1.651-15.739-2.987-22.343
		c-4.642-6.61-11.939-10.4-20.018-10.4h-70.909V96.482h70.909c13.774,0,26.724,6.728,34.64,17.997
		c7.912,11.265,9.846,25.722,5.176,38.672L392.449,229.928z"/>
	<path style="fill:#F7B239;" d="M351.905,5.491c3.395,3.395,5.491,8.088,5.491,13.269c0,10.363-8.398,18.76-18.76,18.76h-1.346
		H174.71h-1.334c-5.181,0-9.875-2.096-13.269-5.491s-5.491-8.088-5.491-13.269c0-10.363,8.398-18.76,18.76-18.76h165.259
		C343.817,0,348.51,2.096,351.905,5.491z"/>
</g>
<path style="fill:#E09B2D;" d="M197.495,18.76c0-10.363,8.398-18.76,18.76-18.76h-42.879c-10.363,0-18.76,8.398-18.76,18.76
	c0,5.181,2.096,9.875,5.491,13.269c3.395,3.395,8.088,5.491,13.269,5.491h1.334h41.545c-5.181,0-9.875-2.096-13.269-5.491
	C199.591,28.635,197.495,23.942,197.495,18.76z"/>
<path style="fill:#F7B239;" d="M180.071,321.429c-41.785-19.463-69.682-54.519-69.682-94.529c0-42.679,31.732-79.699,78.21-98.21
	l-3.55-23.275L174.71,37.521h162.579l-10.339,67.895l-3.55,23.275c46.49,18.51,78.21,55.531,78.21,98.21
	c0,40.01-27.885,75.066-69.682,94.529v32.328H180.071L180.071,321.429L180.071,321.429z"/>
<path style="fill:#E09B2D;" d="M140.428,226.9c0-42.679,31.732-79.699,78.21-98.21l-3.55-23.275L204.75,37.521H174.71l10.339,67.895
	l3.55,23.275c-46.478,18.51-78.21,55.531-78.21,98.21c0,40.01,27.897,75.066,69.682,94.529v32.328h30.039v-32.328
	C168.325,301.966,140.428,266.911,140.428,226.9z"/>
<rect x="147.07" y="393.053" style="fill:#CCCCCC;" width="217.848" height="118.947"/>
<rect x="147.07" y="380.498" style="fill:#999999;" width="217.848" height="39.355"/>
<polygon style="fill:#B3B3B3;" points="391.343,351.97 391.343,393.053 364.924,393.053 147.076,393.053 120.668,393.053 
	120.668,351.97 180.071,351.97 331.929,351.97 "/>
</svg>