<?xml version="1.0" encoding="iso-8859-1"?>
<!-- Uploaded to: SVG Repo, www.svgrepo.com, Generator: SVG Repo Mixer Tools -->
<svg version="1.1" id="Layer_1" xmlns="http://www.w3.org/2000/svg" xmlns:xlink="http://www.w3.org/1999/xlink" 
	 viewBox="0 0 512 512" xml:space="preserve">
<g>
	<rect x="471.149" y="8.17" style="fill:#F1ECDE;" width="32.681" height="495.66"/>
	<polygon style="fill:#F1ECDE;" points="503.83,8.17 503.83,503.83 471.149,503.83 438.468,256 471.149,8.17 	"/>
</g>
<polygon style="fill:#E2D8BD;" points="471.149,8.17 471.149,503.83 438.468,503.83 405.787,256 438.468,8.17 "/>
<polygon style="fill:#F1ECDE;" points="438.468,8.17 438.468,503.83 405.787,503.83 373.106,256 405.787,8.17 "/>
<path style="fill:#F16831;" d="M405.787,8.17v495.66H24.511c-9.02,0-16.34-7.321-16.34-16.34c0-9.02,7.321-16.34,16.34-16.34V40.851
	c-9.02,0-16.34-7.321-16.34-16.34s7.321-16.34,16.34-16.34H405.787z"/>
<path style="fill:#FCD197;" d="M373.106,73.532v364.936c-18.051,0-32.681,14.63-32.681,32.681H89.872
	c0-18.051-14.63-32.681-32.681-32.681V73.532c18.051,0,32.681-14.63,32.681-32.681h250.553
	C340.426,58.902,355.056,73.532,373.106,73.532z"/>
<path style="fill:#68615B;" d="M286.298,215.475H143.999c-13.39,16.058-21.446,36.72-21.446,59.263
	c0,51.139,41.457,92.596,92.596,92.596s92.596-41.457,92.596-92.596C307.745,252.195,299.689,231.533,286.298,215.475z"/>
<g>
	<path style="fill:#440852;" d="M140.631,342.499l-8.815,21.77c-1.694,4.182,0.324,8.946,4.507,10.64
		c1.004,0.406,2.043,0.599,3.064,0.599c3.23,0,6.289-1.929,7.575-5.107l6.497-16.044c17.059,13.248,38.469,21.149,61.691,21.149
		s44.631-7.9,61.691-21.149l6.497,16.044c1.288,3.179,4.345,5.107,7.577,5.107c1.021,0,2.059-0.193,3.063-0.599
		c4.183-1.694,6.2-6.458,4.508-10.64l-8.815-21.771c16.297-17.908,26.245-41.694,26.245-67.759c0-18.752-5.276-37.093-15.026-52.907
		c1.855-1.498,3.043-3.788,3.043-6.358c0-4.513-3.657-8.17-8.17-8.17h-9.498c-0.02,0-122.859,0-122.859,0v-24.511
		c0-28.531,23.213-51.745,51.745-51.745s51.745,23.213,51.745,51.745v10.894c0,4.513,3.657,8.17,8.17,8.17
		c4.513,0,8.17-3.657,8.17-8.17v-10.894c0-37.543-30.544-68.085-68.085-68.085s-68.085,30.542-68.085,68.085v24.511h-3.001
		c-0.037,0-9.526,0-9.526,0c-4.512,0-8.17,3.657-8.17,8.17c0,2.57,1.188,4.86,3.044,6.358c-9.75,15.814-15.027,34.155-15.027,52.907
		C114.383,300.804,124.332,324.589,140.631,342.499z M215.149,359.164c-46.552,0-84.426-37.874-84.426-84.426
		c0-18.466,6.088-36.464,17.213-51.093h134.425c11.125,14.629,17.213,32.628,17.213,51.093
		C299.574,321.291,261.701,359.164,215.149,359.164z"/>
	<path style="fill:#440852;" d="M479.321,471.149V40.851c0-4.513-3.657-8.17-8.17-8.17c-4.513,0-8.17,3.657-8.17,8.17v430.298
		c0,4.513,3.657,8.17,8.17,8.17C475.664,479.319,479.321,475.662,479.321,471.149z"/>
	<path style="fill:#440852;" d="M438.47,479.319c4.513,0,8.17-3.657,8.17-8.17V40.851c0-4.513-3.657-8.17-8.17-8.17
		c-4.513,0-8.17,3.657-8.17,8.17v430.298C430.3,475.662,433.957,479.319,438.47,479.319z"/>
	<path style="fill:#440852;" d="M405.787,0H24.511C10.995,0,0,10.996,0,24.511c0,10.652,6.83,19.738,16.34,23.111v416.757
		C6.83,467.751,0,476.838,0,487.489C0,501.004,10.995,512,24.511,512h381.277c4.513,0,8.17-3.657,8.17-8.17V8.17
		C413.957,3.657,410.3,0,405.787,0z M397.617,495.66H24.511c-4.506,0-8.17-3.665-8.17-8.17s3.665-8.17,8.17-8.17
		c4.512,0,8.17-3.657,8.17-8.17V40.851c0-4.513-3.658-8.17-8.17-8.17c-4.506,0-8.17-3.665-8.17-8.17s3.665-8.17,8.17-8.17h373.106
		V495.66z"/>
	<path style="fill:#440852;" d="M503.83,0h-65.362c-4.513,0-8.17,3.657-8.17,8.17s3.657,8.17,8.17,8.17h57.191V495.66h-57.191
		c-4.513,0-8.17,3.657-8.17,8.17s3.657,8.17,8.17,8.17h65.362c4.513,0,8.17-3.657,8.17-8.17V8.17C512,3.657,508.343,0,503.83,0z"/>
	<path style="fill:#440852;" d="M57.191,446.638c13.516,0,24.511,10.996,24.511,24.511c0,4.513,3.658,8.17,8.17,8.17h250.553
		c4.513,0,8.17-3.657,8.17-8.17c0-13.515,10.996-24.511,24.511-24.511c4.513,0,8.17-3.657,8.17-8.17V73.532
		c0-4.513-3.657-8.17-8.17-8.17c-13.515,0-24.511-10.996-24.511-24.511c0-4.513-3.657-8.17-8.17-8.17H89.872
		c-4.512,0-8.17,3.657-8.17,8.17c0,13.515-10.995,24.511-24.511,24.511c-4.512,0-8.17,3.657-8.17,8.17v364.936
		C49.021,442.981,52.679,446.638,57.191,446.638z M65.362,80.882c15.982-3.258,28.602-15.879,31.861-31.861h235.853
		c3.258,15.982,15.879,28.602,31.861,31.861v350.236c-15.982,3.258-28.602,15.879-31.861,31.861H97.222
		c-3.257-15.982-15.879-28.602-31.861-31.861V80.882z"/>
</g>
</svg>