<?xml version="1.0" encoding="utf-8"?>
<!-- Uploaded to: SVG Repo, www.svgrepo.com, Generator: SVG Repo Mixer Tools -->
<svg width="800px" height="800px" viewBox="0 0 1024 1024" class="icon"  version="1.1" xmlns="http://www.w3.org/2000/svg"><path d="M511.259731 945.030797c-18.83949 0-33.911082-15.280465-33.911082-33.911082V647.994497h67.822164v263.125218c0 18.83949-15.071592 33.911082-33.911082 33.911082z" fill="#F9AC82" /><path d="M504.142704 857.112835c-6.908154 0-12.560001-5.651847-12.560001-12.560001V677.510039c0-6.908154 5.651847-12.560001 12.560001-12.560001s12.560001 5.651847 12.560001 12.560001v167.043819c0 7.116003-5.442974 12.558977-12.560001 12.558977zM504.142704 919.701921c-6.908154 0-12.560001-5.651847-12.560001-12.560001v-23.026157c0-6.908154 5.651847-12.560001 12.560001-12.560001s12.560001 5.651847 12.560001 12.560001v23.026157c0 6.908154-5.442974 12.560001-12.560001 12.560001z" fill="#F8BC95" /><path d="M561.079943 718.119379h-99.430528c-63.426624 0-114.920889-51.494265-114.920889-114.920889V190.403763c0-63.426624 51.494265-114.920889 114.920889-114.920889h99.430528c63.426624 0 114.920889 51.494265 114.920889 114.920889v413.003599c0 63.216728-51.495289 114.712016-114.920889 114.712017z" fill="#703E28" /><path d="M561.079943 62.923897h-99.430528c-70.333755 0-127.48089 57.146112-127.48089 127.48089v413.003599c0 70.333755 57.146112 127.48089 127.48089 127.48089h3.349129v180.440335c0 25.537748 20.932312 46.471083 46.471083 46.471083s46.471083-20.932312 46.471084-46.471083V730.888253h3.349129c70.333755 0 127.48089-57.146112 127.48089-127.480891V190.403763c-0.21092-70.333755-57.565905-127.479866-127.690787-127.479866z m-28.469131 848.194794c0 11.722463-9.628618 21.351081-21.351081 21.35108-11.722463 0-21.351081-9.628618-21.351081-21.35108V730.678356h42.703185v180.440335z m130.830019-307.920201c0 56.51847-45.842418 102.360888-102.360888 102.360887h-99.430528c-56.51847 0-102.360888-45.842418-102.360887-102.360887V190.403763c0-56.51847 45.842418-102.360888 102.360887-102.360888h99.430528c56.51847 0 102.360888 45.842418 102.360888 102.360888v412.794727z" fill="#1A3F6F" /><path d="M385.872686 624.96834c-6.908154 0-12.560001-5.651847-12.560001-12.560002V202.544995c0-52.750572 42.912058-95.66263 95.66263-95.66263 6.908154 0 12.560001 5.651847 12.560001 12.560001s-5.651847 12.560001-12.560001 12.560002c-38.935287 0-70.543651 31.608364-70.543651 70.543651V612.409362c0 6.90713-5.651847 12.558977-12.558978 12.558978z" fill="#804830" /><path d="M617.179644 208.196842c-4.605436 0-9.210872-2.511591-11.303694-7.117027l-19.467132-39.981698c-3.140256-6.279489-0.418769-13.815285 5.86072-16.746668 6.279489-3.140256 13.815285-0.418769 16.746668 5.860719l19.467132 39.771802c3.140256 6.279489 0.418769 13.815285-5.86072 16.746668-1.675076 1.047435-3.559025 1.466204-5.442974 1.466204zM408.480074 331.699938c-4.605436 0-9.210872-2.511591-11.303694-7.117027l-19.467131-39.981698c-3.140256-6.279489-0.418769-13.815285 5.860719-16.746669 6.279489-3.140256 13.815285-0.418769 16.746669 5.86072l19.467131 39.981698c3.140256 6.279489 0.418769 13.815285-5.860719 16.746668-1.884973 0.837538-3.768922 1.256307-5.442975 1.256308zM418.108692 220.546947c-4.605436 0-9.210872-2.511591-11.303694-7.117027l-19.467132-39.981698c-3.140256-6.279489-0.418769-13.815285 5.86072-16.746669 6.279489-3.140256 13.815285-0.418769 16.746668 5.86072l19.467132 39.981698c3.140256 6.279489 0.418769 13.815285-5.86072 16.746668-1.675076 0.837538-3.559025 1.256307-5.442974 1.256308zM485.721983 200.452173c-3.976771 0-7.954565-1.883949-10.466156-5.651847-3.767898-5.86072-2.302718-13.606412 3.559026-17.37431l37.051338-24.700209c5.86072-3.767898 13.606412-2.302718 17.37431 3.559025 3.767898 5.86072 2.302718 13.606412-3.559025 17.37431l-37.051339 24.70021c-2.093845 1.464156-4.605436 2.092822-6.908154 2.092821zM390.268226 429.456413c-3.976771 0-7.954565-1.883949-10.466156-5.651847-3.767898-5.86072-2.302718-13.606412 3.559026-17.37431l37.051338-24.70021c5.86072-3.767898 13.606412-2.302718 17.37431 3.559026 3.767898 5.86072 2.302718 13.606412-3.559026 17.37431l-37.051338 24.700209c-2.093845 1.255283-4.396564 2.092822-6.908154 2.092822zM588.920409 336.305374c-3.976771 0-7.954565-1.883949-10.466156-5.651847-3.767898-5.86072-2.302718-13.606412 3.559026-17.37431l37.051338-24.70021c5.86072-3.767898 13.606412-2.302718 17.37431 3.559026s2.302718 13.606412-3.559026 17.37431l-37.051338 24.700209c-2.093845 1.46518-4.396564 2.092822-6.908154 2.092822zM528.634041 297.370087c-0.837538 0-1.46518 0-2.302718-0.208873l-51.285392-9.210872c-6.908154-1.256307-11.303694-7.744669-10.047387-14.652823 1.256307-6.908154 7.744669-11.303694 14.652823-10.047387l51.285392 9.210872c6.908154 1.256307 11.303694 7.744669 10.047387 14.652823-1.046411 6.070616-6.279489 10.256259-12.350105 10.25626zM642.927288 426.316157c-0.837538 0-1.46518 0-2.302718-0.208873l-51.285392-9.210872c-6.908154-1.256307-11.303694-7.744669-10.047387-14.652823s7.744669-11.303694 14.652823-10.047387l51.285392 9.210872c6.908154 1.256307 11.303694 7.744669 10.047387 14.652823-1.046411 6.069592-6.280513 10.256259-12.350105 10.25626zM503.096293 417.106308c-0.627642 0-1.46518 0-2.302718-0.208873-6.908154-1.256307-11.303694-7.744669-10.257283-14.652822l8.163438-46.679956c1.256307-6.908154 7.744669-11.303694 14.652823-10.257283 6.908154 1.256307 11.303694 7.744669 10.257283 14.652822l-8.163438 46.679956c-1.046411 6.279489-6.489385 10.466156-12.350105 10.466156z" fill="#633621" /></svg>