<?xml version="1.0" encoding="utf-8"?>
<!-- Uploaded to: SVG Repo, www.svgrepo.com, Generator: SVG Repo Mixer Tools -->
<svg width="800px" height="800px" viewBox="0 0 128 128" xmlns="http://www.w3.org/2000/svg" xmlns:xlink="http://www.w3.org/1999/xlink" aria-hidden="true" role="img" class="iconify iconify--noto" preserveAspectRatio="xMidYMid meet">
<path d="M106.15 14.34l-6.49-7.9l-6.49 7.9l-6.49-7.9l-6.49 7.9l-6.49-7.9l-6.49 7.9l-6.49-7.9l-6.49 7.9l-6.49-7.9l-6.49 7.9l-6.49-7.9l-6.49 7.9l-6.79-8.26h-.67l.11 116.04l79.08.12c16.68 0 13.34-34.81 13.34-34.81l.02-81.36h-.38l-6.83 8.27z" fill="#ffffff">
</path>
<circle cx="65.6" cy="31.23" r="8" fill="#94d1e0">
</circle>
<g fill="none" stroke="#82aec0" stroke-width="4" stroke-linecap="round" stroke-miterlimit="10">
<path d="M32.41 47.62h38.48">
</path>
<path d="M88.44 47.62h11.69">
</path>
</g>
<g fill="none" stroke="#82aec0" stroke-width="4" stroke-linecap="round" stroke-miterlimit="10">
<path d="M88.44 60.76h11.69">
</path>
<path d="M59.32 60.76h10.57">
</path>
<path d="M32.41 60.76h17.62">
</path>
</g>
<path fill="none" stroke="#82aec0" stroke-width="4" stroke-linecap="round" stroke-miterlimit="10" d="M82.12 97.94h18.01">
</path>
<g fill="none" stroke="#82aec0" stroke-width="4" stroke-linecap="round" stroke-miterlimit="10">
<path d="M88.44 73.9h11.69">
</path>
<path d="M32.41 73.9h31.16">
</path>
</g>
<g fill="none" stroke="#82aec0" stroke-width="4" stroke-linecap="round" stroke-miterlimit="10">
<path d="M32.81 87.04h.4">
</path>
<path stroke-dasharray=".751,7.5103" d="M40.72 87.04h54.07">
</path>
<path d="M98.55 87.04h.4">
</path>
</g>
<path d="M115.12 3.04h-.25c-.08 0-1.49.03-3.7 2.4l-5.01 6.1l-6.5-7.9l-6.49 7.9l-6.5-7.9l-6.49 7.9l-6.5-7.9l-6.49 7.9l-6.49-7.9l-6.49 7.9l-6.49-7.9l-6.49 7.9l-6.49-7.9l-6.49 7.89l-3.38-4.34c-3.44-4.13-5.59-3.74-5.68-3.73l-.2.04l.1 103.08l-5.39 5.87l-5.76-6.91s-3.48 5.03 1.01 11.83c3.59 5.45 15.05 4.89 19.73 4.89l67.97.06c11.55-.07 14.7-2.51 16.94-12.86c1.54-7.13 1.53-17.64 1.53-21.6V3.04zM70.69 105.55l-6.33 6.91l-6.33-6.91l-6.33 6.91l-6.33-6.91l-6.33 6.91l-6.33-6.91l-6.33 6.91l-3.69-4.03l-.09-98.17l5.66 6.88l6.49-7.9l6.49 7.9l6.49-7.9l6.49 7.9l6.49-7.9l6.49 7.9l6.49-7.9l6.5 7.9l6.49-7.9l6.5 7.9l6.49-7.9l6.5 7.9l5.37-6.54l-.02 76.76v.9c.01 4.18.05 13.98-1.45 20.44c-1.54 6.69-3.97 9.39-8.95 9.97c-1.48.17-9.25.36-16.45-13.1c-.12-.23-.31-.18-.35-.17c-.01 0-.02.01-.03.01c-.07-.3-.11-.48-.11-.48l-7.15 7.52l-6.34-6.9z" fill="#6fbff0">
</path>
</svg>