<?xml version="1.0" encoding="utf-8"?><!-- Uploaded to: SVG Repo, www.svgrepo.com, Generator: SVG Repo Mixer Tools -->
<svg width="800px" height="800px" viewBox="0 0 400 400" fill="none" xmlns="http://www.w3.org/2000/svg">
<path d="M143.553 190.128C127.589 248.728 105.077 302.601 99.98 363.176" stroke="#000000" stroke-opacity="0.9" stroke-width="16" stroke-linecap="round" stroke-linejoin="round"/>
<path d="M135.4 160.496C137.501 153.242 151.459 154.323 158.001 160.496C182.8 183.885 129.061 208.742 135.4 176.864" stroke="#000000" stroke-opacity="0.9" stroke-width="16" stroke-linecap="round" stroke-linejoin="round"/>
<path d="M185.88 89.2876C183.253 102.336 181.114 115.393 177.166 127.881" stroke="#000000" stroke-opacity="0.9" stroke-width="4" stroke-linecap="round" stroke-linejoin="round"/>
<path d="M177.224 99.2473C177.896 101.071 178.803 102.586 179.599 104.227" stroke="#000000" stroke-opacity="0.9" stroke-width="4" stroke-linecap="round" stroke-linejoin="round"/>
<path d="M183.392 106.366C185.756 104.658 188.379 103.547 190.861 102.088" stroke="#000000" stroke-opacity="0.9" stroke-width="4" stroke-linecap="round" stroke-linejoin="round"/>
<path d="M244.394 78.0833C237.866 84.1276 232.649 91.1314 225.72 96.7574" stroke="#000000" stroke-opacity="0.9" stroke-width="4" stroke-linecap="round" stroke-linejoin="round"/>
<path d="M234.87 78.0833C234.621 81.8646 235.555 83.934 236.533 86.7979" stroke="#000000" stroke-opacity="0.9" stroke-width="4" stroke-linecap="round" stroke-linejoin="round"/>
<path d="M238.168 86.5415C241.048 87.4628 244.071 86.8204 246.883 87.0146" stroke="#000000" stroke-opacity="0.9" stroke-width="4" stroke-linecap="round" stroke-linejoin="round"/>
<path d="M299.169 37C297.23 44.2287 294.604 51.2703 291.699 58.1641" stroke="#000000" stroke-opacity="0.9" stroke-width="4" stroke-linecap="round" stroke-linejoin="round"/>
<path d="M290.458 45.3452C294.473 50.8877 298.727 48.2086 304.152 45.3452" stroke="#000000" stroke-opacity="0.9" stroke-width="4" stroke-linecap="round" stroke-linejoin="round"/>
<path d="M142.306 132.861C139.925 125.561 136.719 119.171 134.836 111.697" stroke="#000000" stroke-opacity="0.9" stroke-width="4" stroke-linecap="round" stroke-linejoin="round"/>
<path d="M144.797 112.942C144.038 122.467 138.481 120.168 131.103 120.168" stroke="#000000" stroke-opacity="0.9" stroke-width="4" stroke-linecap="round" stroke-linejoin="round"/>
<path d="M112.428 131.616C119.286 135.349 122.757 142.105 129.857 145.31" stroke="#000000" stroke-opacity="0.9" stroke-width="4" stroke-linecap="round" stroke-linejoin="round"/>
<path d="M117.002 125.391C117.929 133.395 117.6 135.415 112.428 137.841" stroke="#000000" stroke-opacity="0.9" stroke-width="4" stroke-linecap="round" stroke-linejoin="round"/>
<path d="M116.164 163.214C109.064 163.044 102.024 162.634 95 162.265" stroke="#000000" stroke-opacity="0.9" stroke-width="4" stroke-linecap="round" stroke-linejoin="round"/>
<path d="M103.913 154.025C110.506 160.478 107.125 163.305 99.98 167.719" stroke="#000000" stroke-opacity="0.9" stroke-width="4" stroke-linecap="round" stroke-linejoin="round"/>
<path d="M113.674 185.148C109.232 187.792 104.418 190.381 99.98 192.618" stroke="#000000" stroke-opacity="0.9" stroke-width="4" stroke-linecap="round" stroke-linejoin="round"/>
<path d="M105.447 183.904C107.967 188.262 106.834 191.129 105.683 196.353" stroke="#000000" stroke-opacity="0.9" stroke-width="4" stroke-linecap="round" stroke-linejoin="round"/>
<path d="M122.389 197.598C118.362 204.957 112.916 211.872 108.694 218.762" stroke="#000000" stroke-opacity="0.9" stroke-width="4" stroke-linecap="round" stroke-linejoin="round"/>
<path d="M108.694 207.572C115.826 207.235 115.204 212.704 116.164 220.007" stroke="#000000" stroke-opacity="0.9" stroke-width="4" stroke-linecap="round" stroke-linejoin="round"/>
<path d="M182.146 166.826C191.977 165.102 198.741 170.074 207.044 173.944" stroke="#000000" stroke-opacity="0.9" stroke-width="4" stroke-linecap="round" stroke-linejoin="round"/>
<path d="M200.82 167.719C194.857 170.067 194.753 170.946 197.86 176.434" stroke="#000000" stroke-opacity="0.9" stroke-width="4" stroke-linecap="round" stroke-linejoin="round"/>
<path d="M178.412 192.618C184.615 197.982 189.123 205.565 195.841 210.047" stroke="#000000" stroke-opacity="0.9" stroke-width="4" stroke-linecap="round" stroke-linejoin="round"/>
<path d="M195.841 197.598C189.403 198.823 188.372 198.56 188.372 205.068" stroke="#000000" stroke-opacity="0.9" stroke-width="4" stroke-linecap="round" stroke-linejoin="round"/>
<path d="M160.608 198.843C160.08 204.823 162.202 210.629 163.93 216.272" stroke="#000000" stroke-opacity="0.9" stroke-width="4" stroke-linecap="round" stroke-linejoin="round"/>
<path d="M168.452 204.138C162.428 202.54 159.834 207.342 156.003 211.292" stroke="#000000" stroke-opacity="0.9" stroke-width="4" stroke-linecap="round" stroke-linejoin="round"/>
</svg>