<?xml version="1.0" encoding="utf-8"?>
<!-- Uploaded to: SVG Repo, www.svgrepo.com, Generator: SVG Repo Mixer Tools -->
<svg width="800px" height="800px" viewBox="0 0 1024 1024" class="icon"  version="1.1" xmlns="http://www.w3.org/2000/svg"><path d="M429.4 379.1c-4.8 0-8.8-3.9-8.8-8.8V170.9c0-4.8 3.9-8.8 8.8-8.8 4.8 0 8.8 3.9 8.8 8.8v199.4c0 4.8-3.9 8.8-8.8 8.8zM595.5 379.1c-4.8 0-8.8-3.9-8.8-8.8V170.9c0-4.8 3.9-8.8 8.8-8.8 4.8 0 8.8 3.9 8.8 8.8v199.4c0 4.8-3.9 8.8-8.8 8.8z" fill="#C4270C" /><path d="M277.4 906.3h-92.6c-4.8 0-8.8-3.9-8.8-8.8v-42.7c0-4.8 3.9-8.8 8.8-8.8h92.6c4.8 0 8.8 3.9 8.8 8.8v42.7c0 4.9-4 8.8-8.8 8.8z" fill="#4C4C4C" /><path d="M277.4 918.6h-92.6c-11.6 0-21.1-9.4-21.1-21.1v-42.7c0-11.6 9.4-21.1 21.1-21.1h92.6c11.6 0 21.1 9.4 21.1 21.1v42.7c-0.1 11.7-9.5 21.1-21.1 21.1zM188.3 894h85.6v-35.7h-85.6V894z" fill="#3F3F3F" /><path d="M836.5 906.3h-92.6c-4.8 0-8.8-3.9-8.8-8.8v-42.7c0-4.8 3.9-8.8 8.8-8.8h92.6c4.8 0 8.8 3.9 8.8 8.8v42.7c0 4.9-4 8.8-8.8 8.8z" fill="#4C4C4C" /><path d="M836.5 918.6h-92.6c-11.6 0-21.1-9.4-21.1-21.1v-42.7c0-11.6 9.4-21.1 21.1-21.1h92.6c11.6 0 21.1 9.4 21.1 21.1v42.7c-0.1 11.7-9.5 21.1-21.1 21.1zM747.3 894H833v-35.7h-85.6V894z" fill="#3F3F3F" /><path d="M917.3 882H106.7c-23.2 0-42.1-18.9-42.1-42.1V324.1c0-23.2 18.9-42.1 42.1-42.1h810.6c23.2 0 42.1 18.9 42.1 42.1v515.8c0 23.2-19 42.1-42.1 42.1z" fill="#F35426" /><path d="M154.168 532.046l213.226-84.36 50.77 128.327-213.225 84.36z" fill="#259FC7" /><path d="M399.6 588.5m-85.4 0a85.4 85.4 0 1 0 170.8 0 85.4 85.4 0 1 0-170.8 0Z" fill="#F5B23A" /><path d="M885.7 814.2c-7.7 0-14-6.3-14-14V452.3c0-7.7 6.3-14 14-14s14 6.3 14 14v347.9c0 7.7-6.3 14-14 14zM885.7 411.8c-7.7 0-14-6.3-14-14v-40.3c0-7.7 6.3-14 14-14s14 6.3 14 14v40.3c0 7.7-6.3 14-14 14z" fill="#F5DFD7" /><path d="M606.4 105.4H417.6c-20.3 0-36.8 16.6-36.8 36.8 0 20.3 16.6 36.8 36.8 36.8h188.9c20.3 0 36.8-16.6 36.8-36.8 0-20.2-16.6-36.8-36.9-36.8z m5 36.8c0 10.9-8.9 19.9-19.9 19.9h-159c-10.9 0-19.9-8.9-19.9-19.9 0-10.9 8.9-19.9 19.9-19.9h159.1c10.9 0.1 19.8 9 19.8 19.9z" fill="#F35426" /></svg>