<?xml version="1.0" encoding="iso-8859-1"?>
<!-- Uploaded to: SVG Repo, www.svgrepo.com, Generator: SVG Repo Mixer Tools -->
<svg version="1.1" id="Layer_1" xmlns="http://www.w3.org/2000/svg" xmlns:xlink="http://www.w3.org/1999/xlink" 
	 viewBox="0 0 512 512" xml:space="preserve">
<path style="fill:#FF9A00;" d="M358.4,207.083v102.4h-75.233v-102.4c0-20.741,16.875-37.616,37.616-37.616
	c0.878,0,1.755,0.031,2.612,0.094C342.925,170.909,358.4,187.22,358.4,207.083z"/>
<path style="fill:#DFCCBE;" d="M271.529,142.885c-0.245,2.05-0.378,4.12-0.378,6.207c0,28.515,23.207,51.722,51.722,51.722
	c0.178,0,0.355,0,0.522-0.01c28.275-0.272,51.2-23.374,51.2-51.712c0-2.087-0.133-4.157-0.378-6.207H271.529z"/>
<path style="fill:#FF3D63;" d="M374.596,96.92v55.369H271.151V96.92c0-18.725,15.235-33.959,33.949-33.959h35.547
	C359.361,62.96,374.596,78.195,374.596,96.92z"/>
<path style="fill:#FF8900;" d="M358.4,207.083v102.4h-35.004V169.561C342.925,170.909,358.4,187.22,358.4,207.083z"/>
<path style="fill:#C9AD91;" d="M323.396,142.885v57.919c28.275-0.272,51.2-23.374,51.2-51.712c0-2.087-0.133-4.157-0.378-6.207
	L323.396,142.885L323.396,142.885z"/>
<path style="fill:#FF0335;" d="M374.596,96.92v55.369h-51.2V62.96h17.251C359.361,62.96,374.596,78.195,374.596,96.92z"/>
<rect x="257.05" y="120.95" style="fill:#8A6746;" width="132.7" height="31.347"/>
<rect x="323.4" y="120.95" style="fill:#664B33;" width="66.35" height="31.347"/>
<path style="fill:#00AD94;" d="M512,134.463v175.02h-27.115c-1.808,8.495-5.224,19.571-11.672,30.793
	c-12.184,21.222-37.47,46.529-88.691,46.529H59.685L0,317.497v-49.131c0-9.686,6.269-17.91,15.6-20.47
	c9.352-2.55,18.944,1.327,23.886,9.676c8.077,13.646,17.648,20.564,28.432,20.564h326.719c3.793-0.575,21.546-4.618,29.153-30.511
	V134.463H512L512,134.463z"/>
<path style="fill:#008878;" d="M512,134.463v175.02h-27.115c-1.808,8.495-5.224,19.571-11.672,30.793
	c-12.184,21.222-37.47,46.529-88.691,46.529H256V278.136h138.637c3.793-0.575,21.546-4.618,29.153-30.511V134.463H512z"/>
<g>
	<rect x="423.79" y="160.88" style="fill:#FF9A00;" width="88.21" height="25.25"/>
	<rect x="423.79" y="212.08" style="fill:#FF9A00;" width="88.21" height="25.25"/>
</g>
<polygon style="fill:#8A6746;" points="211.853,345.01 214.183,378.049 159.525,449.04 130.779,426.909 99.819,403.075 
	154.478,332.084 187.016,325.888 284.338,199.497 295.539,208.128 309.164,218.619 "/>
<polygon style="fill:#664B33;" points="211.853,345.01 214.183,378.049 159.525,449.04 130.779,426.909 295.539,208.128 
	309.164,218.619 "/>
</svg>