<?xml version="1.0" encoding="utf-8"?>
<!-- Uploaded to: SVG Repo, www.svgrepo.com, Generator: SVG Repo Mixer Tools -->
<svg width="800px" height="800px" viewBox="0 0 128 128" xmlns="http://www.w3.org/2000/svg" xmlns:xlink="http://www.w3.org/1999/xlink" aria-hidden="true" role="img" class="iconify iconify--noto" preserveAspectRatio="xMidYMid meet">
<path d="M31.22 4.78l92.16 92.16c.87.87.87 2.29 0 3.17l-21.84 21.84c-.87.87-2.29.87-3.17 0L6.21 29.79c-.87-.87-.87-2.29 0-3.17L28.05 4.78c.87-.88 2.29-.88 3.17 0z" fill="#eaa700">
</path>
<path d="M31.22 4.78l88.04 88.04c.87.87-19.07 19.47-19.95 20.34l1.01 9.41s-1.08.25-1.95-.63L6.21 29.79c-.87-.87-.87-2.29 0-3.17L28.05 4.78c.87-.88 2.29-.88 3.17 0z" fill="#bf8400">
</path>
<linearGradient id="IconifyId17ecdb2904d178eab20474" gradientUnits="userSpaceOnUse" x1="58.7" y1="72.594" x2="58.7" y2="40.297" gradientTransform="scale(-1 1) rotate(-45 -8.302 213.424)">
<stop offset=".546" stop-color="#fdd835">
</stop>
<stop offset=".893" stop-color="#f9a825">
</stop>
</linearGradient>
<path d="M31.22 4.78l89.69 89.69l2.86 2.86s-2.7.14-5.99 3.42s-16.4 16.4-16.4 16.4c-.87.87-2.29.87-3.17 0L8.52 27.47c-.87-.87-.87-2.29 0-3.17L28.05 4.78c.87-.88 2.29-.88 3.17 0z" fill="url(#IconifyId17ecdb2904d178eab20474)">
</path>
<path d="M72.17 56.85a.79.79 0 0 1-1.12 0l-1.71-1.71a.79.79 0 0 1 0-1.12l5.14-5.14l2.83 2.83l-5.14 5.14z" fill="#795548">
</path>
<linearGradient id="IconifyId17ecdb2904d178eab20475" gradientUnits="userSpaceOnUse" x1="74.444" y1="51.812" x2="75.653" y2="50.509">
<stop offset="0" stop-color="#5d4037" stop-opacity="0">
</stop>
<stop offset="1" stop-color="#5d4037">
</stop>
</linearGradient>
<path fill="url(#IconifyId17ecdb2904d178eab20475)" d="M77.73 51.29l-1.99 1.99l-2.83-2.83l1.99-1.99z">
</path>
<path d="M53.34 38.02a.79.79 0 0 1-1.12 0l-1.71-1.71a.79.79 0 0 1 0-1.12l5.14-5.14l2.83 2.83l-5.14 5.14z" fill="#795548">
</path>
<linearGradient id="IconifyId17ecdb2904d178eab20476" gradientUnits="userSpaceOnUse" x1="55.618" y1="32.986" x2="56.827" y2="31.683">
<stop offset="0" stop-color="#5d4037" stop-opacity="0">
</stop>
<stop offset="1" stop-color="#5d4037">
</stop>
</linearGradient>
<path fill="url(#IconifyId17ecdb2904d178eab20476)" d="M58.9 32.46l-1.99 1.99l-2.83-2.82l1.99-2z">
</path>
<path d="M41.32 31.92a.79.79 0 0 1-1.12 0l-2.42-2.42a.79.79 0 0 1 0-1.12l8.52-8.52l3.54 3.54l-8.52 8.52z" fill="#795548">
</path>
<linearGradient id="IconifyId17ecdb2904d178eab20477" gradientUnits="userSpaceOnUse" x1="46.193" y1="23.584" x2="47.418" y2="22.265">
<stop offset="0" stop-color="#5d4037" stop-opacity="0">
</stop>
<stop offset="1" stop-color="#5d4037">
</stop>
</linearGradient>
<path fill="url(#IconifyId17ecdb2904d178eab20477)" d="M49.84 23.4l-1.99 1.99l-3.54-3.53l2-1.99z">
</path>
<path d="M91 75.67a.79.79 0 0 1-1.12 0l-1.71-1.71a.79.79 0 0 1 0-1.12l5.14-5.14l2.83 2.83L91 75.67z" fill="#795548">
</path>
<linearGradient id="IconifyId17ecdb2904d178eab20478" gradientUnits="userSpaceOnUse" x1="93.27" y1="70.638" x2="94.479" y2="69.335">
<stop offset="0" stop-color="#5d4037" stop-opacity="0">
</stop>
<stop offset="1" stop-color="#5d4037">
</stop>
</linearGradient>
<path fill="url(#IconifyId17ecdb2904d178eab20478)" d="M96.55 70.11l-1.99 2l-2.83-2.83l2-1.99z">
</path>
<path d="M109.82 94.5a.79.79 0 0 1-1.12 0l-1.71-1.71a.79.79 0 0 1 0-1.12l5.14-5.14l2.83 2.83l-5.14 5.14z" fill="#795548">
</path>
<linearGradient id="IconifyId17ecdb2904d178eab20479" gradientUnits="userSpaceOnUse" x1="112.095" y1="89.463" x2="113.304" y2="88.161">
<stop offset="0" stop-color="#5d4037" stop-opacity="0">
</stop>
<stop offset="1" stop-color="#5d4037">
</stop>
</linearGradient>
<path fill="url(#IconifyId17ecdb2904d178eab20479)" d="M115.38 88.94l-1.99 1.99l-2.83-2.83l1.99-1.99z">
</path>
<path d="M60.15 50.75a.79.79 0 0 1-1.12 0l-2.42-2.42a.79.79 0 0 1 0-1.12l8.52-8.52l3.54 3.54l-8.52 8.52z" fill="#795548">
</path>
<linearGradient id="IconifyId17ecdb2904d178eab20480" gradientUnits="userSpaceOnUse" x1="65.019" y1="42.41" x2="66.244" y2="41.092">
<stop offset="0" stop-color="#5d4037" stop-opacity="0">
</stop>
<stop offset="1" stop-color="#5d4037">
</stop>
</linearGradient>
<path fill="url(#IconifyId17ecdb2904d178eab20480)" d="M68.67 42.23l-1.99 1.99l-3.54-3.53l1.99-2z">
</path>
<g>
<path d="M78.98 69.57a.79.79 0 0 1-1.12 0l-2.42-2.42a.79.79 0 0 1 0-1.12l8.52-8.52l3.54 3.54l-8.52 8.52z" fill="#795548">
</path>
</g>
<linearGradient id="IconifyId17ecdb2904d178eab20481" gradientUnits="userSpaceOnUse" x1="83.847" y1="61.238" x2="85.072" y2="59.919">
<stop offset="0" stop-color="#5d4037" stop-opacity="0">
</stop>
<stop offset="1" stop-color="#5d4037">
</stop>
</linearGradient>
<path fill="url(#IconifyId17ecdb2904d178eab20481)" d="M87.5 61.06l-2 1.99l-3.53-3.54l1.99-1.99z">
</path>
<g>
<path d="M97.8 88.4a.79.79 0 0 1-1.12 0l-2.42-2.42a.79.79 0 0 1 0-1.12l8.52-8.52l3.54 3.54l-8.52 8.52z" fill="#795548">
</path>
</g>
<linearGradient id="IconifyId17ecdb2904d178eab20482" gradientUnits="userSpaceOnUse" x1="102.671" y1="80.062" x2="103.896" y2="78.744">
<stop offset="0" stop-color="#5d4037" stop-opacity="0">
</stop>
<stop offset="1" stop-color="#5d4037">
</stop>
</linearGradient>
<path fill="url(#IconifyId17ecdb2904d178eab20482)" d="M106.32 79.88l-1.99 1.99l-3.54-3.53l1.99-1.99z">
</path>
<g>
<path d="M34.52 19.19a.79.79 0 0 1-1.12 0l-1.71-1.71a.79.79 0 0 1 0-1.12l5.14-5.14l2.83 2.83l-5.14 5.14z" fill="#795548">
</path>
<linearGradient id="IconifyId17ecdb2904d178eab20483" gradientUnits="userSpaceOnUse" x1="36.792" y1="14.16" x2="38.001" y2="12.857">
<stop offset="0" stop-color="#5d4037" stop-opacity="0">
</stop>
<stop offset="1" stop-color="#5d4037">
</stop>
</linearGradient>
<path fill="url(#IconifyId17ecdb2904d178eab20483)" d="M40.08 13.64l-2 1.99l-2.82-2.83l1.99-1.99z">
</path>
</g>
<g>
<path d="M34.52 19.19a.79.79 0 0 1-1.12 0l-1.71-1.71a.79.79 0 0 1 0-1.12l5.14-5.14l2.83 2.83l-5.14 5.14z" fill="#795548">
</path>
<linearGradient id="IconifyId17ecdb2904d178eab20484" gradientUnits="userSpaceOnUse" x1="36.792" y1="14.16" x2="38.001" y2="12.857">
<stop offset="0" stop-color="#5d4037" stop-opacity="0">
</stop>
<stop offset="1" stop-color="#5d4037">
</stop>
</linearGradient>
<path fill="url(#IconifyId17ecdb2904d178eab20484)" d="M40.08 13.64l-2 1.99l-2.82-2.83l1.99-1.99z">
</path>
</g>
</svg>