<?xml version="1.0" encoding="iso-8859-1"?>
<!-- Uploaded to: SVG Repo, www.svgrepo.com, Generator: SVG Repo Mixer Tools -->
<svg height="800px" width="800px" version="1.1" id="Layer_1" xmlns="http://www.w3.org/2000/svg" xmlns:xlink="http://www.w3.org/1999/xlink" 
	 viewBox="0 0 512 512" xml:space="preserve">
<g transform="translate(1 1)">
	<path style="fill:#FFDD09;" d="M255,451.267c-72.533,0-135.68-39.253-169.813-98.133c11.093-2.56,22.187-4.267,33.28-4.267h273.067
		c11.093,0,22.187,1.707,33.28,4.267C390.68,412.013,327.533,451.267,255,451.267 M67.267,197.827
		c39.253,6.827,68.267,29.867,68.267,57.173s-29.013,50.347-68.267,57.173c-5.973-17.92-8.533-37.547-8.533-57.173
		S62.147,215.747,67.267,197.827 M255,58.733c72.533,0,135.68,39.253,169.813,98.133c-11.093,2.56-22.187,4.267-33.28,4.267H118.467
		c-11.093,0-22.187-1.707-33.28-4.267C119.32,97.987,182.467,58.733,255,58.733 M451.267,255c0,19.627-3.413,39.253-8.533,57.173
		c-39.253-6.827-68.267-29.867-68.267-57.173s29.013-50.347,68.267-57.173C447.853,215.747,451.267,235.373,451.267,255 M255,7.533
		C118.467,7.533,7.533,118.467,7.533,255S118.467,502.467,255,502.467S502.467,391.533,502.467,255S391.533,7.533,255,7.533"/>
	<g>
		<polygon style="fill:#1CD759;" points="255,237.933 229.4,272.067 203.8,237.933 229.4,203.8 		"/>
		<polygon style="fill:#1CD759;" points="280.6,272.067 255,306.2 229.4,272.067 255,237.933 		"/>
		<polygon style="fill:#1CD759;" points="306.2,237.933 280.6,272.067 255,237.933 280.6,203.8 		"/>
	</g>
	<path style="fill:#FD9808;" d="M255,7.533c-4.267,0-8.533,0-12.8,0C372.76,14.36,476.867,122.733,476.867,255
		S372.76,495.64,242.2,502.467c4.267,0,8.533,0,12.8,0c136.533,0,247.467-110.933,247.467-247.467S391.533,7.533,255,7.533"/>
	<path style="fill:#FFFFFF;" d="M255,7.533c4.267,0,8.533,0,12.8,0C137.24,14.36,33.133,122.733,33.133,255
		S137.24,495.64,267.8,502.467c-4.267,0-8.533,0-12.8,0C118.467,502.467,7.533,391.533,7.533,255S118.467,7.533,255,7.533"/>
	<path d="M255,511C114.2,511-1,395.8-1,255S114.2-1,255-1s256,115.2,256,256S395.8,511,255,511z M255,16.067
		C123.587,16.067,16.067,123.587,16.067,255S123.587,493.933,255,493.933S493.933,386.413,493.933,255S386.413,16.067,255,16.067z
		 M255,459.8c-72.533,0-140.8-39.253-177.493-102.4c-1.707-2.56-1.707-5.12-0.853-7.68c0.853-2.56,3.413-4.267,5.973-5.12
		c11.947-3.413,23.893-5.12,34.987-5.12H390.68c11.947,0,23.893,1.707,34.987,5.12c2.56,0.853,4.267,2.56,5.973,5.12
		c1.707,2.56,0.853,5.12-0.853,7.68C395.8,420.547,327.533,459.8,255,459.8z M98.84,359.107
		c34.987,52.053,93.867,83.627,156.16,83.627s121.173-31.573,156.16-83.627c-6.827-0.853-12.8-1.707-19.627-1.707H118.467
		C111.64,357.4,105.667,358.253,98.84,359.107z M442.733,320.707c-0.853,0-0.853,0-1.707,0
		C395.8,312.173,365.933,285.72,365.933,255s29.867-58.027,75.093-65.707c4.267-0.853,8.533,1.707,9.387,5.973
		c5.973,19.627,9.387,39.253,9.387,59.733s-3.413,40.96-9.387,59.733C449.56,319,446.147,320.707,442.733,320.707z M436.76,207.213
		C404.333,215.747,383,234.52,383,255s21.333,40.107,53.76,47.787c4.267-15.36,5.973-31.573,5.973-47.787
		S441.027,222.573,436.76,207.213z M67.267,320.707c-3.413,0-6.827-2.56-8.533-5.973C53.613,295.107,50.2,275.48,50.2,255
		s3.413-40.107,9.387-59.733c0.853-4.267,5.12-6.827,9.387-5.973c45.227,8.533,75.093,34.987,75.093,65.707
		s-29.867,58.027-75.093,65.707C68.12,320.707,68.12,320.707,67.267,320.707z M73.24,207.213
		c-4.267,16.213-5.973,31.573-5.973,47.787s1.707,31.573,5.973,47.787C104.813,295.107,127,276.333,127,255
		C127,234.52,105.667,215.747,73.24,207.213z M391.533,169.667H118.467c-11.947,0-23.893-1.707-34.987-5.12
		c-2.56-0.853-4.267-2.56-5.973-5.12c-0.853-2.56-0.853-5.12,0.853-7.68C114.2,89.453,182.467,50.2,255,50.2
		s140.8,39.253,177.493,102.4c1.707,2.56,1.707,5.12,0.853,7.68c-0.853,2.56-3.413,4.267-5.973,5.12
		C415.427,167.96,403.48,169.667,391.533,169.667z M98.84,150.893c6.827,0.853,12.8,1.707,19.627,1.707h273.067
		c6.827,0,12.8-0.853,19.627-1.707C376.173,98.84,317.293,67.267,255,67.267S133.827,98.84,98.84,150.893z"/>
	<path d="M229.4,280.6c-2.56,0-5.12-0.853-6.827-3.413l-25.6-34.133c-2.56-3.413-2.56-6.827,0-10.24l25.6-34.133
		c1.707-2.56,4.267-3.413,6.827-3.413l0,0c2.56,0,5.12,0.853,6.827,3.413l25.6,34.133c2.56,3.413,2.56,6.827,0,10.24l-25.6,34.133
		C234.52,279.747,231.96,280.6,229.4,280.6z M214.893,237.933l15.36,19.627l14.507-19.627l-15.36-19.627L214.893,237.933z"/>
	<path d="M255,314.733L255,314.733c-2.56,0-5.12-0.853-6.827-3.413l-25.6-34.133c-2.56-3.413-2.56-6.827,0-10.24l25.6-34.133
		c3.413-4.267,10.24-4.267,13.653,0l25.6,34.133c2.56,3.413,2.56,6.827,0,10.24l-25.6,34.133
		C260.12,313.88,257.56,314.733,255,314.733z M240.493,272.067L255,291.693l15.36-19.627L255,252.44L240.493,272.067z"/>
	<path d="M280.6,280.6c-2.56,0-5.12-0.853-6.827-3.413l-25.6-34.133c-2.56-3.413-2.56-6.827,0-10.24l25.6-34.133
		c3.413-4.267,10.24-4.267,13.653,0l25.6,34.133c2.56,3.413,2.56,6.827,0,10.24l-25.6,34.133
		C285.72,279.747,283.16,280.6,280.6,280.6z M265.24,237.933l15.36,19.627l15.36-19.627l-15.36-19.627L265.24,237.933z"/>
</g>
</svg>