<?xml version="1.0" encoding="utf-8"?>
<!-- Uploaded to: SVG Repo, www.svgrepo.com, Generator: SVG Repo Mixer Tools -->
<svg width="800px" height="800px" viewBox="0 0 128 128" xmlns="http://www.w3.org/2000/svg" xmlns:xlink="http://www.w3.org/1999/xlink" aria-hidden="true" role="img" class="iconify iconify--noto" preserveAspectRatio="xMidYMid meet">
<path d="M18 52.5c0 9.34 20.6 16.92 46 16.92s46-7.58 46-16.92c0-9.35-92-9.35-92 0z" fill="#ffea00">
</path>
<path d="M105.38 52.49c-8.12-5.31-19.54-9.71-41.38-9.72c-21.85.01-33.27 4.4-41.38 9.72c-.62.41-.78 1.21-.33 1.8C26.75 60.12 45.76 65.86 64 65.88c18.24-.02 38-6.62 41.71-11.58c.44-.6.3-1.4-.33-1.81z" fill="#edbf00">
</path>
<linearGradient id="IconifyId17ecdb2904d178eab10514" gradientUnits="userSpaceOnUse" x1="64" y1="34.199" x2="64" y2="-7.618" gradientTransform="matrix(1 0 0 -1 0 130)">
<stop offset=".003" stop-color="#448aff">
</stop>
<stop offset=".404" stop-color="#3b7dff">
</stop>
<stop offset="1" stop-color="#2962ff">
</stop>
</linearGradient>
<path d="M116 123.98v-3.12c0-16.78-26.35-25.09-52-25.06c-25.49.03-52 7.28-52 25.06v3.12h104z" fill="url(#IconifyId17ecdb2904d178eab10514)">
</path>
<linearGradient id="IconifyId17ecdb2904d178eab10515" gradientUnits="userSpaceOnUse" x1="44.025" y1="31.828" x2="44.025" y2="-5.891" gradientTransform="matrix(1 0 0 -1 0 130)">
<stop offset=".003" stop-color="#ff9100">
</stop>
<stop offset=".44" stop-color="#ff8400">
</stop>
<stop offset="1" stop-color="#ff6d00">
</stop>
</linearGradient>
<path d="M58.5 123.98H29.55v-22.74c1.79-.7 3.68-1.32 5.64-1.86c2.89-.82 5.94-1.49 9.1-2.01c2.14-.36 4.33-.65 6.55-.88l7.66 27.49z" fill="url(#IconifyId17ecdb2904d178eab10515)">
</path>
<linearGradient id="IconifyId17ecdb2904d178eab10516" gradientUnits="userSpaceOnUse" x1="43.075" y1="32.036" x2="43.075" y2="-6.675" gradientTransform="matrix(1 0 0 -1 0 130)">
<stop offset=".003" stop-color="#ff0">
</stop>
<stop offset=".678" stop-color="#fff200">
</stop>
<stop offset="1" stop-color="#ffea00">
</stop>
</linearGradient>
<path d="M50.96 123.98H36.29l-1.1-24.6c2.89-.82 5.94-1.49 9.1-2.01l6.67 26.61z" fill="url(#IconifyId17ecdb2904d178eab10516)">
</path>
<g>
<linearGradient id="IconifyId17ecdb2904d178eab10517" gradientUnits="userSpaceOnUse" x1="83.975" y1="31.791" x2="83.975" y2="-5.873" gradientTransform="matrix(1 0 0 -1 0 130)">
<stop offset=".003" stop-color="#ff9100">
</stop>
<stop offset=".44" stop-color="#ff8400">
</stop>
<stop offset="1" stop-color="#ff6d00">
</stop>
</linearGradient>
<path d="M98.45 101.54v22.44H69.5l7.65-27.45c2.21.24 4.4.56 6.53.94c3.17.57 6.23 1.27 9.12 2.13c1.97.58 3.86 1.23 5.65 1.94z" fill="url(#IconifyId17ecdb2904d178eab10517)">
</path>
<linearGradient id="IconifyId17ecdb2904d178eab10518" gradientUnits="userSpaceOnUse" x1="84.92" y1="31.938" x2="84.92" y2="-6.627" gradientTransform="matrix(1 0 0 -1 0 130)">
<stop offset=".003" stop-color="#ff0">
</stop>
<stop offset=".678" stop-color="#fff200">
</stop>
<stop offset="1" stop-color="#ffea00">
</stop>
</linearGradient>
<path d="M92.8 99.6l-1.09 24.38H77.04l6.64-26.51c3.17.57 6.23 1.27 9.12 2.13z" fill="url(#IconifyId17ecdb2904d178eab10518)">
</path>
</g>
<g>
<path d="M64 90.16h-9.08v9.98c0 4.51 3.7 8.17 8.26 8.17h1.65c4.56 0 8.26-3.66 8.26-8.17v-9.98H64z" fill="#e59600">
</path>
</g>
<g>
<path d="M91.33 50.52H36.67c-5.89 0-10.71 5.14-10.71 11.41s4.82 11.41 10.71 11.41H91.32c5.89 0 10.71-5.14 10.71-11.41s-4.81-11.41-10.7-11.41z" fill="#e59600">
</path>
<path d="M64 11.15c-17.4 0-33.52 18.61-33.52 45.39c0 26.64 16.61 39.81 33.52 39.81s33.52-13.17 33.52-39.81c0-26.78-16.12-45.39-33.52-45.39z" fill="#ffca28">
</path>
<path d="M67.86 68.14c-.11-.04-.21-.07-.32-.08h-7.08c-.11.01-.22.04-.32.08c-.64.26-.99.92-.69 1.63c.3.71 1.71 2.69 4.55 2.69s4.25-1.99 4.55-2.69c.3-.7-.05-1.37-.69-1.63z" fill="#e59600">
</path>
<path d="M72.42 76.23c-3.18 1.89-13.63 1.89-16.81 0c-1.83-1.09-3.7.58-2.94 2.24c.75 1.63 6.44 5.42 11.37 5.42s10.55-3.79 11.3-5.42c.75-1.67-1.09-3.33-2.92-2.24z" fill="#795548">
</path>
<g fill="#6d4c41">
<path d="M87.15 50.83c0-.01-2.27-3.7-7.55-3.7s-7.56 3.69-7.56 3.69v.01c-.19.27-.3.59-.3.94c0 .89.7 1.62 1.57 1.62c.18 0 .62-.13.66-.15c3.16-1.35 5.64-1.35 5.64-1.35s2.46.01 5.62 1.36c.04.02.48.15.66.15c.86 0 1.57-.72 1.57-1.62c-.01-.36-.12-.68-.31-.95z">
</path>
<path d="M55.96 50.83c.01-.01-2.27-3.7-7.55-3.7s-7.56 3.69-7.56 3.69l.01.01c-.19.27-.3.59-.3.94c0 .89.7 1.62 1.57 1.62c.18 0 .62-.13.66-.15c3.16-1.35 5.64-1.35 5.64-1.35s2.46.01 5.62 1.36c.04.02.48.15.66.15c.87 0 1.57-.72 1.57-1.62a1.8 1.8 0 0 0-.32-.95z">
</path>
</g>
<path d="M64.31 11.11c-45.44.24-36.13 45.14-36.13 45.14s5.1 8.99 5.1 8.81c-.17-7.25 2.74-20.09 4.8-25.55a6.075 6.075 0 0 1 6.79-3.83c4.45.81 11.55 1.81 19.37 1.81h.16c7.82 0 14.92-1 19.37-1.81c2.9-.53 5.76 1.08 6.79 3.83c2.06 5.47 4.96 18.3 4.8 25.55c0 .18 5.1-8.81 5.1-8.81s9.31-44.9-36.13-45.14h-.02z" fill="#543930">
</path>
<g fill="#404040">
<ellipse cx="48.4" cy="58.81" rx="4.93" ry="5.1">
</ellipse>
<ellipse cx="79.6" cy="58.81" rx="4.93" ry="5.1">
</ellipse>
</g>
</g>
<g>
<radialGradient id="IconifyId17ecdb2904d178eab10519" cx="64" cy="98.325" r="34.638" gradientTransform="matrix(1 0 0 -.9806 0 127.575)" gradientUnits="userSpaceOnUse">
<stop offset="0" stop-color="#ff0">
</stop>
<stop offset=".325" stop-color="#fff600">
</stop>
<stop offset=".854" stop-color="#ffde00">
</stop>
<stop offset=".998" stop-color="#ffd600">
</stop>
</radialGradient>
<path d="M64.41 7.94c-46.76 0-43.24 46.43-43.24 46.43s12.21-10.8 43.5-10.8s42.1 9.8 42.1 9.8s4.4-45.43-42.36-45.43z" fill="url(#IconifyId17ecdb2904d178eab10519)">
</path>
<linearGradient id="IconifyId17ecdb2904d178eab10520" gradientUnits="userSpaceOnUse" x1="64.322" y1="125.245" x2="64.322" y2="88.207" gradientTransform="matrix(1 0 0 -1 0 130)">
<stop offset="0" stop-color="#ff0">
</stop>
<stop offset=".446" stop-color="#fff900">
</stop>
<stop offset="1" stop-color="#ffea00">
</stop>
</linearGradient>
<path d="M74.72 42.17h-20.8V9.07c0-2.79 2.26-5.05 5.05-5.05h10.7c2.79 0 5.05 2.26 5.05 5.05v33.1z" fill="url(#IconifyId17ecdb2904d178eab10520)">
</path>
<defs>
<path id="IconifyId17ecdb2904d178eab10521" d="M64.41 7.94c-46.76 0-43.24 46.43-43.24 46.43s12.21-10.8 43.5-10.8s42.1 9.8 42.1 9.8s4.4-45.43-42.36-45.43z">
</path>
</defs>
<clipPath id="IconifyId17ecdb2904d178eab10522">
<use xlink:href="#IconifyId17ecdb2904d178eab10521" overflow="visible">
</use>
</clipPath>
<path d="M47.12 10.24l6.95-2.3v23.29c-1.41-10.06-3.43-17.34-6.95-20.99z" opacity=".5" clip-path="url(#IconifyId17ecdb2904d178eab10522)" fill="#edbf00">
</path>
<g>
<defs>
<path id="IconifyId17ecdb2904d178eab10523" d="M64.41 7.94c-46.76 0-43.24 46.43-43.24 46.43s12.21-10.8 43.5-10.8s42.1 9.8 42.1 9.8s4.4-45.43-42.36-45.43z">
</path>
</defs>
<clipPath id="IconifyId17ecdb2904d178eab10524">
<use xlink:href="#IconifyId17ecdb2904d178eab10523" overflow="visible">
</use>
</clipPath>
<path d="M81.71 10.24l-6.95-2.3v23.29c1.41-10.06 3.43-17.34 6.95-20.99z" opacity=".5" clip-path="url(#IconifyId17ecdb2904d178eab10524)" fill="#edbf00">
</path>
</g>
<path d="M109.53 51.01c-.25-.42-.64-.74-1.07-.99C90.36 39.6 64 39.95 64 39.95s-26.36-.35-44.46 10.07c-.44.25-.82.57-1.07.99c-.53.9-.97 2.61.75 5.08c0 0 10.95-10.85 44.78-11.53c33.82.69 44.78 11.53 44.78 11.53c1.72-2.47 1.28-4.18.75-5.08z" fill="#ffea00">
</path>
</g>
</svg>