<?xml version="1.0" ?>
<!DOCTYPE svg  PUBLIC '-//W3C//DTD SVG 1.1//EN'  'http://www.w3.org/Graphics/SVG/1.1/DTD/svg11.dtd'>
<!-- Uploaded to: SVG Repo, www.svgrepo.com, Generator: SVG Repo Mixer Tools -->
<svg fill="#000000" width="800px" height="800px" viewBox="0 0 129 129" style="fill-rule:evenodd;clip-rule:evenodd;stroke-linejoin:round;stroke-miterlimit:2;" version="1.1" xml:space="preserve" xmlns="http://www.w3.org/2000/svg" xmlns:serif="http://www.serif.com/" xmlns:xlink="http://www.w3.org/1999/xlink">
<g transform="matrix(1,0,0,1,-315,-339)">
<g id="knife" transform="matrix(1,0,0,1,315.418,339.167)">
<rect height="128" style="fill:none;" width="128" x="0" y="0"/>
<g>
<g transform="matrix(1,0,0,1,-5390.27,-1517.56)">
<path d="M5452.51,1589.57L5438.9,1575.96C5438.9,1575.96 5407.68,1607.18 5395.55,1619.32C5394.05,1620.82 5393.2,1622.85 5393.2,1624.97C5393.2,1627.1 5394.05,1629.13 5395.55,1630.63C5396.3,1631.39 5397.08,1632.16 5397.84,1632.92C5399.34,1634.42 5401.37,1635.27 5403.49,1635.27C5405.62,1635.27 5407.65,1634.42 5409.15,1632.92C5421.28,1620.79 5452.51,1589.57 5452.51,1589.57Z" style="fill:rgb(51,51,51);"/>
</g>
<g transform="matrix(1,0,0,1,-6029.91,-2960.84)">
<path d="M6082.92,3023.62L6078.54,3019.24C6078.54,3019.24 6047.32,3050.46 6035.19,3062.59C6033.69,3064.09 6032.84,3066.13 6032.84,3068.25C6032.84,3070.37 6033.69,3072.41 6035.19,3073.91C6035.94,3074.66 6036.72,3075.44 6037.48,3076.2C6037.83,3076.55 6038.21,3076.87 6038.62,3077.14C6037.72,3075.82 6037.22,3074.25 6037.22,3072.63C6037.22,3070.51 6038.07,3068.47 6039.57,3066.97C6051.7,3054.84 6082.92,3023.62 6082.92,3023.62Z" style="fill:rgb(102,102,102);"/>
</g>
<g transform="matrix(1,0,0,1,-5390.27,-1517.56)">
<path d="M5515.34,1539.62C5515.34,1539.62 5512.75,1537.03 5509.43,1533.72C5505.68,1529.97 5500.59,1527.86 5495.29,1527.86C5489.98,1527.86 5484.9,1529.97 5481.15,1533.72C5466.14,1548.72 5441.77,1573.09 5441.77,1573.09C5441.77,1573.09 5446.01,1571.7 5448.09,1573.78C5448.82,1574.51 5449.63,1575.32 5450.49,1576.18C5454.24,1579.93 5459.33,1582.04 5464.63,1582.04C5469.94,1582.04 5475.02,1579.93 5478.77,1576.18C5493.78,1561.18 5515.34,1539.62 5515.34,1539.62Z" style="fill:rgb(182,182,182);"/>
</g>
<g transform="matrix(1,0,0,1,-6029.91,-2960.84)">
<path d="M6149.07,2976.99L6149.42,2977.35C6149.42,2977.35 6127.86,2998.91 6112.86,3013.91C6109.11,3017.66 6104.02,3019.76 6098.72,3019.76C6093.41,3019.76 6088.33,3017.66 6084.58,3013.91L6084.22,3013.55L6081.41,3016.37C6081.41,3016.37 6085.65,3014.97 6087.73,3017.06C6088.46,3017.79 6089.27,3018.6 6090.13,3019.46C6093.88,3023.21 6098.97,3025.32 6104.27,3025.32C6109.57,3025.32 6114.66,3023.21 6118.41,3019.46C6133.41,3004.46 6154.97,2982.9 6154.97,2982.9C6154.97,2982.9 6152.39,2980.31 6149.07,2976.99Z" style="fill:rgb(136,136,136);"/>
</g>
<g transform="matrix(1,0,0,1,-6029.91,-2960.84)">
<path d="M6089.29,3018.62L6125.85,2982.06C6129.61,2978.31 6134.69,2976.2 6140,2976.2C6145.3,2976.2 6150.39,2978.31 6154.14,2982.06L6149.07,2976.99C6145.32,2973.24 6140.23,2971.14 6134.93,2971.14C6129.62,2971.14 6124.54,2973.24 6120.78,2976.99C6105.78,2991.99 6081.41,3016.37 6081.41,3016.37C6081.41,3016.37 6085.65,3014.97 6087.73,3017.06L6089.29,3018.62Z" style="fill:rgb(200,200,200);"/>
</g>
<g transform="matrix(1,0,0,1,-5390.27,-1517.56)">
<path d="M5456.54,1590.72C5458.89,1588.38 5458.89,1584.58 5456.54,1582.24C5453.46,1579.15 5449.31,1575.01 5446.23,1571.93C5443.89,1569.58 5440.09,1569.58 5437.75,1571.93C5437.42,1572.26 5437.08,1572.59 5436.75,1572.93C5434.4,1575.27 5434.4,1579.07 5436.75,1581.41C5439.83,1584.49 5443.98,1588.64 5447.06,1591.72C5449.4,1594.06 5453.2,1594.06 5455.54,1591.72C5455.87,1591.39 5456.21,1591.05 5456.54,1590.72Z" style="fill:rgb(244,187,49);"/>
</g>
<g transform="matrix(1,0,0,1,-6029.91,-2960.84)">
<path d="M6092.87,3022.2C6095.21,3024.54 6095.21,3028.34 6092.87,3030.69C6092.54,3031.02 6092.2,3031.36 6091.87,3031.69C6089.53,3034.03 6085.73,3034.03 6083.39,3031.69C6083.39,3031.69 6083.61,3031.92 6086.69,3035C6089.04,3037.34 6092.84,3037.34 6095.18,3035C6095.51,3034.66 6095.85,3034.33 6096.18,3034C6098.53,3031.65 6098.53,3027.85 6096.18,3025.51L6092.87,3022.2Z" style="fill:rgb(183,140,37);"/>
</g>
<g transform="matrix(1,0,0,1,-6029.91,-2960.84)">
<path d="M6080.72,3029.02C6078.38,3026.68 6078.38,3022.88 6080.72,3020.54C6081.05,3020.21 6081.39,3019.87 6081.72,3019.54C6084.07,3017.2 6087.86,3017.2 6090.21,3019.54C6090.21,3019.54 6088.95,3018.28 6085.87,3015.2C6083.53,3012.86 6079.73,3012.86 6077.39,3015.2C6077.06,3015.53 6076.72,3015.87 6076.39,3016.2C6074.04,3018.55 6074.04,3022.35 6076.39,3024.69L6080.72,3029.02Z" style="fill:rgb(247,204,101);"/>
</g>
<g transform="matrix(1,0,0,1,-5390.27,-1517.56)">
<path d="M5425.12,1603.35C5426.45,1604.68 5426.43,1606.87 5425.07,1608.22C5423.72,1609.58 5421.54,1609.59 5420.21,1608.26C5418.87,1606.93 5418.89,1604.75 5420.25,1603.39C5421.6,1602.04 5423.78,1602.02 5425.12,1603.35Z" style="fill:rgb(244,187,49);"/>
</g>
<g transform="matrix(1,0,0,1,-6029.91,-2960.84)">
<path d="M6063.75,3045.94C6064.11,3046.1 6064.46,3046.33 6064.76,3046.63C6066.09,3047.96 6066.07,3050.14 6064.71,3051.5C6063.36,3052.85 6061.18,3052.87 6059.85,3051.54C6059.55,3051.24 6059.32,3050.9 6059.15,3050.53C6060.41,3051.1 6061.96,3050.85 6063.01,3049.8C6064.07,3048.75 6064.31,3047.2 6063.75,3045.94Z" style="fill:rgb(183,140,37);"/>
</g>
<g transform="matrix(1,0,0,1,-5390.27,-1517.56)">
<path d="M5411.8,1616.67C5413.13,1618 5413.11,1620.18 5411.76,1621.54C5410.4,1622.89 5408.22,1622.91 5406.89,1621.58C5405.56,1620.25 5405.58,1618.06 5406.93,1616.71C5408.29,1615.35 5410.47,1615.34 5411.8,1616.67Z" style="fill:rgb(244,187,49);"/>
</g>
<g transform="matrix(1,0,0,1,-6029.91,-2960.84)">
<path d="M6050.65,3059.36C6050.94,3059.51 6051.2,3059.7 6051.44,3059.94C6052.77,3061.28 6052.75,3063.46 6051.4,3064.81C6050.04,3066.17 6047.86,3066.19 6046.53,3064.85C6046.29,3064.62 6046.1,3064.35 6045.94,3064.06C6047.24,3064.76 6048.91,3064.55 6050.02,3063.44C6051.14,3062.32 6051.35,3060.66 6050.65,3059.36Z" style="fill:rgb(183,140,37);"/>
</g>
</g>
</g>
</g>
</svg>