<?xml version="1.0" encoding="iso-8859-1"?>
<!-- Uploaded to: SVG Repo, www.svgrepo.com, Generator: SVG Repo Mixer Tools -->
<svg version="1.1" id="Layer_1" xmlns="http://www.w3.org/2000/svg" xmlns:xlink="http://www.w3.org/1999/xlink" 
	 viewBox="0 0 511.992 511.992" xml:space="preserve">
<rect x="245.516" y="251.326" style="fill:#CCD1D9;" width="21.328" height="242.67"/>
<path style="fill:#DA4453;" d="M287.996,309.322h-63.999c-5.891,0-10.672,4.766-10.672,10.672c0,5.875,4.781,10.656,10.672,10.656
	h63.999c5.891,0,10.656-4.781,10.656-10.656C298.652,314.088,293.887,309.322,287.996,309.322z"/>
<path style="fill:#ED5564;" d="M320.416,511.992H190.56c0,0-30.578-53.344-30.578-106.67c0-53.328,30.578-85.328,30.578-85.328
	h129.856c0,0,31.953,32,31.953,85.328C352.369,458.648,320.416,511.992,320.416,511.992z"/>
<g>
	<path style="fill:#434A54;" d="M330.65,490.648H181.326c-5.891,0-10.671,4.781-10.671,10.672s4.781,10.672,10.671,10.672h149.325
		c5.906,0,10.672-4.781,10.672-10.672S336.557,490.648,330.65,490.648z"/>
	<path style="fill:#434A54;" d="M362.65,254.878v43.774c0,5.904,4.781,10.67,10.672,10.67s10.672-4.766,10.672-10.67v-43.774H362.65
		z"/>
</g>
<path style="fill:#DA4453;" d="M351.557,390.666l-20.906,20.906l-13.781-13.797c-1.936-1.922-4.592-3.125-7.545-3.125
	s-5.609,1.203-7.547,3.125l-13.75,13.766l-13.594-13.734l0,0c-1.938-1.938-4.625-3.156-7.594-3.156
	c-2.938,0-5.594,1.203-7.531,3.125l-13.75,13.766l-13.609-13.734l0,0c-1.938-1.938-4.609-3.156-7.578-3.156
	c-2.938,0-5.609,1.203-7.531,3.125l-13.766,13.766l-13.609-13.734l0,0c-1.938-1.938-4.609-3.156-7.562-3.156
	s-5.625,1.203-7.547,3.125l-14.203,14.219c0.406,9.078,1.641,18.092,3.375,26.779l18.343-18.342l13.594,13.732l0,0
	c1.938,1.953,4.609,3.156,7.578,3.156c2.938,0,5.609-1.203,7.547-3.125l13.75-13.764l13.593,13.732l0,0
	c1.938,1.953,4.625,3.156,7.578,3.156s5.609-1.203,7.547-3.125l13.75-13.764l13.609,13.732l0,0c1.922,1.953,4.609,3.156,7.578,3.156
	c2.938,0,5.609-1.203,7.531-3.125l13.797-13.795l13.795,13.795c1.922,1.922,4.594,3.125,7.531,3.125
	c2.953,0,5.625-1.203,7.547-3.125l13.328-13.326c0.547-5.156,0.844-10.344,0.844-15.547
	C352.369,400.244,352.088,395.353,351.557,390.666z"/>
<path style="fill:#F6BB42;" d="M362.65,0H149.326c-2.406,85.725-85.327,277.324-85.327,277.324
	c42.656,0,106.624-21.336,106.624-21.336s50.999,17.321,85.374,20.743c34.375-3.422,85.357-20.743,85.357-20.743
	s63.969,21.336,106.639,21.336C447.992,277.324,365.057,85.725,362.65,0z"/>
<path style="fill:#FFCE54;" d="M171.685,256.347c7.437,2.469,52.827,17.243,84.311,20.383c31.281-3.125,76.326-17.734,84.169-20.336
	l1.156-1.516C299.996,151.997,293.996,0,293.996,0h-75.999c0,0-6,151.997-47.343,254.878L171.685,256.347z"/>
</svg>