<?xml version="1.0" encoding="UTF-8"?>
<svg xmlns="http://www.w3.org/2000/svg" xmlns:xlink="http://www.w3.org/1999/xlink" width="40px" height="40px" viewBox="0 0 40 40" version="1.1">
<g id="surface1">
<path style="fill:none;stroke-width:1.5;stroke-linecap:butt;stroke-linejoin:miter;stroke:rgb(10.980392%,15.294118%,29.803922%);stroke-opacity:1;stroke-miterlimit:4;" d="M 15 13.000781 C 15 14.657812 13.657031 16.000781 12 16.000781 C 10.342969 16.000781 9 14.657812 9 13.000781 C 9 11.34375 10.342969 10.000781 12 10.000781 C 13.657031 10.000781 15 11.34375 15 13.000781 Z M 15 13.000781 " transform="matrix(1.666667,0,0,1.666667,0,0)"/>
<path style="fill:none;stroke-width:1.5;stroke-linecap:round;stroke-linejoin:miter;stroke:rgb(10.980392%,15.294118%,29.803922%);stroke-opacity:1;stroke-miterlimit:4;" d="M 3 13.000781 C 3 10.190625 3 8.786719 3.675 7.778906 C 3.965625 7.340625 4.340625 6.965625 4.776562 6.675 C 5.786719 6 7.190625 6 10.000781 6 L 13.999219 6 C 16.809375 6 18.213281 6 19.221094 6.675 C 19.659375 6.965625 20.034375 7.340625 20.325 7.778906 C 21 8.786719 21 10.190625 21 13.000781 C 21 15.808594 21 17.2125 20.325 18.222656 C 20.034375 18.658594 19.659375 19.033594 19.223437 19.326562 C 18.213281 19.999219 16.809375 19.999219 13.999219 19.999219 L 10.000781 19.999219 C 7.190625 19.999219 5.786719 19.999219 4.778906 19.326562 C 4.340625 19.033594 3.965625 18.658594 3.675 18.222656 C 3.442969 17.875781 3.290625 17.482031 3.189844 16.999219 " transform="matrix(1.666667,0,0,1.666667,0,0)"/>
<path style="fill:none;stroke-width:1.5;stroke-linecap:round;stroke-linejoin:miter;stroke:rgb(10.980392%,15.294118%,29.803922%);stroke-opacity:1;stroke-miterlimit:4;" d="M 18 10.000781 L 17.500781 10.000781 " transform="matrix(1.666667,0,0,1.666667,0,0)"/>
<path style="fill:none;stroke-width:1.5;stroke-linecap:round;stroke-linejoin:miter;stroke:rgb(10.980392%,15.294118%,29.803922%);stroke-opacity:1;stroke-miterlimit:4;" d="M 14.500781 3.499219 L 9.499219 3.499219 " transform="matrix(1.666667,0,0,1.666667,0,0)"/>
</g>
</svg>
