<?xml version="1.0" encoding="utf-8"?>
<!-- Generator: Adobe Illustrator 27.5.0, SVG Export Plug-In . SVG Version: 6.00 Build 0)  -->
<svg version="1.1" id="Capa_1" xmlns="http://www.w3.org/2000/svg" xmlns:xlink="http://www.w3.org/1999/xlink" x="0px" y="0px"
	 viewBox="0 0 2279 1975" style="enable-background:new 0 0 2279 1975;" xml:space="preserve">
<path style="fill:#81604B;" d="M747.256,1001.784c-15.399,2.245-31.325,4.569-46.921,6.134c-16.959,1.701-33.994,2.543-51.136,2.543
	c-50.013,0-100.649-7.187-150.95-21.148c-92.957-26.052-180.987-74.233-258.404-135.35c-30.582-24.295-60.274-51.249-88.795-80.746
	l-0.923-0.953l63.762,164.122c8.944,23.027,18.197,46.84,34.638,66.015c10.548,12.309,23.875,22.352,36.763,32.066
	c17.103,12.89,34.79,26.22,45.719,44.809c1.892,3.219,3.619,6.657,5.291,9.98c4.166,8.29,8.473,16.857,15.701,22.792
	c7.212,5.909,16.643,8.562,25.683,10.771c34.143,8.342,69.592,13.382,105.355,14.973c8.295,0.371,16.616,0.555,24.95,0.555
	c27.12,0,54.391-1.952,81.37-5.83c35.187-5.056,70.021-13.413,103.536-24.838c33.827-11.534,66.465-26.246,97.011-43.731
	l0.071-0.037l0.036-0.073c2.324-4.653,4.872-9.148,7.602-13.424c1.219-3.502,2.695-6.929,4.391-10.195
	c7.775-15.01,21.12-31.354,37.579-46.013l0.503-0.445l-0.672-0.021C808.932,992.814,777.573,997.367,747.256,1001.784z"/>
<path style="fill:#81604B;" d="M1816.889,308.194c-12.558-13.283-27.91-24.373-44.393-32.071
	c-9.604-4.485-19.809-7.955-29.677-11.312c-7.947-2.706-16.166-5.5-24.022-8.808c-32.995-13.895-61.232-37.383-88.537-60.096
	c-3.022-2.515-6.042-5.026-9.064-7.523c-2.115-1.745-4.13-3.844-6.081-5.875c-4.509-4.694-9.169-9.548-15.698-10.92
	c-1.175-0.246-2.894-0.466-4.14,0.474c-1.036,0.788-1.408,2.13-1.677,3.326c-5.325,23.757,2.785,50.16,9.938,73.455
	c0.532,1.727,1.055,3.436,1.568,5.121c4.475,14.722,9.436,29.575,14.748,44.147l0.057,0.157l0.165,0.018
	c7.23,0.806,14.62,1.249,21.763,1.675c10.396,0.623,21.146,1.264,31.571,3.041c5.432,0.924,10.899,2.183,16.24,3.742l0.092,0.028
	l0.089-0.039c18.704-7.986,39.372-12.762,58.194-13.45c24.859-0.885,48.441,7.444,68.574,15.341l1.115,0.44L1816.889,308.194z"/>
<path style="fill:#81604B;" d="M1128.808,1242.147l-0.241-0.036l-0.06,0.235c-26.714,103.073-84.963,167.602-164.203,232.78
	c-30.004,24.681-65.767,47.306-112.536,71.186l-0.152,0.079l0.008,0.172c1.175,30.224,10.027,61.593,27.068,95.909
	c14.975,30.156,34.054,58.51,53.931,87.31c11.244,16.297,23.99,34.771,41.531,46.839c11.77,8.102,25.05,12.294,37.464,12.294
	c7.973,0,15.591-1.733,22.216-5.27c2.507-2.208,3.412-5.249,2.62-8.782c-1.291-5.736-6.754-11.356-12.712-13.068
	c-3.723-1.073-7.693-1.444-11.532-1.811c-5.683-0.534-11.563-1.088-16.519-3.946c-6.856-3.957-10.804-11.707-13.979-17.935
	c-23.428-45.997-43.922-98.52-18.317-139.32c6.974-11.121,16.614-19.982,28.938-29.868c24.66-19.783,51.733-37.629,77.911-54.894
	c48.177-31.762,97.994-64.607,134.061-110.484c30.869-39.266,49.979-87.755,55.263-140.22l0.026-0.251l-0.251-0.042
	C1215.829,1256.069,1172.319,1249.108,1128.808,1242.147z"/>
<path style="fill:#81604B;" d="M1582.662,1312.826l-0.071-0.125l-0.141-0.011c-27.727-2.423-55.268-6.83-81.904-11.09
	c-39.947-6.39-79.894-12.78-119.841-19.165l-0.202-0.032l-0.086,0.189c-55.062,123.416-69.15,262.134-39.67,390.611
	c3.177,13.843,7.421,29.553,17.631,40.831c6.66,7.353,17.158,12.629,27.324,12.629c4.655,0,9.242-1.11,13.358-3.627
	c2.695-1.575,4.352-4.218,4.786-7.641c0.652-5.134-1.544-11.199-5.466-15.088c-3.182-3.161-7.091-5.511-10.87-7.782
	c-3.515-2.115-7.149-4.297-10.172-7.118c-15.42-14.386-11.194-39.774-4.932-58.536c25.411-76.137,77.448-147.396,163.763-224.254
	c22.454-19.997,45.481-38.963,65.044-54.879l0.17-0.141l-0.102-0.194C1595.052,1335.523,1588.788,1323.889,1582.662,1312.826z"/>
<path style="fill:#AF8459;" d="M1878.092,744.135c-3.556-13.685-6.584-27.308-8.999-40.496l-0.047-0.251l-0.254,0.031
	c-76.66,10.74-153.076,4.878-227.133-17.412c-59.104-17.794-97.165-40.408-107.422-46.913l-0.275-0.178l-0.118,0.304
	c-8.446,21.698-17.03,40.114-26.243,56.296c-49.274,86.52-144.698,154.419-275.962,196.344
	c-54.943,17.553-111.002,25.011-165.213,32.223c-54.457,7.243-110.769,14.737-165.964,32.458
	c-19.27,6.186-41.591,19.772-61.234,37.268c-16.509,14.701-29.896,31.097-37.7,46.159c-1.706,3.292-3.195,6.746-4.393,10.211
	c-2.711,4.239-5.27,8.75-7.604,13.419c-14.654,29.313-19.725,62.885-24.2,92.507c-1.099,7.275-2.135,14.141-3.289,20.861
	c-3.957,23.054-4.205,46.965-4.446,70.082c-0.332,31.987-0.675,65.057-10.946,95.825c-26.28,78.707-83.942,141.681-139.705,202.583
	c-24.535,26.795-49.904,54.501-72.343,83.238c-13.869,17.767-27.201,37.237-30.83,59.233c-5.833,35.373,13.057,68.433,34.638,102
	c4.467,6.945,9.614,13.398,16.972,13.539l0.251,0.005c4.14,0,7.563-2.004,9.907-5.809c4.017-6.51,4.082-17.05,0.152-24.508
	c-1.913-3.632-4.352-7.139-6.709-10.535c-4.927-7.086-10.022-14.419-10.26-22.975c-0.319-11.508,8.185-21.232,16.546-29.229
	c59.536-56.961,136.07-92.496,210.082-126.859c25.317-11.755,51.495-23.912,76.662-36.76c46.803-23.906,82.595-46.547,112.63-71.249
	c45.312-37.273,76.624-68.705,101.524-101.922c29.642-39.539,50.184-82.354,62.797-130.905c43.43,6.945,86.86,13.895,130.293,20.839
	c40.455,6.469,80.909,12.938,121.364,19.411c39.947,6.385,79.894,12.775,119.841,19.165c26.597,4.249,54.101,8.646,81.799,11.079
	c6.102,11.021,12.341,22.608,18.545,34.441c34.067,64.969,64.934,133.239,94.783,199.26c28.138,62.236,57.236,126.592,89.003,188.17
	c9.588,18.584,18.697,34.949,33.107,47.023c11.959,10.017,27.667,16.072,44.229,17.05c16.571,0.989,32.871-3.192,45.923-11.739
	l0.086-0.058l0.026-0.099c4.825-18.872-15.345-32.913-31.553-44.197l-1.133-0.79c-49.825-34.714-79.182-99.913-80.546-178.886
	c-0.822-47.562,7.638-95.318,15.821-141.503c3.512-19.819,7.144-40.314,9.994-60.53c5.867-41.585,8.693-84.102,8.402-126.362
	c31.597-28.287,58.06-62.959,76.526-100.274c19.427-39.256,29.878-80.203,31.061-121.704c1.929-67.554-18.283-133.768-37.83-197.805
	C1891.605,791.954,1884.262,767.895,1878.092,744.135z"/>
<path style="fill:#AF8459;" d="M2120.836,372.485c-1.989-3.26-4.422-6.251-7.238-8.889c1.606-5.443,0.837-11.331,0.162-16.53
	c-0.461-3.533-0.921-7.065-1.379-10.598c-0.46-3.514-0.934-7.146-2.192-10.54c-4.378-11.815-16.342-16.693-23.085-18.548
	c-3.051-0.84-6.233-1.405-9.454-1.68c-15.706-1.326-31.898,3.82-42.326,13.437c-2.156,0.181-4.31,0.356-6.466,0.531
	c-16.891,1.379-34.36,2.805-51.38,6.05c-28.141,5.38-57.236,10.93-86.201,6.819c-21.397-3.035-42.109-11.393-62.134-19.474
	c-4.048-1.633-8.232-3.321-12.351-4.935c-19.168-7.52-41.439-15.447-65.029-15.447c-1.251,0-2.504,0.021-3.76,0.068
	c-18.854,0.689-39.555,5.467-58.296,13.453c-5.333-1.552-10.784-2.805-16.208-3.729c-10.454-1.779-21.217-2.423-31.626-3.046
	c-7.142-0.429-14.523-0.869-21.737-1.675c-1.251-0.141-2.499-0.29-3.744-0.455c-35.494-4.653-68.943-19.817-101.289-34.484
	c-3.585-1.625-7.165-3.248-10.742-4.854c-2.502-1.125-5.003-2.614-7.421-4.056c-5.288-3.151-10.747-6.403-16.959-6.403l-1.073,0.034
	c-1.204,0.073-2.915,0.317-3.865,1.557c-0.791,1.031-0.796,2.423-0.735,3.647c1.159,24.32,15.975,47.633,29.046,68.197
	c0.971,1.526,1.929,3.033,2.868,4.525c15.379,24.348,32.162,48.161,49.885,70.769c9.454,12.061,22.232,27.186,37.305,37.333
	c-8.589,26.654-13.539,52.513-14.322,74.802c-7.063,18.485-13.46,37.785-19.409,55.972l-0.065,0.204l0.181,0.11
	c20.958,12.822,54.036,31.045,92.588,45.013c31.932,11.571,64.309,19.866,96.228,24.665c21.808,3.277,43.438,4.914,64.715,4.914
	c17.571,0,34.905-1.12,51.892-3.354l0.215-0.032l0.018-0.21c2.07-22.718,6.851-43.438,13.822-59.907
	c7.251-17.134,16.747-29.255,27.46-35.059c38.872-21.043,79.099-34.42,116.332-38.67c12.212-1.397,25.807-4.155,34.033-13.968
	c3.642-4.344,5.83-9.687,7.944-14.858c0.924-2.256,1.881-4.595,2.944-6.814c2.701-5.626,6.226-10.796,10.478-15.366l0.827-0.879
	c2.115-2.235,4.3-4.543,5.118-7.52c0.16-0.586,0.262-1.199,0.303-1.822c2.11-1.491,4.195-2.674,6.377-3.616
	c3.412-1.47,7.167-2.355,10.799-3.213c5.804-1.371,11.804-2.784,16.447-6.631c5.16-4.265,8.308-11.215,9.355-20.651
	C2129.087,394.162,2126.653,382.02,2120.836,372.485z"/>
<path style="fill:#421F35;" d="M1869.352,703.885l0.118-0.021l0.065-0.1c9.221-14.062,10.352-56.857-0.696-68.794l-0.094-0.1
	l-0.138,0.016c-1.154,0.162-2.305,0.319-3.454,0.471c-85.018,11.216-162.531-8.06-212.583-26.193
	c-38.511-13.958-71.555-32.16-92.494-44.971l-0.1-0.063l-0.115,0.037c-20.471,5.997-36.466,46.395-29.011,73.263l0.026,0.089
	l0.079,0.057c0.214,0.152,1.065,0.738,2.996,1.968c10.273,6.516,48.386,29.161,107.556,46.976
	c50.113,15.083,101.302,22.651,152.922,22.651c24.736,0,49.576-1.737,74.436-5.218L1869.352,703.885z"/>
<path style="fill:#421F35;" d="M1144.39,1089.832l0.228,1.748c9.859,75.053-12.035,133.977-12.257,134.563l-0.125,0.33l43.773,3.998
	l0.282,0.026l0.008-0.283c2.122-65.8-30.838-138.059-31.171-138.781L1144.39,1089.832z"/>
<path style="fill:#421F35;" d="M1518.605,1208.381l-1.327-1.879l0.859,2.136c0.233,0.581,23.289,58.159,23.15,80.768l-0.003,0.225
	l31.286,5.244l-0.285-0.492C1571.965,1293.833,1540.13,1238.902,1518.605,1208.381z"/>
<path style="fill:#421F35;" d="M1799.749,1022.436l-0.958-1.277l0.487,1.523c0.317,0.979,31.448,99.31,28.818,194.22l-0.016,0.518
	l0.432-0.288c0.314-0.214,31.435-21.415,44.772-58.264l0.034-0.089l-0.034-0.094
	C1872.992,1157.91,1843.431,1080.82,1799.749,1022.436z"/>
<path style="fill:#421F35;" d="M1127.889,1034.612c-1.321,0.67-1.847,2.282-1.177,3.606c7.56,14.905,11.833,31.61,12.354,48.315
	c0.047,1.45,1.237,2.596,2.677,2.596h0.086c1.479-0.047,2.64-1.282,2.593-2.764c-0.547-17.485-5.019-34.97-12.932-50.576
	C1130.82,1034.471,1129.203,1033.953,1127.889,1034.612z"/>
<path style="fill:#421F35;" d="M1157.443,1056.441h-0.024c-1.47,0-2.667,1.183-2.679,2.659c-0.079,9.362-1.473,18.657-4.145,27.627
	c-0.424,1.418,0.385,2.91,1.803,3.334l0.764,0.11c1.156,0,2.221-0.753,2.567-1.915c2.815-9.447,4.286-19.243,4.37-29.114
	C1160.112,1057.666,1158.921,1056.452,1157.443,1056.441z"/>
<path style="fill:#421F35;" d="M767.638,1325.562c-1.481-0.246-2.816,0.832-3.012,2.297c-4.054,30.224-14.374,60.091-29.841,86.363
	c-0.751,1.277-0.327,2.92,0.948,3.669l1.358,0.371c0.918,0,1.813-0.471,2.31-1.319c15.829-26.89,26.388-57.448,30.538-88.372
	C770.134,1327.106,769.106,1325.756,767.638,1325.562z"/>
<path style="fill:#421F35;" d="M776.284,1368.691c-1.476-0.183-2.818,0.827-3.02,2.287c-1.322,9.541-4.532,19.013-9.287,27.387
	c-0.73,1.287-0.278,2.926,1.01,3.653l1.319,0.351c0.935,0,1.84-0.487,2.334-1.356c5.084-8.965,8.517-19.096,9.93-29.302
	C778.774,1370.245,777.751,1368.896,776.284,1368.691z"/>
<path style="fill:#421F35;" d="M931.555,958.078c-27.442,10.938-50.822,30.972-65.837,56.411c-0.751,1.272-0.33,2.915,0.947,3.669
	l1.358,0.371c0.916,0,1.811-0.471,2.311-1.319c14.413-24.419,36.859-43.652,63.205-54.15c1.374-0.55,2.046-2.109,1.497-3.486
	C934.486,958.203,932.924,957.555,931.555,958.078z"/>
<path style="fill:#421F35;" d="M929.313,984.34c-13.421,6.128-25.822,14.208-36.859,24.011c-1.107,0.984-1.206,2.68-0.225,3.784
	c0.531,0.596,1.266,0.9,2.004,0.9c0.633,0,1.27-0.225,1.78-0.675c10.637-9.452,22.59-17.239,35.525-23.143
	c1.347-0.617,1.939-2.203,1.324-3.554C932.252,984.319,930.655,983.727,929.313,984.34z"/>
<path style="fill:#421F35;" d="M1136.111,1271.003c-1.418-0.435-2.912,0.371-3.347,1.779c-4.888,15.957-10.86,31.762-17.749,46.986
	c-0.61,1.345-0.011,2.936,1.337,3.543l1.102,0.241c1.02,0,1.996-0.586,2.444-1.575c6.984-15.428,13.036-31.453,17.99-47.625
	C1138.322,1272.94,1137.527,1271.437,1136.111,1271.003z"/>
<path style="fill:#421F35;" d="M1147.941,1271.94c-1.481,0-2.68,1.198-2.68,2.68v32.589c0,1.481,1.199,2.679,2.68,2.679
	c1.481,0,2.68-1.198,2.68-2.679v-32.589C1150.621,1273.138,1149.422,1271.94,1147.941,1271.94z"/>
<path style="fill:#421F35;" d="M1378.458,1338.164l0.809,0.125c1.138,0,2.193-0.727,2.554-1.874
	c3.269-10.331,7.377-20.494,12.215-30.213c0.66-1.324,0.121-2.93-1.206-3.59c-1.319-0.67-2.93-0.121-3.593,1.204
	c-4.962,9.965-9.174,20.39-12.524,30.987C1376.265,1336.212,1377.047,1337.72,1378.458,1338.164z"/>
<path style="fill:#421F35;" d="M1390.403,1338.243l0.442,0.037c1.287,0,2.423-0.931,2.641-2.24
	c1.18-7.102,3.491-13.932,6.869-20.295c0.693-1.308,0.197-2.931-1.112-3.622c-1.306-0.701-2.928-0.194-3.624,1.11
	c-3.647,6.877-6.144,14.256-7.418,21.928C1387.957,1336.62,1388.943,1338.002,1390.403,1338.243z"/>
<path style="fill:#421F35;" d="M1544.574,1331.021c1.159-0.916,1.355-2.601,0.434-3.763c-0.916-1.167-2.603-1.365-3.763-0.434
	c-10.736,8.51-19.566,19.526-25.532,31.856c-0.644,1.334-0.086,2.936,1.245,3.58l1.165,0.267c0.997,0,1.952-0.555,2.415-1.512
	C1526.155,1349.406,1534.468,1339.033,1544.574,1331.021z"/>
<path style="fill:#421F35;" d="M1550.144,1342.974c-1.144-0.927-2.831-0.759-3.771,0.381c-5.765,7.076-11.137,14.597-15.965,22.352
	c-0.782,1.261-0.398,2.91,0.859,3.695c0.439,0.272,0.929,0.403,1.412,0.403c0.895,0,1.769-0.45,2.277-1.261
	c4.71-7.568,9.949-14.905,15.572-21.797C1551.463,1345.596,1551.291,1343.911,1550.144,1342.974z"/>
<path style="fill:#421F35;" d="M1446.721,1449.884c-1.17-0.911-2.85-0.696-3.76,0.471c-20.889,26.889-37.796,56.589-50.249,88.283
	c-0.542,1.376,0.136,2.931,1.515,3.475l0.979,0.183c1.068,0,2.08-0.644,2.494-1.701c12.265-31.212,28.918-60.468,49.496-86.954
	C1448.102,1452.474,1447.89,1450.789,1446.721,1449.884z"/>
<path style="fill:#421F35;" d="M1535.352,1218.396c0.623,0,1.248-0.215,1.756-0.654c1.117-0.968,1.238-2.664,0.27-3.779
	c-12.129-14-25.293-27.35-39.131-39.686c-1.101-0.979-2.795-0.89-3.781,0.215c-0.987,1.104-0.89,2.8,0.217,3.784
	c13.665,12.184,26.667,25.372,38.644,39.194C1533.858,1218.082,1534.604,1218.396,1535.352,1218.396z"/>
<path style="fill:#421F35;" d="M1534.674,1207.302c0.521,0.748,1.355,1.151,2.203,1.151c0.529,0,1.063-0.157,1.529-0.481
	c1.214-0.843,1.515-2.512,0.67-3.727c-5.613-8.07-11.872-15.784-18.605-22.943c-1.018-1.078-2.711-1.125-3.789-0.115
	c-1.078,1.016-1.128,2.711-0.115,3.789C1523.121,1191.941,1529.213,1199.451,1534.674,1207.302z"/>
<path style="fill:#421F35;" d="M1797.128,1011.308l1.301-0.34c1.292-0.717,1.758-2.35,1.039-3.643l-18.417-33.101
	c-0.717-1.293-2.345-1.759-3.645-1.036c-1.293,0.717-1.759,2.35-1.039,3.643l18.417,33.102
	C1795.272,1010.81,1796.186,1011.308,1797.128,1011.308z"/>
<path style="fill:#421F35;" d="M1804.298,988.265c-0.526-1.382-2.064-2.057-3.457-1.555c-1.382,0.529-2.078,2.073-1.552,3.46
	c2.69,7.086,4.957,14.403,6.736,21.75c0.296,1.23,1.392,2.052,2.601,2.052l0.633-0.073c1.437-0.35,2.321-1.801,1.973-3.234
	C1809.403,1003.096,1807.069,995.56,1804.298,988.265z"/>
<path style="fill:#421F35;" d="M1806.674,1343.429c-1.46-0.204-2.745,1.047-2.826,2.523c-1.489,26.34-5.354,52.707-11.487,78.371
	c-0.343,1.439,0.544,2.884,1.983,3.229l0.625,0.073c1.212,0,2.31-0.827,2.604-2.057c6.21-25.974,10.119-52.659,11.624-79.313
	C1809.28,1344.78,1808.15,1343.513,1806.674,1343.429z"/>
<path style="fill:#421F35;" d="M1793.938,1374.888c-0.068-1.476-1.369-2.674-2.799-2.548c-1.479,0.068-2.622,1.318-2.554,2.8
	c0.549,11.922-0.309,23.912-2.554,35.635c-0.277,1.45,0.675,2.857,2.128,3.135l0.507,0.047c1.262,0,2.384-0.895,2.63-2.177
	C1793.619,1399.647,1794.509,1387.233,1793.938,1374.888z"/>
<path style="fill:#421F35;" d="M1744.84,1617.836c-0.589-1.366-2.164-1.999-3.522-1.397c-1.361,0.586-1.984,2.167-1.398,3.522
	c6.825,15.779,14.481,31.411,22.76,46.463c0.487,0.885,1.405,1.387,2.35,1.387l1.29-0.33c1.295-0.717,1.769-2.345,1.055-3.643
	C1759.177,1648.938,1751.597,1633.458,1744.84,1617.836z"/>
<path style="fill:#421F35;" d="M1758.369,1625.655c-0.646-1.324-2.243-1.879-3.585-1.235c-1.33,0.649-1.882,2.251-1.235,3.58
	l12.259,25.147c0.463,0.952,1.415,1.507,2.41,1.507l1.172-0.272c1.33-0.649,1.882-2.251,1.233-3.58L1758.369,1625.655z"/>
<path style="fill:#421F35;" d="M1852.953,1770.827c-1.423-0.388-2.902,0.455-3.284,1.884c-0.387,1.429,0.458,2.9,1.887,3.287
	c7.18,1.947,13.793,6.133,18.615,11.791c0.528,0.623,1.282,0.942,2.039,0.942c0.615,0,1.233-0.209,1.737-0.638
	c1.127-0.963,1.261-2.654,0.301-3.779C1868.733,1777.839,1861.17,1773.051,1852.953,1770.827z"/>
<path style="fill:#421F35;" d="M1877.676,1759.37c-1.321-0.664-2.933-0.131-3.595,1.198c-0.665,1.319-0.128,2.931,1.193,3.595
	c6.518,3.266,11.969,8.965,14.949,15.627c0.447,0.995,1.423,1.586,2.449,1.586l1.092-0.235c1.35-0.602,1.957-2.188,1.353-3.538
	C1891.587,1769.717,1885.393,1763.238,1877.676,1759.37z"/>
<path style="fill:#421F35;" d="M1371.047,1700.358c-1.117-0.963-2.81-0.848-3.779,0.267c-0.971,1.12-0.851,2.81,0.267,3.783
	c4.464,3.878,8.012,8.824,10.258,14.308c0.427,1.036,1.426,1.664,2.481,1.664l1.015-0.199c1.369-0.56,2.025-2.125,1.465-3.496
	C1380.192,1710.432,1376.145,1704.785,1371.047,1700.358z"/>
<path style="fill:#421F35;" d="M1384.008,1700.185c-1.206-0.879-2.876-0.596-3.742,0.607c-0.863,1.198-0.594,2.873,0.607,3.737
	c4.862,3.506,8.721,8.253,11.163,13.727c0.445,0.999,1.423,1.591,2.449,1.591l1.088-0.23c1.35-0.602,1.96-2.188,1.356-3.537
	C1394.106,1709.736,1389.636,1704.241,1384.008,1700.185z"/>
<path style="fill:#421F35;" d="M1003.717,1771.779c-1.431-0.246-2.8,0.869-2.975,2.345c-0.172,1.47,0.877,2.8,2.347,2.973
	c5.658,0.675,10.98,3.575,14.599,7.965c0.528,0.644,1.295,0.974,2.07,0.974c0.599,0,1.204-0.199,1.701-0.613
	c1.143-0.942,1.305-2.632,0.363-3.773C1017.332,1776.207,1010.735,1772.606,1003.717,1771.779z"/>
<path style="fill:#421F35;" d="M1016.293,1762.756c-1.423-0.424-2.91,0.414-3.32,1.832c-0.411,1.418,0.408,2.905,1.829,3.318
	c4.681,1.355,8.881,4.48,11.524,8.577c0.51,0.791,1.373,1.225,2.253,1.225c0.497,0,1.002-0.136,1.45-0.429
	c1.243-0.801,1.601-2.46,0.798-3.705C1027.495,1768.408,1022.197,1764.467,1016.293,1762.756z"/>
<path style="fill:#421F35;" d="M544.419,1771.868c-1.421,0.418-2.235,1.905-1.821,3.323c1.479,5.071,1.936,10.53,1.319,15.779
	c-0.172,1.47,0.879,2.805,2.35,2.978l0.314,0.016c1.34,0,2.499-1.005,2.658-2.366c0.699-5.961,0.183-12.152-1.497-17.904
	C547.329,1772.271,545.838,1771.475,544.419,1771.868z"/>
<path style="fill:#421F35;" d="M556.948,1773.16c-1.287,0.728-1.74,2.365-1.01,3.653c2.434,4.286,3.582,9.362,3.237,14.287
	c-0.102,1.476,1.01,2.758,2.488,2.863l0.189,0.005c1.394,0,2.572-1.078,2.672-2.491c0.416-5.966-0.976-12.116-3.922-17.313
	C559.868,1772.883,558.231,1772.417,556.948,1773.16z"/>
<path style="fill:#421F35;" d="M1539.533,654.468c-1.376-0.518-2.933,0.157-3.462,1.539c-3.119,8.091-5.73,16.449-7.764,24.854
	c-0.348,1.434,0.534,2.883,1.973,3.234l0.633,0.073c1.209,0,2.305-0.822,2.601-2.052c1.978-8.175,4.521-16.307,7.555-24.184
	C1541.604,656.551,1540.915,655.002,1539.533,654.468z"/>
<path style="fill:#421F35;" d="M1543.312,682.572l0.149,0.005c1.413,0,2.593-1.104,2.672-2.533c0.209-3.784,0.955-7.51,2.217-11.079
	c0.494-1.397-0.238-2.925-1.633-3.422c-1.395-0.497-2.928,0.241-3.417,1.632c-1.434,4.051-2.279,8.28-2.515,12.576
	C1540.701,681.227,1541.833,682.493,1543.312,682.572z"/>
<path style="fill:#421F35;" d="M1849.753,715.873c-1.463-0.283-2.86,0.67-3.138,2.13c-1.91,9.97-3.19,20.17-3.805,30.328
	c-0.089,1.476,1.036,2.748,2.512,2.836l0.165,0.005c1.405,0,2.585-1.094,2.671-2.518c0.602-9.928,1.853-19.903,3.721-29.648
	C1852.158,717.558,1851.205,716.15,1849.753,715.873z"/>
<path style="fill:#421F35;" d="M1859.634,748.006l0.884-0.152c1.398-0.487,2.133-2.014,1.646-3.412
	c-1.947-5.569-2.983-11.388-3.077-17.281c-0.026-1.481-1.094-2.664-2.725-2.638c-1.478,0.026-2.658,1.245-2.635,2.721
	c0.104,6.474,1.24,12.854,3.375,18.966C1857.491,747.315,1858.527,748.006,1859.634,748.006z"/>
<path style="fill:#421F35;" d="M1694.745,708.849c-1.405-0.418-2.905,0.414-3.313,1.837l-7.879,27.601
	c-0.406,1.418,0.418,2.905,1.842,3.308l0.738,0.104c1.165,0,2.237-0.77,2.575-1.947l7.879-27.591
	C1696.993,710.738,1696.169,709.252,1694.745,708.849z"/>
<path style="fill:#421F35;" d="M1697.867,721.373c-1.479,0.063-2.625,1.319-2.557,2.795l0.788,17.344
	c0.065,1.439,1.251,2.559,2.674,2.559l0.123-0.005c1.479-0.063,2.625-1.319,2.557-2.795l-0.788-17.344
	C1700.596,722.446,1699.244,721.221,1697.867,721.373z"/>
<path style="fill:#421F35;" d="M1578.68,542.451c-1.444-0.303-2.863,0.649-3.158,2.093c-0.948,4.684-2.471,9.253-4.525,13.576
	c-0.636,1.34-0.065,2.936,1.272,3.569l1.146,0.262c1.002,0,1.965-0.565,2.423-1.528c2.24-4.72,3.902-9.703,4.938-14.811
	C1581.069,544.157,1580.13,542.744,1578.68,542.451z"/>
<path style="fill:#421F35;" d="M1589.618,548.747c-4.27,4.454-8.096,9.373-11.375,14.622c-0.785,1.251-0.403,2.905,0.851,3.69
	c0.442,0.278,0.934,0.408,1.418,0.408c0.892,0,1.766-0.445,2.274-1.262c3.085-4.935,6.686-9.562,10.7-13.753
	c1.026-1.068,0.989-2.763-0.078-3.789C1592.337,547.643,1590.641,547.679,1589.618,548.747z"/>
<path style="fill:#421F35;" d="M1694.044,620.294h0.039c1.479-0.021,2.661-1.24,2.641-2.716c-0.092-6.427,0.427-12.89,1.539-19.212
	c0.253-1.46-0.72-2.847-2.177-3.104c-1.452-0.299-2.847,0.717-3.104,2.172c-1.169,6.657-1.714,13.46-1.617,20.217
	C1691.386,619.121,1692.581,620.294,1694.044,620.294z"/>
<path style="fill:#421F35;" d="M1705.827,603.212c-1.429-0.424-2.907,0.408-3.318,1.832c-1.311,4.538-2.141,9.232-2.465,13.963
	c-0.1,1.476,1.016,2.752,2.491,2.857l0.186,0.005c1.398,0,2.575-1.083,2.672-2.496c0.298-4.349,1.06-8.671,2.266-12.843
	C1708.07,605.106,1707.251,603.625,1705.827,603.212z"/>
<path style="fill:#421F35;" d="M1838.69,600.401c0.073-1.476-1.065-2.732-2.543-2.805c-1.51-0.272-2.735,1.068-2.81,2.544
	c-0.453,9.106,0.884,18.468,3.872,27.078c0.382,1.104,1.421,1.8,2.531,1.8l0.879-0.146c1.397-0.487,2.138-2.015,1.651-3.412
	C1839.506,617.494,1838.268,608.832,1838.69,600.401z"/>
<path style="fill:#421F35;" d="M1844.949,628.133l0.594,0.068c1.225,0,2.329-0.842,2.611-2.088l4.642-20.515
	c0.327-1.444-0.581-2.878-2.023-3.203c-1.452-0.34-2.876,0.576-3.206,2.02l-4.642,20.515
	C1842.599,626.375,1843.504,627.809,1844.949,628.133z"/>
<path style="fill:#421F35;" d="M1621.608,462.635c-7.526-6.207-13.806-14.104-18.168-22.839c-0.662-1.319-2.274-1.863-3.595-1.198
	c-1.321,0.659-1.86,2.271-1.198,3.595c4.692,9.394,11.453,17.893,19.55,24.576c0.5,0.414,1.104,0.613,1.703,0.613
	c0.772,0,1.539-0.33,2.07-0.973C1622.911,465.268,1622.749,463.577,1621.608,462.635z"/>
<path style="fill:#421F35;" d="M1635.241,446.118c-8.698-1.031-17.247-4.621-24.069-10.111c-1.151-0.927-2.845-0.743-3.768,0.408
	c-0.927,1.151-0.746,2.841,0.408,3.768c7.596,6.113,17.116,10.111,26.8,11.252l0.317,0.021c1.34,0,2.496-0.999,2.659-2.365
	C1637.76,447.62,1636.711,446.291,1635.241,446.118z"/>
<path style="fill:#421F35;" d="M1686.916,380.92c0.932-1.151,0.759-2.836-0.39-3.768c-10.791-8.766-25.06-13.89-44.903-16.124
	c-5.961-0.67-12.024-1.073-17.888-1.46c-9.423-0.617-19.167-1.261-28.509-3.062c-24.961-4.815-47.873-18.045-64.516-37.251
	c-0.97-1.12-2.664-1.241-3.781-0.272c-1.117,0.968-1.238,2.664-0.27,3.779c17.427,20.117,41.418,33.97,67.551,39.01
	c9.672,1.857,19.584,2.512,29.171,3.145c5.801,0.382,11.802,0.78,17.639,1.439c18.78,2.115,32.168,6.867,42.125,14.952
	c0.497,0.408,1.096,0.602,1.688,0.602C1685.613,381.909,1686.385,381.569,1686.916,380.92z"/>
<path style="fill:#421F35;" d="M1647.338,375.435c-7.892,0.633-16.056,1.287-23.943,3.653c-2.222,0.665-5.103,1.659-7.683,3.423
	c-6.134,4.192-9.268,12.178-7.62,19.421c1.646,7.243,7.926,13.089,15.271,14.214l0.408,0.032c1.301,0,2.444-0.948,2.645-2.271
	c0.225-1.466-0.78-2.831-2.242-3.056c-5.139-0.79-9.706-5.04-10.857-10.106c-1.154-5.071,1.125-10.875,5.419-13.806
	c1.973-1.35,4.351-2.162,6.199-2.722c7.343-2.198,15.216-2.831,22.831-3.443c1.476-0.115,2.575-1.408,2.457-2.884
	C1650.106,376.414,1648.824,375.351,1647.338,375.435z"/>
<path style="fill:#421F35;" d="M1698.71,316.804c-1.439-0.377-2.897,0.487-3.266,1.926c-0.371,1.429,0.489,2.894,1.921,3.266
	c10.569,2.732,20.426,8.698,27.753,16.794c0.528,0.581,1.256,0.879,1.986,0.879c0.641,0,1.285-0.23,1.798-0.691
	c1.099-0.994,1.183-2.69,0.188-3.789C1721.067,326.329,1710.278,319.803,1698.71,316.804z"/>
<path style="fill:#421F35;" d="M1737.079,321.185c-9.279-4.924-19.696-8.091-30.129-9.159c-1.445-0.167-2.787,0.916-2.939,2.392
	c-0.149,1.471,0.921,2.789,2.394,2.936c9.75,0.999,19.489,3.961,28.161,8.562l1.254,0.314c0.96,0,1.889-0.518,2.371-1.423
	C1738.885,323.498,1738.387,321.875,1737.079,321.185z"/>
<path style="fill:#421F35;" d="M2061.104,445.789c-8.02,6.636-16.593,12.759-25.481,18.197c-1.261,0.774-1.659,2.423-0.885,3.684
	c0.505,0.827,1.384,1.282,2.287,1.282l1.397-0.393c9.103-5.573,17.883-11.848,26.099-18.647c1.141-0.942,1.298-2.632,0.356-3.768
	C2063.933,444.993,2062.242,444.841,2061.104,445.789z"/>
<path style="fill:#421F35;" d="M2023.774,480.91c-5.715-0.366-11.484-0.094-17.156,0.811c-1.46,0.235-2.455,1.612-2.221,3.072
	c0.21,1.319,1.348,2.256,2.643,2.256l0.427-0.031c5.278-0.843,10.652-1.104,15.962-0.759c1.507,0.078,2.752-1.026,2.847-2.502
	C2026.37,482.282,2025.25,481.005,2023.774,480.91z"/>
<path style="fill:#421F35;" d="M2047.576,372.039c0.85-1.915,0.388-3.841-1.165-4.794c-1.057-0.638-2.784-0.424-3.658,0.461
	c-0.902,0.91-1.183,2.256-0.751,3.37c-2.894,4.207-9.837,5.045-15.12,3.041c-7.56-2.868-14.109-11.901-11.42-20.27
	c1.497-4.663,5.335-8.206,9.397-11.958c4.21-3.883,8.562-7.902,10.655-13.539c0.515-1.387-0.191-2.926-1.578-3.443
	c-1.395-0.524-2.934,0.183-3.447,1.58c-1.646,4.433-5.348,7.85-9.266,11.466c-4.393,4.056-8.936,8.248-10.865,14.251
	c-3.663,11.399,4.603,23.122,14.622,26.926c2.381,0.9,5.016,1.371,7.644,1.371C2038.844,380.501,2045.003,377.858,2047.576,372.039z
	"/>
<path style="fill:#421F35;" d="M2104.346,368.166c-5.288-0.654-10.425,0.435-15.384,1.481c-1.366,0.293-2.732,0.581-4.095,0.827
	c-7.261,1.329-12.568,0.722-16.192-1.863c-1.693-1.209-3.122-2.92-4.631-4.731c-2.196-2.638-4.467-5.359-7.872-6.934
	c-6.094-2.837-13.813-0.921-21.724,5.385c-1.156,0.921-1.345,2.606-0.421,3.763c0.924,1.162,2.609,1.345,3.765,0.424
	c3.611-2.873,10.509-7.306,16.127-4.71c2.314,1.068,4.108,3.224,6.008,5.501c1.662,1.994,3.378,4.056,5.634,5.668
	c3.318,2.365,7.452,3.543,12.526,3.543c2.374,0,4.951-0.256,7.748-0.769c1.411-0.262,2.821-0.56,4.234-0.859
	c4.736-0.999,9.214-1.926,13.628-1.408c1.473,0.193,2.805-0.863,2.983-2.334C2106.861,369.678,2105.817,368.344,2104.346,368.166z"
	/>
</svg>
