<?xml version="1.0" encoding="UTF-8"?>
<svg xmlns="http://www.w3.org/2000/svg" xmlns:xlink="http://www.w3.org/1999/xlink" width="30px" height="30px" viewBox="0 0 30 30" version="1.1">
<g id="surface1">
<path style="fill:none;stroke-width:1.5;stroke-linecap:round;stroke-linejoin:miter;stroke:rgb(10.980392%,15.294118%,29.803922%);stroke-opacity:1;stroke-miterlimit:4;" d="M 21.19375 16.79375 C 20.84375 19.275 20.66875 20.515625 19.771875 21.25625 C 18.875 22 17.55 22 14.903125 22 L 9.096875 22 C 6.45 22 5.125 22 4.228125 21.25625 C 3.33125 20.515625 3.15625 19.275 2.80625 16.79375 L 2.384375 13.79375 C 1.9375 10.628125 1.715625 9.046875 2.6625 8.025 C 3.609375 7 5.296875 7 8.671875 7 L 15.328125 7 C 18.703125 7 20.390625 7 21.3375 8.025 C 22.0875 8.83125 22.103125 9.990625 21.859375 12 " transform="matrix(1.25,0,0,1.25,0,0)"/>
<path style="fill:none;stroke-width:1.5;stroke-linecap:butt;stroke-linejoin:miter;stroke:rgb(10.980392%,15.294118%,29.803922%);stroke-opacity:1;stroke-miterlimit:4;" d="M 19.5625 7 C 19.790625 5.69375 18.7875 4.5 17.4625 4.5 L 6.5375 4.5 C 5.2125 4.5 4.209375 5.69375 4.4375 7 " transform="matrix(1.25,0,0,1.25,0,0)"/>
<path style="fill:none;stroke-width:1.5;stroke-linecap:butt;stroke-linejoin:miter;stroke:rgb(10.980392%,15.294118%,29.803922%);stroke-opacity:1;stroke-miterlimit:4;" d="M 17.5 4.5 C 17.528125 4.240625 17.54375 4.1125 17.54375 4.003125 C 17.54375 2.98125 16.775 2.121875 15.75625 2.0125 C 15.65 2 15.51875 2 15.259375 2 L 8.740625 2 C 8.48125 2 8.35 2 8.24375 2.0125 C 7.225 2.121875 6.45625 2.98125 6.45625 4.003125 C 6.45625 4.1125 6.471875 4.240625 6.5 4.5 " transform="matrix(1.25,0,0,1.25,0,0)"/>
<path style="fill:none;stroke-width:1.5;stroke-linecap:butt;stroke-linejoin:miter;stroke:rgb(10.980392%,15.294118%,29.803922%);stroke-opacity:1;stroke-miterlimit:4;" d="M 18 11.5 C 18 12.328125 17.328125 13 16.5 13 C 15.671875 13 15 12.328125 15 11.5 C 15 10.671875 15.671875 10 16.5 10 C 17.328125 10 18 10.671875 18 11.5 Z M 18 11.5 " transform="matrix(1.25,0,0,1.25,0,0)"/>
<path style="fill:none;stroke-width:1.5;stroke-linecap:round;stroke-linejoin:miter;stroke:rgb(10.980392%,15.294118%,29.803922%);stroke-opacity:1;stroke-miterlimit:4;" d="M 20 20 L 17.115625 17.85 C 16.184375 17.159375 14.8 17.090625 13.778125 17.684375 L 13.509375 17.840625 C 12.796875 18.253125 11.83125 18.184375 11.215625 17.675 L 7.378125 14.5 C 6.6125 13.865625 5.38125 13.83125 4.565625 14.421875 L 3.24375 15.38125 " transform="matrix(1.25,0,0,1.25,0,0)"/>
</g>
</svg>
