<?xml version="1.0" encoding="UTF-8"?>
<svg xmlns="http://www.w3.org/2000/svg" xmlns:xlink="http://www.w3.org/1999/xlink" width="40px" height="40px" viewBox="0 0 40 40" version="1.1">
<g id="surface1">
<path style="fill:none;stroke-width:1.5;stroke-linecap:round;stroke-linejoin:miter;stroke:rgb(10.980392%,15.294118%,29.803922%);stroke-opacity:1;stroke-miterlimit:4;" d="M 21.194531 16.792969 C 20.842969 19.275 20.669531 20.514844 19.771875 21.257812 C 18.874219 22.000781 17.552344 22.000781 14.903906 22.000781 L 9.096094 22.000781 C 6.447656 22.000781 5.125781 22.000781 4.228125 21.257812 C 3.330469 20.514844 3.157031 19.275 2.805469 16.792969 L 2.383594 13.792969 C 1.938281 10.628906 1.715625 9.046875 2.6625 8.025 C 3.609375 7.000781 5.296875 7.000781 8.671875 7.000781 L 15.328125 7.000781 C 18.703125 7.000781 20.390625 7.000781 21.3375 8.025 C 22.0875 8.833594 22.103906 9.989062 21.860156 12 " transform="matrix(1.666667,0,0,1.666667,0,0)"/>
<path style="fill:none;stroke-width:1.5;stroke-linecap:butt;stroke-linejoin:miter;stroke:rgb(10.980392%,15.294118%,29.803922%);stroke-opacity:1;stroke-miterlimit:4;" d="M 19.560937 7.000781 C 19.790625 5.695312 18.785156 4.5 17.460937 4.5 L 6.536719 4.5 C 5.2125 4.5 4.209375 5.695312 4.436719 7.000781 " transform="matrix(1.666667,0,0,1.666667,0,0)"/>
<path style="fill:none;stroke-width:1.5;stroke-linecap:butt;stroke-linejoin:miter;stroke:rgb(10.980392%,15.294118%,29.803922%);stroke-opacity:1;stroke-miterlimit:4;" d="M 17.500781 4.5 C 17.528906 4.239844 17.542969 4.110937 17.542969 4.005469 C 17.545312 2.98125 16.774219 2.121094 15.757031 2.010937 C 15.649219 1.999219 15.520312 1.999219 15.257812 1.999219 L 8.739844 1.999219 C 8.479687 1.999219 8.350781 1.999219 8.242969 2.010937 C 7.225781 2.121094 6.454687 2.98125 6.457031 4.005469 C 6.457031 4.110937 6.471094 4.239844 6.499219 4.5 " transform="matrix(1.666667,0,0,1.666667,0,0)"/>
<path style="fill:none;stroke-width:1.5;stroke-linecap:butt;stroke-linejoin:miter;stroke:rgb(10.980392%,15.294118%,29.803922%);stroke-opacity:1;stroke-miterlimit:4;" d="M 18 11.500781 C 18 12.328125 17.327344 13.000781 16.5 13.000781 C 15.672656 13.000781 15 12.328125 15 11.500781 C 15 10.671094 15.672656 10.000781 16.5 10.000781 C 17.327344 10.000781 18 10.671094 18 11.500781 Z M 18 11.500781 " transform="matrix(1.666667,0,0,1.666667,0,0)"/>
<path style="fill:none;stroke-width:1.5;stroke-linecap:round;stroke-linejoin:miter;stroke:rgb(10.980392%,15.294118%,29.803922%);stroke-opacity:1;stroke-miterlimit:4;" d="M 19.999219 19.999219 L 17.116406 17.852344 C 16.185937 17.158594 14.800781 17.090625 13.776562 17.685937 L 13.509375 17.840625 C 12.799219 18.253125 11.83125 18.185156 11.214844 17.676562 L 7.378125 14.498437 C 6.611719 13.865625 5.383594 13.830469 4.567969 14.421094 L 3.24375 15.379687 " transform="matrix(1.666667,0,0,1.666667,0,0)"/>
</g>
</svg>
