<?xml version="1.0" encoding="UTF-8"?>
<svg xmlns="http://www.w3.org/2000/svg" xmlns:xlink="http://www.w3.org/1999/xlink" width="40px" height="40px" viewBox="0 0 40 40" version="1.1">
<g id="surface1">
<path style="fill:none;stroke-width:1.5;stroke-linecap:butt;stroke-linejoin:miter;stroke:rgb(10.980392%,15.294118%,29.803922%);stroke-opacity:1;stroke-miterlimit:4;" d="M 13.000781 6 C 13.000781 8.210156 11.210156 10.000781 9 10.000781 C 6.789844 10.000781 4.999219 8.210156 4.999219 6 C 4.999219 3.789844 6.789844 1.999219 9 1.999219 C 11.210156 1.999219 13.000781 3.789844 13.000781 6 Z M 13.000781 6 " transform="matrix(1.666667,0,0,1.666667,0,0)"/>
<path style="fill:none;stroke-width:1.5;stroke-linecap:round;stroke-linejoin:miter;stroke:rgb(10.980392%,15.294118%,29.803922%);stroke-opacity:1;stroke-miterlimit:4;" d="M 15 9 C 16.657031 9 18 7.657031 18 6 C 18 4.342969 16.657031 3 15 3 " transform="matrix(1.666667,0,0,1.666667,0,0)"/>
<path style="fill:none;stroke-width:1.5;stroke-linecap:round;stroke-linejoin:miter;stroke:rgb(10.980392%,15.294118%,29.803922%);stroke-opacity:1;stroke-miterlimit:4;" d="M 5.889844 20.585156 C 6.827344 20.85 7.882031 21 9 21 C 12.864844 21 16.000781 19.209375 16.000781 16.999219 C 16.000781 14.791406 12.864844 13.000781 9 13.000781 C 5.135156 13.000781 1.999219 14.791406 1.999219 16.999219 C 1.999219 17.346094 2.076562 17.68125 2.219531 18 " transform="matrix(1.666667,0,0,1.666667,0,0)"/>
<path style="fill:none;stroke-width:1.5;stroke-linecap:round;stroke-linejoin:miter;stroke:rgb(10.980392%,15.294118%,29.803922%);stroke-opacity:1;stroke-miterlimit:4;" d="M 18 13.999219 C 19.753125 14.383594 21 15.358594 21 16.5 C 21 17.528906 19.985156 18.421875 18.499219 18.869531 " transform="matrix(1.666667,0,0,1.666667,0,0)"/>
</g>
</svg>
