<?xml version="1.0" encoding="utf-8"?><!-- Uploaded to: SVG Repo, www.svgrepo.com, Generator: SVG Repo Mixer Tools -->
<svg width="800px" height="800px" viewBox="0 0 128 128" xmlns="http://www.w3.org/2000/svg" xmlns:xlink="http://www.w3.org/1999/xlink" aria-hidden="true" role="img" class="iconify iconify--noto" preserveAspectRatio="xMidYMid meet"><linearGradient id="IconifyId17ecdb2904d178eab8862" x1="63.938" x2="63.938" y1="10.99" y2="121.29" gradientTransform="matrix(-1 0 0 1 127.85 0)" gradientUnits="userSpaceOnUse"><stop stop-color="#FFB300" offset="0"></stop><stop stop-color="#FFCA28" offset=".401"></stop></linearGradient><path d="M83.59 121.86c-3.74 0-7.04-.64-9.82-1.89c-3.49-1.58-7.59-3.88-11.56-6.1c-7.4-4.14-15.05-8.43-20.26-9.01c-1.85-.2-4.34-.27-7.21-.34c-8.53-.22-21.43-.54-25.32-5.43c-6.25-7.86-5.07-14.88-.7-25.08c5.54-12.92 5.66-21.28 5.39-34.95c-.16-8.18-.69-17.34-1.1-23.58c-.08-1.28.35-2.49 1.22-3.43c.88-.94 2.06-1.45 3.35-1.45l29.28.01c1.24 0 2.4.49 3.27 1.37s1.33 2.05 1.31 3.28c-.26 14.4-.11 39.53 3.78 46.12c5.22 8.84 13.79 17.72 18.74 20.89c2.34 1.5 4.45 3.55 6.49 5.55c.8.79 1.61 1.57 2.42 2.31c3.22 2.97 6.43 4.89 11.08 6.63c.42.16.82.31 1.22.47c2.03.79 3.94 1.54 6.3 1.74c.47.04 1.09.06 1.93.06c.75 0 1.6-.02 2.47-.03c.89-.02 1.8-.03 2.64-.03c1.24 0 2.1.04 2.62.12c1.67.25 3.14 1.03 4.44 1.72c1.33.7 2.47 1.31 3.68 1.31c.52 0 1.02-.12 1.46-.35c.11.03.4.13.91.5c.95.69 1.45 2.79.88 3.67l-.39.61c-.57.89-.95 1.9-1.12 3.02c-.22 1.43-.87 3.35-2.71 4.39c-.66.37-1.27.85-1.79 1.42c-.58.62-1.61 1.42-3.29 1.69c-.8.13-1.54.37-2.19.71c-.77.39-2 .91-3.51 1.11c-1.31.18-2.57.7-3.66 1.52c-.85.64-2.17 1.41-3.67 1.41c-.23 0-.47-.02-.7-.06c-1.04-.17-1.64-.37-1.96-.51c-1.07-.46-2.16-.7-3.24-.7c-.55 0-1.1.06-1.62.19c-2.15.52-5.44 1.12-9.06 1.12z" fill="url(#IconifyId17ecdb2904d178eab8862)"></path><path d="M17.58 12.11l29.27.01c.83 0 1.62.33 2.2.92s.89 1.38.88 2.21c-.32 17.78.11 40.34 3.99 46.91c5.33 9.03 14.13 18.13 19.22 21.39c2.21 1.41 4.17 3.33 6.26 5.36c.79.77 1.61 1.57 2.45 2.34c3.38 3.11 6.73 5.12 11.57 6.93c.41.15.81.31 1.2.46c2.04.79 4.15 1.61 6.71 1.84c.52.05 1.17.07 2.06.07c.76 0 1.62-.02 2.5-.03c.88-.02 1.78-.03 2.61-.03c1.15 0 1.95.03 2.4.1c1.42.21 2.71.9 3.96 1.57c1.44.76 2.8 1.49 4.38 1.49c.48 0 .95-.07 1.4-.21l.09.06c.33.26.62 1.29.48 1.68l-.37.58c-.69 1.07-1.14 2.28-1.35 3.61c-.17 1.1-.64 2.57-1.96 3.31c-.8.45-1.53 1.02-2.16 1.7c-.42.45-1.18 1.02-2.43 1.23c-.95.15-1.84.44-2.64.85c-.54.28-1.65.77-3.02.96a9.28 9.28 0 0 0-4.37 1.82c-.66.5-1.68 1.1-2.76 1.1c-.15 0-.31-.01-.46-.04c-.94-.15-1.41-.32-1.61-.4c-1.26-.54-2.55-.82-3.83-.82c-.67 0-1.33.08-1.97.23c-2.05.48-5.22 1.06-8.69 1.06c-3.53 0-6.62-.59-9.2-1.76c-3.43-1.55-7.5-3.83-11.44-6.04c-7.88-4.41-15.32-8.58-20.83-9.19c-1.91-.21-4.43-.28-7.34-.35c-7.75-.2-20.73-.53-24.18-4.87c-4.47-5.61-5.87-11.02-.5-23.56c5.66-13.2 5.78-21.69 5.51-35.57c-.16-8.2-.69-17.39-1.1-23.65c-.06-.86.24-1.68.82-2.3c.59-.63 1.39-.97 2.25-.97m0-3a6.08 6.08 0 0 0-6.07 6.48c.4 6.02.94 15.28 1.1 23.51c.27 13.59.18 21.61-5.27 34.33c-5.45 12.71-4.75 19.51.9 26.6c5.65 7.1 25.91 5.49 33.54 6.33s21.45 10.49 31.36 14.98c3.36 1.52 7.04 2.03 10.44 2.03c3.74 0 7.14-.61 9.38-1.14c.42-.1.85-.15 1.28-.15c.9 0 1.8.21 2.65.57c.51.22 1.25.44 2.32.61c.32.05.63.08.94.08c1.91 0 3.53-.92 4.57-1.71c.86-.66 1.88-1.09 2.95-1.23c1.75-.24 3.17-.84 4-1.26c.55-.28 1.14-.46 1.75-.56c2.15-.35 3.47-1.42 4.15-2.15c.42-.45.9-.83 1.43-1.13c2.47-1.39 3.23-3.96 3.46-5.47c.13-.86.42-1.7.9-2.43l.39-.61c1.06-1.63.28-4.58-1.25-5.7c-.52-.38-1.22-.79-1.84-.79c-.2 0-.4.04-.58.15c-.26.15-.53.21-.83.21c-1.81 0-4.34-2.48-7.89-3.02c-.69-.1-1.71-.14-2.85-.14c-1.66 0-3.59.07-5.11.07c-.71 0-1.33-.01-1.8-.06c-2.59-.23-4.7-1.22-7.12-2.12c-4.22-1.59-7.31-3.31-10.59-6.33c-2.94-2.71-5.73-5.85-9.12-8.02c-4.89-3.13-13.26-11.94-18.26-20.39c-3.81-6.46-3.8-33.11-3.58-45.33c.06-3.4-2.68-6.18-6.08-6.18l-29.27-.03z" fill="#EDA600"></path><path d="M120.72 108.62c-1.01-1.2-2.15-1.33-3-1.25c-1.31.12-1.29-2.2-4.04-2.7" fill="none" stroke="#EDA600" stroke-linecap="round" stroke-linejoin="round" stroke-miterlimit="10" stroke-width="3"></path><path d="M117.6 114.12c-.8-1.37-2.43-3.02-4-3.25c-1.38-3.12-3.24-4.42-6.92-5.12" fill="none" stroke="#EDA600" stroke-linecap="round" stroke-linejoin="round" stroke-miterlimit="10" stroke-width="3"></path><path d="M112.35 117c.02-1.85-2.15-3.73-4-3.88c-1.31-2.89-5.5-4.74-8.58-5.46" fill="none" stroke="#EDA600" stroke-linecap="round" stroke-linejoin="round" stroke-miterlimit="10" stroke-width="3"></path><path d="M105.18 119.33c.03-.79-.68-1.96-1.33-2.42c-.66-.46-1.19-.7-1.83-1.17c-.69-.5-.61-.77-1.03-1.5c-1.26-2.17-5.23-2.95-7.64-3.13" fill="none" stroke="#EDA600" stroke-linecap="round" stroke-linejoin="round" stroke-miterlimit="10" stroke-width="3"></path><path d="M24.06 68.69c-2.13 2.52-3.15 5.96-2.72 9.24s2.28 6.34 4.99 8.24" fill="none" stroke="#EDA600" stroke-linecap="round" stroke-linejoin="round" stroke-miterlimit="10" stroke-width="3"></path></svg>