<?xml version="1.0" encoding="utf-8"?>

<!DOCTYPE svg PUBLIC "-//W3C//DTD SVG 1.1//EN" "http://www.w3.org/Graphics/SVG/1.1/DTD/svg11.dtd">
<!-- Uploaded to: SVG Repo, www.svgrepo.com, Generator: SVG Repo Mixer Tools -->
<svg height="800px" width="800px" version="1.1" id="_x32_" xmlns="http://www.w3.org/2000/svg" xmlns:xlink="http://www.w3.org/1999/xlink" 
	 viewBox="0 0 512 512"  xml:space="preserve">
<style type="text/css">
	.st0{fill:#000000;}
</style>
<g>
	<path class="st0" d="M264.38,94.988c26.225,0,47.494-21.26,47.494-47.484C311.874,21.269,290.605,0,264.38,0
		c-26.234,0-47.493,21.269-47.493,47.504C216.887,73.728,238.146,94.988,264.38,94.988z"/>
	<path class="st0" d="M335.927,383.345c-9.022,0-226.054,0-226.054,0s0,29.458,0,46.89c0,17.432,15.634,37.275,15.634,44.489
		c0,7.215,0,37.276,0,37.276h126.847c0,0,0-7.214,0-13.222c0,0,20.168-18.131,38.864-35.228
		c20.552-18.791,42.901-42.93,51.321-55.549C350.948,395.371,344.939,383.345,335.927,383.345z"/>
	<path class="st0" d="M109.873,149.178c0-8.132-6.592-14.734-14.724-14.734c-8.142,0-14.734,6.602-14.734,14.734v209.224
		c0,8.133,6.592,14.714,14.734,14.714h14.724V149.178z"/>
	<path class="st0" d="M431.067,469.109l-14.102-120.006c-1.445-15.633-7.329-43.447-40.654-48.948
		c-33.974-5.607-104.525-19.012-104.525-19.012l17.241-67.117l70.111,71.977c5.483,6.563,17.155,9.243,25.383,3.788
		c8.247-5.424,9.893-15.26,4.449-23.498c0,0-90.107-126.062-105.778-147.312c-15.442-20.934-72.226-30.406-80.455,10.132
		c0,0-29.362,123.058-35.15,151.052c-7.214,34.864-1.196,80.54,58.926,80.54c60.113,0,128.253,0,128.253,0l31.917,118.046
		c2.67,12.246,14.764,20.015,27.02,17.355C425.949,493.449,433.717,481.355,431.067,469.109z"/>
</g>
</svg>